<?xml version="1.0" standalone="no"?>
<!DOCTYPE svg PUBLIC "-//W3C//DTD SVG 20010904//EN"
 "http://www.w3.org/TR/2001/REC-SVG-20010904/DTD/svg10.dtd">
<svg version="1.0" xmlns="http://www.w3.org/2000/svg"
 width="1024.000000pt" height="1024.000000pt" viewBox="0 0 1024.000000 1024.000000"
 preserveAspectRatio="xMidYMid meet">
<metadata>
Created by potrace 1.16, written by Peter Selinger 2001-2019
</metadata>
<g transform="translate(0.000000,1024.000000) scale(0.100000,-0.100000)"
fill="#000000" stroke="none">
<path d="M7421 10223 c16 -19 121 -67 180 -83 60 -16 142 -14 204 6 46 14 62
15 102 4 26 -6 59 -14 73 -17 35 -6 37 -12 4 -11 -58 1 -148 -31 -213 -77
-124 -85 -124 -85 -33 -96 146 -18 271 12 347 82 23 22 50 39 59 39 33 0 373
-136 364 -146 -2 -1 -28 4 -58 12 -148 38 -291 -12 -437 -153 l-64 -62 28 -8
c15 -5 89 -8 163 -8 163 0 186 9 317 123 80 70 88 75 114 65 31 -12 279 -176
274 -181 -2 -2 -30 2 -62 8 -150 32 -288 -18 -429 -155 -46 -44 -84 -84 -84
-87 0 -19 153 -31 233 -17 108 18 162 46 260 137 49 45 94 82 102 82 7 0 57
-42 110 -92 l97 -93 -88 0 c-127 0 -174 -24 -312 -159 -76 -75 -104 -108 -96
-116 18 -18 201 -15 265 4 94 28 184 100 237 189 28 47 36 39 128 -116 l54
-90 -49 -18 c-130 -45 -285 -179 -342 -294 l-34 -70 -9 -629 c-8 -585 -7 -634
9 -686 25 -81 59 -143 134 -250 37 -52 80 -116 94 -141 36 -64 169 -184 263
-240 79 -46 197 -98 283 -125 143 -44 611 -128 627 -112 2 3 3 415 2 916 l-3
912 -54 -36 c-180 -121 -389 -169 -626 -144 -186 20 -336 73 -476 168 -84 56
-138 116 -174 194 -29 61 -31 110 -10 193 21 81 71 150 153 212 68 52 210 126
224 117 14 -9 39 -64 34 -73 -3 -4 -27 -16 -53 -26 -154 -58 -273 -194 -273
-311 0 -48 37 -140 73 -180 41 -48 142 -119 213 -150 96 -42 214 -64 379 -71
178 -7 230 3 373 72 72 34 109 60 158 109 l64 64 0 117 0 116 -82 82 c-67 66
-98 89 -161 117 l-78 35 6 40 c3 22 9 43 13 47 11 10 127 -51 220 -114 74 -51
82 -55 82 -35 0 15 -19 35 -58 64 -57 41 -191 113 -211 113 -24 0 -20 26 14
108 20 48 40 97 45 110 l10 22 55 -36 c35 -23 70 -38 100 -41 l45 -6 0 93 0
93 -52 -7 c-28 -4 -64 -14 -80 -22 -17 -9 -28 -10 -28 -4 0 23 54 118 106 186
40 53 54 80 54 104 0 32 -1 33 -19 16 -47 -42 -116 -166 -206 -371 -53 -121
-103 -247 -111 -280 l-14 -60 5 53 c10 116 159 471 294 702 33 56 51 97 51
119 l0 34 -39 -59 c-84 -128 -163 -283 -226 -442 -52 -131 -102 -257 -110
-279 0 -1 -34 6 -74 17 -40 10 -80 16 -88 13 -14 -5 -15 4 -10 68 4 41 9 122
13 180 6 97 8 106 25 102 10 -3 55 12 99 32 64 31 88 48 119 89 40 52 80 129
81 155 0 35 -175 -18 -261 -80 -16 -11 -41 -42 -55 -67 -13 -26 -22 -38 -20
-27 6 23 22 128 31 198 5 34 11 47 22 47 9 0 52 10 96 21 132 36 234 121 281
233 l16 39 -91 -6 c-62 -4 -97 -11 -108 -21 -10 -9 -21 -16 -26 -16 -22 0
-141 -98 -167 -139 l-30 -46 7 35 c4 19 11 62 15 94 5 44 12 64 29 78 23 18
23 18 -33 18 -54 0 -56 -1 -46 -20 6 -11 8 -25 5 -30 -3 -6 -6 -47 -6 -92 l0
-81 -20 39 c-25 48 -123 134 -185 163 -36 18 -60 21 -120 19 l-75 -3 31 -61
c35 -71 120 -156 182 -184 24 -10 74 -24 111 -31 l69 -13 -6 -30 c-3 -17 -8
-70 -11 -117 l-7 -86 -45 48 c-25 27 -67 63 -95 80 -53 34 -166 79 -200 79
-18 0 -19 -4 -13 -37 13 -74 47 -132 104 -185 59 -54 139 -98 181 -98 64 -1
66 -4 58 -88 -3 -42 -7 -119 -7 -169 l-1 -93 -82 0 c-77 0 -157 -9 -218 -25
-23 -5 -29 1 -64 61 -84 144 -206 295 -302 375 l-43 36 39 22 c76 43 135 143
141 241 8 128 -9 258 -28 212 -2 -7 -24 -26 -48 -42 -61 -42 -111 -97 -137
-150 -19 -37 -23 -62 -22 -141 l0 -95 -60 45 c-34 26 -89 64 -123 86 -34 22
-62 43 -62 46 -1 4 16 18 37 33 67 46 117 159 107 239 l-7 48 -101 -3 -101 -3
-15 -50 c-12 -42 -12 -61 -1 -120 7 -38 15 -82 17 -96 5 -27 5 -26 -104 27
-59 30 -125 59 -146 66 l-39 12 33 15 c42 21 67 56 75 109 l7 42 -122 0 c-66
0 -121 -3 -121 -7 0 -5 18 -35 40 -68 21 -32 38 -61 36 -62 -6 -7 -101 20
-138 38 -44 22 -53 35 -50 71 2 28 2 28 -58 28 -38 0 -59 -4 -55 -10 3 -5 12
-10 18 -10 7 0 20 -9 30 -20 9 -11 13 -20 8 -20 -18 0 -146 42 -155 51 -6 5
-102 9 -214 9 -189 0 -203 -1 -191 -17z m2214 -1046 l0 -38 -90 -4 c-49 -3
-106 -9 -125 -15 -49 -14 -47 -15 -70 30 -16 31 -18 42 -8 45 21 8 189 23 243
21 l50 -1 0 -38z m338 -493 c68 -26 141 -74 161 -106 8 -14 5 -23 -19 -48 -40
-42 -55 -44 -115 -14 -51 25 -59 26 -152 20 -86 -5 -99 -4 -105 10 -9 23 12
97 39 138 21 31 24 33 72 29 28 -2 82 -15 119 -29z m-512 -20 c8 -9 28 -53 44
-98 26 -70 34 -81 56 -84 44 -5 52 17 33 93 -18 71 -14 84 28 85 24 0 33 -59
18 -106 -12 -34 -11 -39 9 -55 30 -24 107 -39 207 -39 102 0 107 -13 18 -50
-53 -22 -72 -24 -180 -23 -191 3 -445 69 -495 130 -27 31 35 103 124 143 52
24 119 26 138 4z m-516 -134 c46 -62 116 -111 292 -203 19 -10 75 -29 126 -43
78 -22 120 -27 280 -31 l187 -6 0 -396 c0 -395 -8 -534 -40 -743 -13 -83 -22
-96 -77 -104 -45 -7 -198 0 -258 11 -60 11 -171 47 -220 72 -118 59 -252 199
-319 332 -50 98 -52 132 -48 710 l4 534 19 -43 c11 -23 35 -64 54 -90z"/>
<path d="M813 10066 c-7 -8 -54 -24 -106 -35 -51 -12 -138 -42 -193 -67 -136
-62 -442 -198 -481 -213 -26 -11 -33 -19 -33 -41 l0 -28 138 68 c75 37 171 82
212 100 41 17 123 54 181 82 l106 50 79 -61 c43 -33 131 -100 194 -148 63 -48
151 -117 195 -153 44 -37 118 -95 165 -130 47 -35 108 -84 135 -108 28 -25 88
-72 135 -105 47 -33 150 -113 230 -177 80 -64 190 -149 245 -190 55 -40 143
-108 195 -150 52 -42 124 -96 160 -119 36 -24 97 -69 135 -101 39 -31 108 -83
155 -115 47 -32 117 -81 155 -109 39 -29 188 -130 331 -226 144 -96 260 -178
258 -182 -2 -3 -21 -12 -42 -18 -39 -13 -62 -23 -427 -200 -126 -62 -261 -125
-300 -141 -184 -78 -442 -205 -585 -290 -233 -138 -462 -345 -530 -479 -20
-40 -47 -128 -55 -183 l-6 -37 -37 30 c-20 16 -80 60 -132 97 -52 36 -153 114
-225 172 -71 59 -168 133 -215 166 -46 33 -109 80 -140 105 -30 25 -120 95
-200 155 -175 131 -365 282 -439 347 -30 26 -59 48 -63 48 -4 0 -8 -13 -8 -28
0 -24 25 -48 198 -184 108 -87 242 -191 297 -233 55 -41 137 -104 181 -138 45
-34 117 -88 160 -120 44 -32 108 -82 144 -112 36 -30 99 -79 140 -108 122 -87
235 -169 240 -174 3 -3 -11 3 -30 13 -29 16 -56 19 -170 18 -121 0 -144 -3
-225 -29 -215 -70 -512 -260 -817 -524 l-118 -102 0 -52 0 -52 38 60 c29 45
68 84 158 154 65 52 155 123 199 158 44 35 116 85 160 110 44 26 101 62 126
79 42 29 195 100 258 119 14 4 50 9 80 11 31 2 56 4 56 4 0 13 211 18 250 6
38 -12 35 -12 -41 -8 -249 13 -483 -83 -815 -335 -43 -32 -115 -86 -160 -119
-46 -34 -112 -87 -145 -118 -34 -30 -63 -53 -66 -51 -3 3 -11 -6 -18 -20 -7
-13 -28 -35 -47 -47 -18 -13 -33 -32 -33 -43 0 -15 9 -11 48 25 l47 45 -49
-52 c-26 -28 -46 -57 -43 -65 3 -8 42 26 108 95 57 59 129 125 159 146 150
106 400 271 440 291 25 12 52 28 60 35 8 7 50 30 92 52 43 22 74 44 70 48 -4
5 1 5 11 2 9 -4 17 -2 17 4 0 6 5 7 10 4 6 -3 10 -1 10 4 0 6 3 10 8 10 4 -1
26 -1 50 0 30 1 41 5 36 13 -5 8 -2 9 10 5 10 -4 23 -4 29 0 7 4 18 8 27 9 8
1 39 9 68 17 30 9 95 18 145 21 l92 5 -100 -13 c-103 -14 -239 -49 -348 -90
-72 -27 -214 -100 -177 -91 24 6 25 6 5 -10 -11 -9 -69 -46 -130 -82 -270
-161 -414 -266 -557 -408 -85 -83 -138 -143 -138 -155 0 -11 2 -20 6 -20 3 0
31 17 62 38 31 22 95 58 142 82 47 24 96 53 110 65 14 12 61 44 105 70 44 27
116 72 160 100 44 29 133 82 198 120 65 37 125 74 134 83 12 13 15 13 11 2 -7
-22 -596 -410 -742 -489 -195 -105 -181 -94 -184 -134 -2 -24 1 -37 9 -37 6 0
41 22 78 48 36 26 80 54 96 62 17 8 89 53 160 100 72 48 159 104 195 125 80
47 349 219 640 410 50 33 121 77 158 98 37 20 82 54 100 74 39 44 42 34 6 -19
-27 -38 -88 -81 -284 -198 -58 -35 -181 -114 -275 -175 -155 -102 -465 -297
-767 -484 l-118 -72 0 -51 0 -50 27 18 c16 10 60 35 98 57 39 22 102 59 140
82 39 23 174 102 300 175 127 73 298 172 380 220 83 48 202 115 265 150 124
66 592 345 780 465 63 40 194 118 290 175 96 56 209 123 250 148 120 72 258
153 530 312 563 329 664 391 668 413 5 24 -65 85 -170 149 -48 29 -87 56 -88
60 0 4 7 13 15 22 8 8 15 17 15 20 0 9 -156 199 -192 233 -18 18 -63 56 -100
85 -37 29 -120 100 -185 159 -65 58 -153 134 -196 170 -44 35 -104 85 -135
111 -32 26 -86 69 -122 95 -69 50 -163 126 -293 237 -45 37 -99 80 -122 95
-56 36 -154 112 -258 199 -85 72 -114 95 -367 292 -67 52 -159 124 -205 160
-45 36 -136 106 -202 157 -66 50 -146 114 -178 142 -61 53 -106 66 -132 37z
m-29 -65 c3 -5 19 -8 36 -7 16 1 30 -1 30 -5 0 -16 113 -114 165 -143 30 -17
81 -56 113 -86 32 -30 85 -71 117 -90 33 -19 94 -68 138 -107 43 -40 82 -73
87 -73 5 0 8 -9 7 -20 -1 -22 -12 -26 -22 -10 -4 6 -34 34 -68 62 -34 28 -61
56 -59 61 2 5 -4 7 -13 3 -9 -3 -13 -2 -10 4 3 5 -21 24 -52 43 -32 18 -74 48
-93 66 -50 47 -136 112 -204 155 -33 21 -80 56 -105 77 -25 21 -57 47 -71 58
-14 11 -20 20 -13 21 6 0 14 -4 17 -9z m-42 -14 c39 -37 134 -111 213 -166 50
-35 110 -82 135 -106 25 -24 86 -73 135 -111 50 -37 115 -88 145 -113 30 -26
73 -60 95 -75 22 -16 45 -34 50 -40 6 -6 57 -47 115 -91 58 -43 143 -111 190
-150 47 -40 108 -87 135 -105 28 -19 96 -70 153 -114 140 -110 197 -152 374
-281 83 -60 227 -167 322 -237 169 -125 322 -225 331 -216 3 2 -39 40 -93 84
-147 120 -301 254 -352 305 -25 26 -82 71 -128 101 -45 31 -115 86 -155 124
-39 38 -85 77 -102 88 -56 35 -215 159 -215 167 0 5 -4 8 -10 6 -9 -2 -82 58
-157 130 -35 33 -107 91 -207 168 -32 25 -54 45 -49 45 14 0 74 -42 155 -108
38 -31 95 -76 126 -99 81 -60 162 -135 156 -145 -3 -4 1 -5 9 -2 8 3 58 -31
118 -79 57 -46 124 -97 149 -114 40 -28 115 -91 84 -70 -7 4 -15 3 -19 -3 -3
-5 2 -13 12 -16 45 -14 86 -41 170 -112 50 -42 147 -123 214 -178 68 -56 174
-149 235 -205 61 -57 139 -126 174 -154 63 -51 107 -101 97 -112 -3 -3 -39 19
-79 48 -40 29 -112 76 -160 104 -48 27 -172 112 -275 187 -104 76 -228 167
-278 203 -231 166 -298 217 -366 273 -41 33 -150 119 -244 191 -93 71 -197
152 -229 178 -33 26 -76 59 -95 72 -20 14 -97 73 -171 132 -154 122 -279 218
-498 384 -84 64 -173 136 -199 160 -26 25 -51 45 -55 45 -5 0 -6 5 -3 10 9 14
31 13 47 -3z m2813 -2235 c39 -35 22 -48 -212 -165 -126 -63 -253 -123 -283
-133 -30 -10 -57 -21 -60 -24 -3 -3 -11 -6 -18 -8 -29 -6 0 15 60 43 35 17 66
35 70 40 4 6 8 6 8 1 0 -5 10 0 23 11 12 11 90 55 172 97 174 88 198 106 198
145 0 30 2 30 42 -7z m-475 -62 c0 -6 -23 -22 -51 -38 -28 -15 -86 -49 -128
-76 -69 -45 -266 -144 -596 -301 -268 -127 -461 -253 -608 -395 -121 -117
-144 -149 -167 -233 -7 -26 -15 -45 -18 -43 -8 8 19 96 46 151 72 147 289 332
599 511 93 54 237 123 478 230 61 27 178 83 260 126 144 75 185 89 185 68z
m584 -6 c27 -10 19 -20 -46 -54 -35 -19 -79 -44 -99 -56 -41 -25 -153 -88
-379 -211 -157 -86 -302 -168 -690 -388 -118 -67 -282 -157 -365 -200 -82 -43
-189 -100 -236 -126 -138 -78 -273 -131 -327 -127 l-46 3 33 35 c21 22 29 27
22 13 -6 -12 -11 -25 -11 -29 0 -25 171 48 390 166 52 29 183 97 290 152 107
56 220 117 250 138 30 20 87 54 125 75 39 21 162 91 275 155 113 64 261 147
330 185 166 91 348 196 412 240 29 19 54 35 55 35 1 0 8 -3 17 -6z m-679 -177
c-11 -7 -49 -26 -85 -41 -168 -72 -680 -333 -785 -401 -27 -17 -77 -46 -111
-64 -33 -18 -103 -64 -155 -103 -52 -39 -114 -84 -139 -100 -25 -16 -67 -53
-94 -81 -26 -29 -41 -41 -32 -27 25 38 118 130 126 125 4 -2 15 4 25 15 10 11
15 20 12 20 -4 0 12 17 36 39 60 55 215 153 229 145 6 -4 8 -3 5 3 -12 19 111
88 458 259 354 174 463 222 505 223 23 1 24 0 5 -12z m-25 -95 c0 -4 -91 -54
-202 -110 -112 -56 -239 -122 -283 -147 -44 -24 -86 -42 -93 -40 -7 3 -10 0
-7 -5 3 -5 -11 -16 -32 -25 -21 -9 -47 -24 -58 -34 -11 -10 -42 -26 -70 -36
-27 -10 -59 -24 -70 -32 -25 -17 -45 -17 -45 1 0 8 13 17 30 21 16 4 32 10 35
15 10 16 107 61 121 56 8 -3 14 1 14 10 0 8 4 13 9 10 5 -3 14 0 20 7 5 7 34
24 63 36 98 43 143 66 151 79 4 6 13 12 19 12 5 0 32 11 59 25 27 13 49 22 49
19 0 -3 10 5 23 16 23 23 117 74 117 65 0 -3 30 10 68 29 71 37 82 41 82 28z
m-2079 -1142 c-27 -15 -76 -47 -108 -70 -90 -65 -225 -150 -239 -150 -6 0 -17
-7 -24 -15 -11 -13 -10 -15 6 -9 10 3 -15 -13 -56 -36 -131 -74 -194 -113
-240 -149 -25 -20 -39 -28 -31 -18 22 28 0 19 -39 -15 -19 -18 -12 -9 15 20
43 46 76 70 200 150 11 6 29 16 40 21 12 5 27 16 34 25 7 9 19 16 26 16 6 0
20 9 31 21 18 20 88 63 194 120 24 13 73 43 108 66 36 24 68 41 72 38 4 -3 13
2 20 10 6 7 18 11 26 8 11 -4 0 -14 -35 -33z"/>
<path d="M4350 9826 c-131 -30 -243 -84 -320 -153 -92 -82 -131 -210 -109
-352 7 -45 12 -217 13 -426 l2 -350 29 -60 c36 -76 149 -189 230 -232 79 -42
522 -226 605 -251 73 -22 225 -47 345 -57 139 -11 289 41 378 130 102 102 130
239 74 360 -33 70 -102 145 -172 185 -62 36 -232 93 -252 86 -13 -5 -14 33 -8
307 11 520 12 478 -24 551 -56 115 -184 210 -336 252 -79 22 -376 29 -455 10z
m430 -45 c111 -30 177 -63 244 -123 100 -89 145 -225 116 -349 -7 -30 -16 -58
-20 -64 -4 -5 -3 -44 1 -85 10 -100 10 -437 0 -528 -11 -89 -56 -184 -115
-244 -58 -57 -175 -123 -259 -145 -100 -25 -315 -25 -412 1 -151 40 -270 129
-329 246 l-34 69 -1 333 -2 332 30 -41 c40 -55 116 -119 187 -157 56 -29 59
-33 65 -76 l6 -45 1 39 c2 34 4 38 24 33 12 -3 72 -12 134 -18 l112 -13 -10
-28 c-6 -18 -9 -128 -6 -282 3 -202 7 -257 18 -271 12 -15 27 -17 95 -12 44 3
87 8 96 12 24 9 29 68 29 363 l0 264 -77 -7 c-114 -11 -238 -8 -326 9 -148 29
-299 133 -360 250 -29 56 -32 69 -32 151 1 77 5 97 27 140 39 74 72 114 125
153 59 42 94 58 208 93 83 26 101 28 235 25 113 -2 163 -7 230 -25z"/>
<path d="M4434 9761 c-13 -13 4 -16 76 -13 147 6 341 -38 432 -98 46 -31 103
-92 128 -140 17 -30 20 -174 4 -190 -8 -8 -21 -1 -49 24 -94 86 -266 135 -475
136 -182 0 -325 -41 -446 -130 -38 -28 -71 -46 -75 -42 -13 15 -29 76 -29 112
0 41 30 102 76 153 48 53 168 129 229 144 6 1 31 8 58 14 26 7 47 16 47 21 0
14 -69 -2 -148 -34 -147 -61 -250 -155 -273 -251 -25 -106 6 -199 100 -291
122 -119 230 -158 435 -155 197 3 257 13 335 55 82 44 188 128 218 172 27 41
47 132 40 184 -19 140 -187 280 -377 312 -90 16 -296 27 -306 17z m401 -418
c67 -15 139 -46 178 -77 18 -14 18 -15 0 -39 -23 -32 -105 -93 -163 -122 -78
-39 -145 -49 -315 -49 -173 -1 -234 11 -326 61 -90 48 -87 88 12 155 130 88
398 119 614 71z"/>
<path d="M5082 9190 c-29 -39 -156 -124 -249 -167 -40 -19 -71 -38 -68 -43 3
-5 6 -142 5 -305 0 -168 4 -295 9 -295 14 0 139 60 201 96 85 49 101 86 112
253 5 75 7 201 5 280 -3 83 0 157 5 173 14 40 6 43 -20 8z"/>
<path d="M3980 8612 c0 -26 50 -109 91 -151 124 -123 275 -181 480 -182 210
-1 400 67 459 164 29 46 25 53 -13 20 -56 -49 -214 -122 -300 -138 -140 -26
-289 -16 -416 30 -61 21 -201 116 -231 156 -14 18 -35 51 -47 74 -12 22 -22
34 -23 27z"/>
<path d="M624 9655 c-49 -25 -145 -70 -214 -99 -69 -30 -189 -87 -265 -129
-131 -70 -140 -77 -143 -107 l-3 -32 28 20 c89 62 156 99 256 143 286 128 413
193 409 211 -2 7 3 6 14 -3 16 -13 17 -12 11 5 -7 17 -6 17 10 5 11 -9 14 -10
9 -2 -5 9 -1 12 11 10 10 -1 20 3 23 8 3 6 -9 11 -26 13 -21 2 -58 -11 -120
-43z"/>
<path d="M810 9455 c-189 -91 -240 -118 -240 -127 0 -8 -41 -28 -70 -34 -8 -2
-16 -8 -18 -13 -2 -6 -13 -11 -23 -11 -11 0 -34 -8 -52 -17 -18 -9 -35 -16
-39 -15 -5 1 -8 -2 -8 -6 0 -5 -18 -15 -40 -22 -22 -7 -40 -16 -40 -21 0 -4
-10 -9 -23 -13 -25 -6 -71 -45 -63 -53 3 -3 58 23 123 57 162 87 291 150 306
150 8 0 7 4 -3 11 -12 9 -11 10 7 6 12 -3 21 0 20 5 -1 6 12 15 28 21 17 5 33
15 37 21 5 7 8 6 8 -4 0 -11 5 -9 18 6 27 35 115 73 96 42 -4 -7 -3 -8 5 -4 6
4 9 12 5 18 -3 5 2 9 12 8 33 -4 45 0 39 10 -3 6 1 7 9 4 9 -4 18 1 22 10 3 9
17 16 31 16 13 0 21 4 18 10 -10 17 -25 12 -165 -55z"/>
<path d="M7384 9428 c-2 -3 -12 -4 -22 -2 -9 3 -60 -6 -113 -20 -217 -55 -378
-163 -446 -301 -32 -64 -109 -307 -152 -480 -69 -277 -75 -320 -75 -535 1
-181 3 -202 28 -295 31 -117 68 -200 126 -284 97 -144 229 -255 394 -331 78
-36 198 -70 249 -70 35 0 37 -21 37 -447 l0 -373 -52 0 c-78 0 -257 -64 -347
-124 -108 -72 -180 -171 -198 -272 -46 -257 116 -477 422 -574 86 -27 339 -40
432 -21 79 15 206 64 257 98 22 15 48 26 56 24 28 -6 417 -296 449 -335 11
-13 10 -23 -4 -58 -26 -66 -32 -220 -11 -293 49 -168 189 -319 407 -439 97
-53 276 -97 414 -102 91 -2 126 1 202 21 117 30 220 84 296 154 73 68 112 135
133 229 32 145 -16 272 -156 413 -99 100 -187 156 -323 204 -146 52 -237 66
-431 64 -185 -1 -219 -7 -347 -66 l-77 -35 -63 51 c-35 28 -122 94 -194 147
-71 53 -142 108 -156 121 l-27 24 23 23 c12 12 32 48 44 80 40 107 22 258 -42
369 -36 60 -150 166 -222 204 -69 36 -203 78 -288 88 l-57 7 0 268 c0 147 3
328 7 403 l6 136 41 6 c83 13 201 47 250 72 250 125 428 335 489 578 49 194
55 342 22 588 -28 201 -165 699 -218 790 -37 63 -142 156 -223 199 -78 41
-209 82 -299 93 -78 10 -236 12 -241 3z m331 -62 c181 -46 329 -137 388 -239
14 -24 33 -72 42 -107 9 -36 29 -103 45 -150 43 -125 106 -377 130 -520 18
-105 21 -152 17 -295 -3 -93 -8 -181 -10 -195 -53 -266 -173 -449 -388 -590
-146 -96 -299 -136 -482 -127 -244 12 -433 99 -600 277 -170 182 -240 374
-240 665 0 183 12 266 68 505 40 169 133 457 170 530 33 63 122 138 217 184
207 98 421 118 643 62z m-209 -3009 c1 -294 -2 -490 -8 -493 -5 -3 -19 -3 -31
0 l-22 5 0 539 0 539 30 -51 30 -51 1 -488z m-96 -257 c0 -127 -3 -160 -13
-160 -8 0 -19 -18 -26 -40 -25 -83 30 -140 133 -140 49 0 62 -5 123 -47 63
-42 134 -95 255 -188 40 -30 50 -34 68 -25 11 6 20 7 20 2 0 -29 -132 -101
-255 -139 -85 -26 -361 -26 -455 0 -175 48 -311 151 -378 285 -35 72 -37 81
-36 167 2 122 24 173 113 258 98 95 244 163 381 177 36 4 66 8 68 9 1 0 2 -71
2 -159z m295 128 c83 -17 225 -90 286 -146 55 -50 109 -137 124 -197 11 -50 7
-155 -10 -204 -8 -25 -27 -59 -41 -76 -18 -21 -21 -23 -10 -5 9 13 16 28 16
32 0 9 -246 132 -340 170 -102 40 -116 51 -124 92 -4 20 -18 44 -31 55 -24 18
-25 22 -25 161 l0 142 53 -7 c28 -3 75 -11 102 -17z"/>
<path d="M7335 9351 c-176 -24 -376 -132 -451 -245 -46 -70 -52 -114 -24 -189
47 -125 195 -242 355 -282 169 -41 456 -34 590 15 192 72 315 204 315 338 -1
122 -119 239 -315 312 -122 45 -335 68 -470 51z m327 -42 c70 -12 216 -70 280
-110 101 -65 158 -157 144 -234 -4 -18 -23 -61 -44 -96 -54 -89 -149 -154
-287 -194 -93 -27 -112 -29 -270 -29 -197 0 -277 14 -390 68 -108 53 -209 170
-221 257 -8 60 11 100 79 166 133 131 337 199 562 187 50 -3 116 -9 147 -15z"/>
<path d="M6825 8890 c12 -43 65 -128 98 -159 18 -17 64 -55 104 -85 85 -64
134 -78 340 -96 98 -9 152 -9 214 -1 45 6 85 13 87 16 15 15 -16 17 -81 7 -73
-11 -201 -5 -338 17 -88 14 -120 26 -212 78 -81 47 -121 88 -182 188 -20 33
-34 49 -30 35z"/>
<path d="M7285 8504 c-108 -17 -232 -50 -262 -70 -14 -9 -20 -20 -16 -30 3 -8
1 -77 -6 -152 -6 -75 -14 -204 -17 -285 -7 -158 -13 -177 -59 -177 -28 0 -80
42 -99 79 -39 77 -39 147 0 431 l6 45 -31 -29 c-17 -16 -42 -46 -57 -67 -35
-51 -84 -175 -84 -213 1 -136 248 -329 529 -413 107 -31 341 -44 443 -23 35 7
76 14 92 16 106 14 263 75 373 146 89 58 123 93 168 175 61 110 53 170 -39
282 -65 79 -140 137 -241 186 -73 36 -227 85 -268 85 -5 0 -6 -183 -2 -406 7
-345 6 -406 -6 -402 -11 4 -15 78 -22 414 -5 225 -10 410 -11 411 -1 1 -69 5
-152 7 -105 4 -176 1 -239 -10z"/>
<path d="M8288 7915 c-37 -70 -167 -174 -305 -243 -61 -31 -186 -71 -288 -93
-95 -21 -354 -18 -449 5 -100 23 -307 107 -364 146 -23 17 -45 30 -49 30 -11
0 220 -232 277 -279 75 -61 82 -71 66 -96 -21 -31 -44 -29 -89 7 -23 19 -69
53 -102 75 -33 22 -75 62 -94 88 -41 57 -80 149 -81 188 0 21 -16 44 -62 90
-35 34 -68 71 -75 82 -8 14 -7 -1 2 -50 70 -374 345 -626 747 -685 95 -14 293
22 409 73 61 27 196 126 250 184 66 69 143 195 176 287 15 43 53 216 47 216
-2 0 -9 -11 -16 -25z"/>
<path d="M1144 9356 c-3 -8 -11 -13 -18 -10 -27 10 -327 -133 -321 -153 2 -7
-8 -19 -23 -27 -45 -25 -14 -18 51 12 75 33 328 155 346 166 11 7 11 10 0 17
-20 12 -29 11 -35 -5z"/>
<path d="M1060 9192 c-107 -53 -204 -102 -215 -109 -36 -22 -234 -113 -245
-113 -6 0 -9 -4 -6 -8 3 -5 -7 -9 -22 -9 -15 0 -47 -10 -72 -22 -25 -12 -72
-33 -105 -45 -78 -30 -168 -76 -162 -82 9 -9 182 53 264 94 43 22 116 52 163
67 47 16 99 36 115 47 17 10 37 21 45 25 54 24 466 226 470 230 4 4 -21 23
-30 22 -3 0 -93 -44 -200 -97z"/>
<path d="M730 9141 c-8 -6 -18 -8 -22 -5 -4 3 -18 -1 -30 -8 -13 -7 -28 -11
-35 -10 -29 6 -295 -116 -286 -131 3 -6 1 -7 -4 -4 -12 8 -153 -61 -153 -75 0
-5 -3 -7 -8 -4 -9 6 -47 -22 -40 -30 9 -8 377 170 370 180 -3 5 0 6 7 2 13 -8
221 73 221 86 0 10 -1 10 -20 -1z"/>
<path d="M2045 8597 c-51 -22 -250 -127 -295 -155 -13 -9 -54 -31 -90 -50 -36
-20 -67 -38 -70 -41 -3 -3 -38 -22 -78 -41 -41 -19 -76 -39 -79 -44 -4 -5 0
-6 7 -1 9 6 11 4 6 -4 -5 -7 -14 -10 -22 -7 -8 3 -17 -1 -20 -9 -4 -8 -10 -13
-14 -10 -10 6 -150 -65 -150 -76 0 -9 86 26 109 44 12 9 13 9 7 0 -9 -17 15
-7 77 29 26 15 51 28 54 28 9 0 533 274 600 313 81 47 50 65 -42 24z"/>
<path d="M2147 8506 c-31 -18 -54 -36 -50 -41 5 -4 3 -5 -3 -2 -12 7 -124 -46
-269 -128 -44 -24 -91 -49 -104 -55 -109 -48 -140 -66 -136 -78 3 -9 -1 -12
-13 -8 -9 3 -48 -10 -87 -29 -38 -19 -64 -34 -57 -35 7 0 26 7 41 15 16 8 31
11 35 8 3 -4 6 -1 6 5 0 7 10 11 23 9 14 -1 21 3 19 12 -2 8 3 11 12 8 22 -9
117 34 351 156 237 123 316 169 312 181 -6 19 -23 15 -80 -18z"/>
<path d="M2263 8436 c-29 -14 -101 -52 -160 -85 -59 -33 -182 -94 -273 -137
-91 -42 -167 -80 -170 -84 -3 -4 -15 -10 -27 -14 -13 -4 -23 -12 -23 -17 0
-12 -10 -15 125 42 66 27 148 62 182 76 35 14 104 47 155 75 51 27 127 65 168
84 79 37 113 61 104 75 -8 14 -25 11 -81 -15z"/>
<path d="M620 8429 c-14 -12 -50 -34 -80 -49 -55 -28 -298 -227 -418 -344 -83
-80 -124 -139 -120 -173 3 -24 8 -19 63 53 88 115 386 369 557 475 44 27 55
38 46 47 -16 16 -19 15 -48 -9z"/>
<path d="M362 8380 c-20 -12 -30 -25 -26 -32 4 -7 3 -8 -5 -4 -11 7 -112 -62
-129 -88 -4 -6 -12 -11 -19 -11 -6 0 -50 -35 -97 -78 -81 -74 -86 -81 -86
-119 l0 -41 26 39 c43 64 104 123 209 200 134 98 142 105 160 132 19 27 10 28
-33 2z"/>
<path d="M2355 8342 c-44 -18 -177 -80 -295 -137 -118 -56 -259 -122 -312
-145 -54 -23 -96 -46 -93 -50 2 -4 -8 -12 -23 -19 -25 -11 -26 -10 -8 4 40 31
0 14 -62 -27 -49 -32 -60 -43 -48 -50 10 -6 32 3 70 25 31 19 102 53 158 77
57 23 204 90 328 148 124 58 260 120 304 138 92 38 106 48 80 61 -14 7 -40 0
-99 -25z"/>
<path d="M661 8315 c-46 -25 -107 -62 -135 -82 -125 -91 -446 -406 -446 -438
0 -45 44 -17 106 66 49 66 261 259 368 333 50 35 124 82 163 103 56 30 70 42
61 51 -18 18 -26 16 -117 -33z"/>
<path d="M2440 8250 c-167 -72 -360 -171 -375 -193 -7 -10 -48 -36 -91 -58
-44 -22 -68 -37 -54 -34 23 6 125 53 410 188 58 27 138 64 178 83 66 30 86 52
56 60 -5 2 -61 -19 -124 -46z"/>
<path d="M835 8278 c-70 -38 -213 -132 -291 -190 -147 -109 -354 -337 -354
-390 0 -35 28 -17 69 45 37 58 164 192 236 250 67 53 290 209 340 238 58 32
65 43 39 53 -19 7 -15 8 -39 -6z"/>
<path d="M2545 8159 c-60 -28 -130 -59 -155 -69 -25 -10 -130 -59 -233 -109
-129 -61 -186 -94 -181 -102 4 -7 3 -9 -4 -6 -15 10 -43 -3 -35 -16 3 -6 1 -7
-6 -3 -6 4 -18 2 -26 -4 -8 -7 -15 -10 -15 -7 0 3 -12 0 -26 -8 -15 -7 -32
-11 -39 -9 -7 3 -34 -7 -61 -22 -66 -36 -73 -44 -40 -44 18 0 25 4 20 12 -4 6
-3 8 3 5 15 -9 116 30 309 119 89 41 165 74 169 74 4 0 86 37 183 83 98 46
201 94 230 107 50 22 63 42 31 48 -8 1 -63 -21 -124 -49z"/>
<path d="M917 8170 c-91 -36 -326 -204 -472 -339 -50 -46 -131 -149 -144 -184
-7 -17 -6 -30 2 -41 10 -14 21 -4 76 74 86 122 217 236 431 376 58 38 129 78
158 89 29 11 51 24 49 30 -6 17 -50 15 -100 -5z"/>
<path d="M2655 8098 c-50 -28 -169 -88 -265 -135 -96 -46 -231 -112 -300 -145
-69 -33 -135 -65 -147 -71 -12 -5 -19 -15 -16 -20 4 -6 0 -8 -11 -4 -11 5 -15
3 -10 -5 5 -8 2 -9 -10 -5 -11 5 -15 3 -10 -5 5 -7 2 -9 -7 -6 -17 7 -66 -16
-53 -24 12 -7 223 77 349 139 55 28 118 58 140 68 83 38 435 228 445 240 26
32 -22 19 -105 -27z"/>
<path d="M988 8060 c-190 -105 -348 -221 -464 -341 -114 -119 -158 -190 -117
-188 10 0 49 38 91 89 40 49 101 113 135 143 88 78 255 191 390 267 64 36 115
70 113 75 -6 23 -47 11 -148 -45z"/>
<path d="M2660 7979 c-96 -50 -193 -101 -215 -113 -22 -11 -74 -36 -115 -55
-173 -77 -424 -206 -407 -209 9 -2 15 -8 11 -13 -3 -5 34 10 83 35 49 25 101
50 117 55 17 7 24 15 20 23 -4 6 -3 8 4 4 11 -7 103 34 97 43 -1 3 9 7 23 7
32 2 594 284 596 299 3 27 -54 7 -214 -76z"/>
<path d="M1130 7989 c-132 -71 -221 -130 -214 -141 4 -7 2 -8 -4 -4 -16 10
-169 -97 -264 -184 -92 -84 -164 -186 -147 -206 6 -8 15 -14 19 -14 5 0 29 29
54 64 98 138 354 334 584 448 48 24 89 44 91 45 7 4 -21 33 -33 33 -6 0 -45
-19 -86 -41z"/>
<path d="M2740 7894 c-225 -110 -369 -180 -448 -215 -42 -19 -61 -33 -56 -41
5 -8 2 -9 -10 -5 -9 4 -15 3 -11 -2 3 -5 -12 -15 -32 -21 -61 -19 -174 -78
-163 -85 5 -3 76 28 157 70 139 72 678 327 751 355 43 17 50 30 15 30 -15 0
-107 -39 -203 -86z"/>
<path d="M1270 7919 c-199 -90 -627 -429 -655 -520 -4 -12 -2 -26 5 -33 8 -8
17 -4 33 19 105 145 335 328 615 490 79 46 100 61 65 48 -11 -4 -14 -3 -9 5
10 17 -2 15 -54 -9z"/>
<path d="M1363 7843 c-151 -80 -399 -268 -509 -386 -87 -94 -116 -140 -108
-172 3 -14 9 -25 13 -25 3 0 34 40 69 90 35 49 98 120 140 158 92 82 275 219
390 292 45 28 82 53 82 55 0 15 -38 9 -77 -12z"/>
<path d="M1445 7772 c-211 -117 -644 -547 -598 -593 12 -12 23 -3 105 101 136
171 337 347 502 441 45 26 81 53 81 60 0 24 -38 20 -90 -9z"/>
<path d="M1518 7646 c-92 -51 -192 -118 -303 -203 -89 -68 -245 -276 -245
-325 0 -39 13 -35 45 15 64 95 177 236 217 269 88 71 276 197 346 233 61 30
71 39 61 51 -6 8 -14 14 -18 13 -3 0 -50 -24 -103 -53z"/>
<path d="M1734 7495 c-125 -58 -202 -113 -296 -208 -88 -89 -143 -159 -200
-256 -42 -72 -46 -92 -23 -111 13 -11 19 -4 39 41 35 80 137 210 256 330 90
91 118 113 195 151 114 56 135 70 135 85 0 18 -4 17 -106 -32z"/>
<path d="M1512 7460 c-30 -16 -57 -28 -60 -27 -8 2 -82 -42 -82 -49 0 -3 5 -2
12 2 7 4 8 3 4 -5 -4 -6 -12 -9 -17 -5 -12 7 -41 -15 -34 -26 3 -4 -3 -14 -13
-21 -15 -13 -16 -12 -3 4 32 41 -10 12 -65 -45 -114 -118 -195 -248 -172 -275
17 -21 24 -16 52 42 59 120 209 276 369 383 58 39 75 53 65 52 -2 0 -27 -14
-56 -30z"/>
<path d="M4510 7314 c-328 -180 -1030 -581 -1345 -767 -121 -72 -308 -180
-415 -242 -107 -61 -271 -157 -365 -212 -93 -55 -246 -144 -339 -198 -93 -54
-249 -145 -345 -202 -221 -133 -418 -248 -591 -349 -432 -250 -579 -387 -580
-539 0 -58 26 -109 65 -127 l25 -11 -26 -28 c-23 -24 -26 -32 -17 -51 5 -13
87 -86 181 -163 94 -77 318 -261 498 -410 179 -148 363 -298 408 -333 44 -34
104 -82 131 -106 149 -127 364 -304 724 -595 91 -74 218 -180 281 -236 63 -55
153 -131 200 -169 47 -37 116 -93 155 -124 38 -32 146 -118 241 -192 94 -74
240 -190 325 -258 85 -68 204 -162 264 -210 194 -152 389 -307 436 -348 25
-21 103 -86 174 -144 71 -58 189 -156 263 -218 74 -62 149 -120 166 -129 47
-24 152 -28 222 -8 72 20 184 79 329 172 61 38 177 112 258 164 81 52 197 126
257 164 61 39 182 115 270 170 89 55 238 150 333 211 95 60 224 141 287 179
63 38 185 113 270 167 85 53 197 123 249 155 205 127 424 269 1275 824 224
147 228 150 211 169 -20 23 -88 62 -132 77 -25 9 -32 7 -52 -13 -12 -12 -41
-34 -64 -47 -68 -39 -174 -105 -299 -186 -64 -42 -169 -110 -234 -151 -64 -41
-179 -115 -255 -165 -204 -133 -447 -287 -488 -309 -20 -10 -121 -74 -226
-140 -104 -67 -242 -154 -305 -193 -63 -38 -233 -144 -378 -234 -145 -90 -284
-177 -310 -193 -69 -43 -210 -132 -357 -227 -71 -45 -193 -122 -270 -169 -77
-48 -203 -126 -280 -173 -153 -95 -187 -105 -225 -64 -28 29 -22 72 20 132 31
45 137 120 470 330 61 39 178 115 261 170 83 55 192 123 242 150 104 56 141
80 176 112 13 12 47 34 75 49 28 15 83 48 121 73 39 26 93 57 120 70 67 32
214 125 300 190 39 29 145 97 236 152 91 54 174 107 185 117 34 31 80 61 159
102 42 22 89 48 104 59 27 19 186 102 256 134 67 30 26 2 -82 -57 -57 -30
-124 -70 -151 -88 -26 -19 -90 -55 -142 -81 -52 -25 -111 -60 -130 -77 -19
-17 -96 -69 -170 -115 -74 -45 -170 -105 -213 -132 -43 -26 -83 -56 -88 -65
-5 -10 -24 -25 -42 -34 -18 -9 -61 -36 -97 -59 -36 -23 -96 -56 -133 -73 -37
-17 -87 -44 -110 -60 -23 -16 -78 -51 -122 -78 -44 -27 -96 -63 -115 -80 -19
-17 -63 -46 -98 -63 -68 -34 -106 -58 -287 -181 -65 -45 -140 -93 -165 -108
-25 -14 -81 -49 -125 -77 -44 -28 -136 -87 -204 -131 -147 -93 -231 -169 -231
-207 0 -27 23 -57 44 -57 16 0 101 43 124 62 18 16 247 161 352 223 36 22 135
85 220 140 85 56 191 123 235 150 44 27 170 105 280 175 110 69 280 175 378
236 159 97 387 240 667 417 52 33 145 90 205 127 61 37 227 143 370 237 143
93 301 194 350 223 50 29 135 82 190 117 55 36 137 87 183 115 l82 50 0 43 c0
24 -6 50 -14 58 -12 12 -12 16 6 31 13 12 18 24 14 39 -3 12 -9 40 -13 62 -3
22 -10 43 -15 46 -5 3 4 18 21 32 17 14 31 33 31 41 0 9 -28 37 -62 64 -190
146 -740 599 -908 747 -63 56 -164 143 -225 194 -229 193 -453 378 -525 436
-41 32 -165 138 -275 235 -110 97 -274 239 -365 315 -91 77 -246 209 -345 295
-99 85 -218 186 -265 224 -47 38 -159 134 -249 215 -90 80 -203 180 -250 221
-90 79 -113 99 -407 344 -99 83 -214 180 -257 218 -91 80 -105 83 -197 32z
m200 -85 c52 -45 140 -117 195 -162 111 -90 265 -218 265 -221 0 -4 -142 -92
-240 -149 -131 -76 -361 -213 -580 -347 -219 -134 -283 -173 -450 -270 -69
-40 -222 -130 -340 -200 -118 -70 -296 -174 -395 -230 -99 -57 -197 -114 -218
-127 -61 -38 -448 -268 -637 -378 -266 -154 -647 -382 -720 -430 -36 -24 -123
-81 -195 -127 -134 -87 -189 -133 -200 -169 -12 -36 3 -33 53 13 51 45 349
243 503 333 47 27 185 109 305 182 379 227 900 536 1134 670 350 203 838 489
1025 603 61 36 135 81 165 100 330 200 446 269 569 340 79 46 164 103 189 126
27 27 50 41 57 36 7 -4 44 -35 81 -68 141 -126 480 -422 578 -504 56 -47 198
-168 315 -270 118 -102 230 -198 250 -214 74 -61 239 -203 326 -281 158 -143
307 -268 430 -365 66 -51 167 -135 225 -185 58 -50 157 -133 220 -185 63 -52
165 -140 225 -195 61 -55 153 -135 205 -177 52 -42 138 -113 190 -157 52 -45
131 -110 175 -146 44 -35 115 -92 158 -127 43 -35 102 -80 130 -101 97 -71 96
-68 36 -116 -29 -23 -132 -92 -228 -153 -290 -182 -313 -197 -395 -251 -43
-29 -121 -80 -173 -114 -52 -34 -109 -73 -126 -86 -18 -13 -70 -46 -117 -74
-77 -45 -163 -99 -382 -239 -42 -27 -139 -87 -215 -134 -76 -46 -203 -127
-283 -180 -80 -53 -172 -111 -205 -130 -33 -18 -81 -49 -107 -67 -27 -19 -83
-56 -127 -81 -231 -138 -367 -223 -749 -471 -577 -375 -618 -407 -664 -509
-12 -27 -23 -40 -31 -35 -13 7 -99 77 -163 133 -116 100 -246 207 -394 322
-47 36 -98 78 -113 92 -16 15 -39 34 -52 42 -23 15 -23 16 -9 65 34 113 70
143 475 400 123 77 292 186 374 240 83 54 153 99 155 99 3 0 52 -46 110 -101
58 -55 137 -128 175 -161 39 -34 121 -106 182 -161 114 -102 173 -146 173
-130 0 8 -165 162 -316 294 -91 79 -289 262 -292 270 -3 7 173 123 344 227 56
34 131 81 167 104 37 24 116 75 177 113 133 84 287 185 511 337 92 62 229 153
305 202 142 90 542 348 714 460 52 34 147 93 210 131 182 108 206 126 186 137
-12 7 -23 5 -34 -5 -9 -8 -80 -52 -157 -98 -77 -45 -241 -150 -365 -233 -209
-139 -503 -327 -730 -468 -52 -32 -123 -79 -158 -103 -35 -25 -68 -45 -73 -45
-5 0 -38 26 -73 58 -81 72 -344 290 -426 352 -85 64 -206 163 -304 250 -59 52
-112 97 -118 99 -26 9 195 -188 353 -314 96 -76 226 -183 289 -237 63 -53 150
-126 193 -162 l77 -64 -37 -31 c-49 -40 -398 -265 -823 -529 -102 -63 -200
-125 -218 -139 l-33 -24 -92 86 c-50 48 -148 131 -217 185 -69 54 -134 108
-145 120 -11 13 -49 46 -85 75 -206 168 -265 218 -340 288 -45 43 -81 79 -79
81 31 22 657 398 756 454 95 53 325 200 568 363 55 36 177 110 270 164 94 54
188 110 210 125 22 14 103 64 180 110 77 45 210 124 295 175 240 143 347 204
377 217 22 9 24 12 11 15 -17 4 -51 -12 -228 -111 -99 -56 -551 -327 -660
-396 -41 -26 -120 -73 -175 -103 -142 -80 -305 -180 -437 -268 -152 -102 -319
-208 -398 -254 -197 -112 -484 -283 -620 -368 -85 -53 -163 -97 -174 -97 -10
0 -60 39 -110 88 -51 48 -148 132 -216 187 -185 148 -344 280 -440 365 -47 42
-99 87 -116 100 -17 14 -123 106 -236 205 -437 384 -658 571 -658 558 0 -18
228 -225 510 -462 74 -63 162 -140 195 -170 124 -115 494 -433 625 -536 112
-89 247 -203 317 -266 34 -32 71 -60 82 -64 12 -3 21 -9 20 -13 -1 -9 -228
-159 -374 -247 -132 -80 -128 -77 -387 -249 -215 -142 -251 -174 -293 -263
-13 -29 -27 -53 -30 -53 -6 0 -111 86 -276 228 -60 51 -158 132 -217 180 -60
48 -182 148 -271 222 -90 74 -194 160 -232 190 -37 30 -168 136 -290 235 -122
99 -261 212 -309 250 -145 116 -227 189 -241 212 -17 31 11 91 65 141 58 54
208 156 375 257 80 48 163 99 186 115 50 35 364 222 460 275 39 21 88 51 110
65 22 15 67 41 100 58 33 16 143 80 245 140 102 61 201 120 220 131 72 43 296
174 330 193 44 25 137 80 217 130 34 21 64 38 67 38 2 0 87 50 188 111 100 61
215 128 253 148 68 37 400 238 660 400 72 44 157 97 190 117 228 136 308 189
293 192 -24 5 -90 -26 -220 -104 -126 -75 -150 -89 -433 -265 -315 -195 -514
-313 -895 -531 -129 -75 -280 -161 -335 -193 -132 -76 -448 -264 -555 -330
-96 -60 -269 -161 -470 -274 -138 -78 -343 -202 -415 -251 -22 -15 -110 -69
-195 -120 -174 -104 -215 -131 -315 -205 -67 -51 -165 -146 -165 -162 0 -4 -7
-17 -15 -27 -14 -18 -17 -17 -62 25 -105 96 -293 252 -424 351 -115 87 -179
159 -179 201 0 58 53 147 124 210 71 63 296 213 462 307 112 65 143 83 689
407 373 221 608 358 720 421 115 64 439 253 680 397 66 40 230 135 365 212
707 404 957 541 990 543 9 0 58 -36 110 -81z m4028 -3604 c-1 -2 -66 -39 -143
-83 -173 -97 -353 -207 -380 -231 -11 -10 -54 -38 -95 -61 -41 -24 -93 -57
-115 -75 -22 -17 -67 -49 -100 -70 -33 -20 -89 -59 -125 -85 -36 -26 -85 -58
-110 -70 -48 -24 -131 -75 -287 -178 -52 -35 -136 -86 -185 -113 -49 -27 -169
-103 -266 -168 -97 -65 -226 -147 -287 -183 -155 -91 -223 -133 -346 -215 -59
-40 -132 -84 -161 -99 -29 -14 -111 -65 -181 -113 -71 -47 -184 -122 -251
-166 -68 -44 -141 -92 -162 -106 -21 -14 -91 -59 -154 -99 -63 -40 -137 -88
-165 -105 -77 -50 -156 -125 -176 -170 -24 -52 -25 -127 -1 -148 41 -38 72
-40 159 -12 45 15 112 46 150 70 37 24 115 72 172 106 106 62 213 129 550 341
102 65 236 148 296 185 61 37 130 81 155 99 25 18 72 48 105 67 101 58 455
275 540 331 44 30 134 86 200 126 176 107 386 239 620 390 328 211 377 242
652 413 131 82 222 131 229 124 5 -5 -77 -67 -116 -87 -41 -22 -360 -225 -635
-405 -93 -61 -305 -196 -432 -275 -48 -30 -155 -97 -238 -148 -82 -52 -195
-123 -250 -157 -418 -259 -662 -412 -1060 -663 -82 -52 -193 -121 -245 -153
-52 -32 -144 -90 -205 -128 -396 -252 -484 -296 -578 -289 -52 4 -64 9 -88 36
-37 41 -40 113 -7 181 26 55 128 160 183 190 22 11 76 44 120 73 44 29 163
106 265 171 102 66 250 164 330 217 80 53 181 117 225 140 44 24 125 73 180
109 55 36 102 65 105 65 3 0 10 4 17 10 6 6 55 38 108 71 177 110 359 227 430
275 74 50 180 115 280 170 33 19 75 45 94 59 41 32 212 137 304 188 38 21 105
64 150 96 45 32 109 75 142 95 33 20 89 58 124 84 35 26 91 64 125 83 33 20
104 63 156 96 52 33 118 71 145 86 28 14 53 30 56 35 3 5 9 9 13 9 22 -3 35 1
52 17 11 9 26 18 34 20 17 4 62 41 69 57 3 6 7 2 9 -8 2 -10 2 -20 0 -22z m32
-138 c0 -7 -17 -21 -37 -31 -21 -10 -99 -57 -173 -105 -74 -49 -171 -110 -215
-136 -44 -27 -128 -80 -187 -119 -162 -107 -229 -151 -567 -368 -63 -40 -156
-98 -207 -128 -51 -30 -159 -98 -239 -150 -81 -52 -206 -131 -278 -175 -299
-183 -457 -281 -537 -335 -47 -31 -128 -82 -180 -114 -52 -32 -147 -93 -210
-134 -222 -146 -245 -161 -305 -195 -64 -36 -321 -198 -394 -248 -48 -33 -72
-30 -29 4 15 12 122 83 239 157 256 164 356 228 519 335 69 45 162 104 206
131 45 27 151 93 235 147 85 54 242 153 349 219 107 67 267 166 355 220 88 55
171 110 185 123 14 13 61 43 105 66 44 23 114 66 155 94 41 29 121 80 178 114
57 33 122 76 145 94 23 19 69 50 103 69 33 20 110 69 171 109 61 41 144 93
185 116 40 24 107 64 148 90 57 36 262 155 278 162 1 1 2 -5 2 -12z m-4241
-307 c112 -92 152 -125 287 -240 49 -41 125 -104 170 -140 111 -89 211 -183
199 -187 -6 -2 -113 -71 -240 -153 -126 -82 -319 -207 -428 -277 -267 -172
-305 -203 -336 -278 -14 -33 -26 -62 -27 -64 -3 -3 -92 66 -351 274 -174 140
-305 244 -378 300 -115 89 -265 228 -265 246 0 23 18 64 49 112 37 57 151 136
631 434 80 49 200 126 268 171 l124 82 96 -98 c53 -54 144 -136 201 -182z"/>
<path d="M4594 6966 c-60 -28 -117 -82 -132 -125 -10 -28 -8 -34 22 -66 32
-34 36 -35 108 -35 64 0 80 4 119 28 67 43 102 89 95 126 -11 54 -67 96 -128
96 -18 0 -56 -11 -84 -24z"/>
<path d="M3922 6560 c-41 -10 -88 -53 -95 -87 -5 -29 38 -85 84 -109 79 -40
209 16 209 91 0 32 -37 75 -84 96 -44 20 -62 21 -114 9z"/>
<path d="M3705 6440 c-17 -19 -17 -20 11 -42 16 -13 57 -49 92 -81 l62 -57 32
16 32 17 -44 40 c-98 87 -148 127 -157 127 -5 0 -18 -9 -28 -20z"/>
<path d="M3595 6375 c-47 -17 -85 -57 -85 -90 0 -29 54 -93 89 -107 39 -15
130 -11 157 7 13 8 30 28 38 44 13 24 13 31 2 46 -18 24 -45 13 -59 -24 -20
-54 -91 -50 -141 10 -25 29 -26 33 -12 48 9 8 32 16 52 18 34 2 64 17 64 33 0
7 -45 30 -58 30 -4 -1 -25 -7 -47 -15z"/>
<path d="M3385 6256 c-19 -13 -18 -15 14 -42 19 -16 61 -53 94 -81 59 -53 71
-58 101 -47 30 12 16 32 -69 100 -47 38 -85 72 -85 77 0 12 -35 8 -55 -7z"/>
<path d="M3293 6194 c-3 -8 -1 -33 6 -53 16 -54 15 -54 -29 -31 -48 25 -78 25
-109 1 l-24 -19 24 -12 c13 -7 49 -33 79 -59 89 -75 85 -72 114 -61 32 12 33
28 3 39 -13 5 -29 16 -36 25 -13 15 -11 16 13 6 38 -14 48 -5 40 36 -3 19 -3
34 2 34 5 0 26 -18 49 -39 l40 -40 33 18 32 17 -90 77 c-91 78 -133 96 -147
61z"/>
<path d="M5625 6147 c-27 -17 -117 -72 -200 -123 -192 -117 -365 -226 -435
-274 -30 -20 -86 -56 -125 -79 -38 -23 -168 -101 -288 -174 -120 -73 -248
-150 -285 -171 -37 -22 -112 -68 -167 -102 -55 -34 -129 -76 -165 -94 -36 -18
-110 -62 -165 -98 -55 -36 -170 -107 -255 -158 -327 -192 -475 -292 -459 -308
5 -6 212 115 310 181 24 16 89 55 144 88 55 32 132 79 170 105 67 45 304 185
470 278 44 25 112 67 150 92 39 26 119 75 179 110 60 34 181 107 270 162 151
94 204 128 481 305 61 39 171 106 245 148 176 101 210 123 210 135 0 18 -34 9
-85 -23z"/>
<path d="M5695 6034 c-26 -19 -99 -65 -163 -101 -123 -69 -199 -115 -328 -200
-196 -128 -291 -188 -461 -288 -163 -96 -245 -155 -216 -155 15 0 417 228 514
292 117 77 374 238 434 273 171 98 304 187 299 200 -9 23 -29 18 -79 -21z"/>
<path d="M3014 6020 c-63 -32 -81 -86 -43 -134 58 -74 184 -84 251 -19 99 95
-72 220 -208 153z"/>
<path d="M5810 5983 c-8 -3 -46 -27 -85 -53 -38 -25 -101 -64 -140 -85 -38
-21 -162 -100 -275 -175 -196 -130 -334 -216 -465 -290 -98 -56 -235 -149
-235 -161 0 -16 38 -1 120 48 41 25 143 85 225 133 83 48 239 145 347 216 109
71 281 181 383 244 102 63 185 118 185 122 0 9 -37 9 -60 1z"/>
<path d="M5720 5800 c-102 -65 -243 -156 -315 -201 -71 -46 -159 -104 -195
-130 -36 -26 -94 -61 -130 -79 -86 -43 -360 -229 -360 -244 0 -23 111 33 234
118 50 35 111 74 136 86 25 13 91 54 148 92 57 38 167 109 245 157 379 235
467 294 467 312 0 27 -63 -3 -230 -111z"/>
<path d="M2778 5877 c-64 -30 -82 -70 -58 -131 24 -65 152 -89 221 -43 63 42
64 107 3 153 -41 32 -121 42 -166 21z"/>
<path d="M5895 5770 c-60 -37 -132 -83 -160 -100 -27 -18 -102 -65 -165 -104
-64 -39 -158 -101 -210 -137 -52 -37 -144 -94 -205 -129 -60 -34 -137 -81
-170 -104 -33 -23 -88 -59 -123 -80 -40 -24 -60 -42 -54 -48 14 -14 120 32
183 80 30 22 101 67 159 99 58 33 164 100 235 150 72 50 162 108 200 129 39
21 84 48 100 60 17 12 84 54 150 94 204 123 214 130 208 146 -9 24 -34 15
-148 -56z"/>
<path d="M5940 5660 c-91 -54 -196 -119 -235 -143 -38 -25 -88 -54 -110 -65
-22 -11 -72 -45 -110 -75 -79 -61 -192 -133 -310 -197 -92 -50 -245 -151 -265
-174 -10 -14 -10 -16 6 -16 34 1 217 108 514 302 99 65 228 145 286 179 59 34
155 92 213 130 58 38 130 81 158 97 54 28 65 45 37 56 -19 7 10 22 -184 -94z"/>
<path d="M2564 5730 c-46 -10 -91 -46 -98 -76 -9 -35 33 -99 80 -121 30 -15
43 -15 91 -5 108 23 148 101 82 163 -17 16 -47 33 -67 39 -41 11 -44 11 -88 0z"/>
<path d="M6125 5634 c-44 -25 -143 -87 -220 -138 -77 -52 -172 -110 -211 -129
-39 -20 -84 -47 -100 -60 -16 -14 -69 -49 -119 -79 -49 -30 -119 -74 -155 -97
-36 -24 -126 -78 -200 -121 -74 -43 -136 -83 -138 -89 -7 -20 42 -11 93 18
132 75 233 136 289 174 33 24 96 64 139 91 42 26 75 51 72 56 -3 5 0 12 6 16
8 4 9 3 5 -4 -4 -7 -5 -12 -3 -12 8 0 274 154 327 190 30 20 117 74 193 119
111 68 135 86 126 97 -15 18 -12 19 -104 -32z"/>
<path d="M2345 5610 c-109 -25 -133 -103 -54 -175 35 -32 45 -35 98 -35 44 0
66 6 91 23 42 28 59 72 37 94 -19 19 -47 10 -47 -15 0 -10 -8 -27 -19 -36 -37
-33 -98 -21 -125 25 -18 30 -18 32 1 50 10 11 37 22 58 24 38 5 62 23 47 36
-13 12 -57 17 -87 9z"/>
<path d="M6270 5589 c-14 -11 -60 -40 -103 -65 -45 -27 -74 -50 -70 -56 3 -7
1 -8 -5 -4 -14 8 -64 -23 -56 -35 3 -5 -1 -6 -9 -4 -7 3 -24 -4 -38 -16 -13
-11 -42 -30 -64 -41 -22 -12 -78 -46 -125 -78 -82 -55 -170 -108 -275 -165
-27 -15 -77 -47 -110 -70 -33 -23 -87 -57 -120 -75 -73 -41 -204 -132 -205
-142 0 -16 27 -7 75 25 28 18 77 48 110 67 33 18 87 52 120 75 33 23 130 84
214 135 183 109 212 130 204 143 -3 6 -1 7 5 3 11 -7 131 60 197 109 17 12 86
54 155 94 145 84 157 93 138 109 -10 8 -20 6 -38 -9z"/>
<path d="M6299 5487 c-36 -23 -93 -60 -127 -81 -33 -22 -58 -44 -55 -49 3 -6
1 -7 -5 -3 -6 3 -37 -10 -69 -29 -165 -100 -242 -149 -287 -184 -28 -21 -78
-52 -111 -69 -33 -16 -87 -50 -120 -74 -33 -24 -126 -83 -207 -131 -82 -48
-148 -92 -148 -97 0 -20 32 -9 98 31 37 23 93 57 125 75 33 19 71 42 85 53 15
10 73 46 129 79 98 59 254 157 398 250 39 25 115 73 170 107 162 99 234 148
229 157 -10 16 -40 6 -105 -35z"/>
<path d="M6444 5440 c-30 -12 -322 -187 -375 -225 -26 -18 -62 -41 -80 -50
-19 -10 -108 -66 -199 -125 -91 -59 -205 -130 -255 -158 -127 -71 -257 -150
-275 -167 -10 -11 -11 -18 -3 -26 13 -13 26 -7 153 77 52 34 153 94 225 134
71 39 154 89 185 110 30 22 87 58 125 81 39 23 115 71 170 106 55 36 159 98
230 140 147 85 157 92 149 104 -6 11 -22 11 -50 -1z"/>
<path d="M1943 5402 l-23 -17 86 -70 c47 -38 92 -78 99 -89 13 -18 15 -18 42
5 16 13 48 33 71 43 48 22 50 26 22 51 -18 16 -22 17 -37 3 -52 -45 -59 -44
-139 22 -41 33 -80 63 -87 65 -7 3 -22 -3 -34 -13z"/>
<path d="M6495 5343 c-159 -96 -489 -302 -563 -350 -46 -30 -149 -93 -230
-140 -202 -118 -362 -224 -362 -240 0 -28 25 -17 200 94 69 43 161 99 205 123
44 24 112 64 150 90 39 26 103 66 144 90 41 23 124 75 185 115 61 40 147 91
191 115 69 37 169 96 185 108 5 4 -29 32 -40 32 -3 0 -32 -16 -65 -37z"/>
<path d="M1807 5316 l-78 -43 87 -82 c48 -44 91 -81 96 -81 13 0 101 46 143
75 l37 25 -27 10 c-23 9 -34 6 -73 -20 -52 -34 -55 -35 -71 -17 -8 11 -3 21
24 46 39 35 42 43 20 61 -13 11 -21 8 -50 -20 -26 -26 -39 -31 -59 -26 -33 8
-26 27 25 62 31 21 37 30 28 40 -15 18 -13 19 -102 -30z"/>
<path d="M6630 5274 c-19 -14 -93 -57 -165 -96 -71 -39 -168 -96 -215 -128
-47 -31 -132 -85 -190 -120 -142 -85 -175 -108 -175 -122 0 -6 -6 -13 -14 -16
-9 -3 -11 0 -6 8 4 7 -5 5 -24 -5 -18 -9 -29 -20 -26 -24 2 -5 -1 -8 -8 -7
-17 2 -259 -132 -314 -174 -90 -68 -54 -85 42 -19 33 22 92 56 130 76 69 35
455 268 610 368 44 28 107 66 140 84 33 19 87 50 120 71 33 20 81 49 107 64
54 30 66 45 47 57 -19 12 -19 12 -59 -17z"/>
<path d="M6649 5144 c-212 -123 -244 -142 -324 -191 -44 -27 -105 -65 -135
-84 -64 -42 -307 -185 -430 -254 -47 -26 -98 -63 -114 -82 -28 -34 -50 -39
-26 -6 7 10 -5 0 -28 -22 -73 -71 -54 -74 49 -7 41 26 110 68 154 91 44 24
114 65 155 91 121 77 339 210 415 253 39 22 93 55 120 72 28 18 109 63 180
100 72 38 132 70 134 71 5 5 -20 34 -28 34 -4 0 -59 -30 -122 -66z"/>
<path d="M4005 5023 c-38 -19 -72 -37 -74 -39 -13 -12 26 -59 91 -110 40 -32
134 -110 208 -174 74 -64 208 -178 298 -253 231 -194 277 -234 352 -304 37
-35 70 -63 75 -63 4 0 46 26 92 57 82 56 84 58 63 72 -12 8 -56 48 -98 89 -42
42 -95 88 -117 104 -22 16 -78 64 -125 107 -182 166 -663 552 -685 550 -5 -1
-41 -17 -80 -36z"/>
<path d="M1275 4990 c3 -5 0 -7 -8 -4 -19 7 -136 -73 -158 -110 -26 -43 -24
-57 15 -95 72 -70 152 -71 234 -2 90 76 102 132 42 192 -24 24 -37 29 -80 29
-31 0 -49 -4 -45 -10z"/>
<path d="M2295 4795 c-174 -104 -373 -230 -428 -271 -23 -17 -89 -58 -147 -91
-174 -99 -252 -153 -222 -153 23 0 81 26 122 55 25 17 92 58 150 90 58 33 152
91 210 130 106 73 121 82 358 221 127 74 155 94 133 94 -5 0 -15 2 -23 4 -7 3
-76 -33 -153 -79z"/>
<path d="M3682 4804 c-30 -21 -28 -59 7 -103 37 -47 375 -363 501 -468 52 -44
145 -127 206 -184 62 -58 128 -116 148 -129 20 -14 34 -31 31 -37 -2 -7 -2
-13 1 -13 10 0 110 54 154 84 26 17 56 37 66 43 16 11 15 11 -7 3 -23 -7 -31
-4 -60 26 -19 20 -70 61 -113 92 -44 31 -134 107 -200 169 -67 61 -170 150
-231 198 -60 48 -128 104 -150 125 -22 21 -92 77 -155 124 -121 91 -152 102
-198 70z"/>
<path d="M2495 4792 c-162 -92 -377 -223 -509 -311 -89 -60 -188 -123 -221
-141 -127 -70 -200 -112 -209 -120 -6 -6 6 -8 28 -6 21 2 43 10 50 16 9 10 6
10 -11 1 -13 -6 -23 -9 -23 -7 0 3 19 15 42 27 35 18 40 19 28 5 -17 -21 110
46 160 84 19 15 62 42 95 61 33 18 114 69 180 113 66 44 192 121 280 172 88
50 161 99 163 108 4 20 -14 19 -53 -2z"/>
<path d="M2555 4719 c-22 -12 -58 -34 -80 -48 -22 -15 -87 -54 -145 -86 -88
-48 -243 -147 -367 -233 -16 -11 -50 -32 -76 -47 -27 -15 -47 -29 -44 -31 11
-11 173 69 269 133 58 39 152 98 209 130 57 33 148 88 201 121 53 34 102 62
107 62 6 0 11 5 11 10 0 17 -43 11 -85 -11z"/>
<path d="M2670 4673 c-22 -8 -181 -107 -281 -173 -47 -32 -105 -68 -129 -80
-24 -12 -85 -51 -137 -86 -51 -35 -99 -64 -106 -64 -7 0 -23 -9 -37 -20 -23
-18 -23 -20 -5 -20 38 0 194 87 425 235 36 23 115 71 175 105 130 74 151 90
133 102 -15 9 -17 9 -38 1z"/>
<path d="M3366 4594 c-32 -23 -74 -50 -92 -59 -19 -9 -34 -19 -34 -24 0 -4 48
-46 108 -94 59 -47 166 -138 237 -202 72 -63 202 -173 290 -243 88 -70 203
-169 255 -219 53 -51 102 -93 108 -93 7 0 52 25 99 55 48 30 91 55 95 55 4 0
8 5 8 10 0 6 -5 10 -12 10 -18 0 -221 159 -338 265 -58 53 -170 153 -250 223
-79 70 -197 175 -261 234 -65 58 -125 111 -136 116 -14 7 -30 0 -77 -34z"/>
<path d="M2724 4592 c-59 -33 -124 -83 -121 -94 1 -6 -4 -13 -12 -16 -8 -3
-11 0 -7 7 5 7 1 9 -9 4 -13 -5 -14 -7 -3 -14 7 -5 9 -9 3 -10 -33 -4 -56 -15
-130 -59 -27 -17 -77 -45 -110 -62 -33 -17 -55 -33 -48 -35 17 -6 158 52 158
65 0 6 4 14 9 19 5 5 6 3 2 -4 -17 -30 41 0 159 82 50 34 109 72 133 84 42 22
57 51 25 51 -10 -1 -32 -9 -49 -18z"/>
<path d="M3075 4326 c-65 -37 -364 -225 -415 -261 -26 -18 -125 -81 -221 -141
-186 -115 -260 -166 -298 -208 -38 -40 -12 -31 52 19 57 45 211 146 356 232
41 24 117 72 170 107 53 34 150 95 216 134 123 73 194 126 185 136 -3 3 -24
-5 -45 -18z"/>
<path d="M2984 4130 c-133 -78 -205 -123 -339 -209 -22 -14 -41 -29 -43 -33
-2 -5 -8 -8 -14 -8 -5 0 -29 -17 -53 -38 -24 -21 -63 -52 -87 -68 -85 -57
-160 -117 -165 -131 -9 -24 5 -26 39 -5 58 35 221 115 235 115 7 0 13 4 13 9
0 5 5 6 10 3 6 -4 72 27 148 68 122 66 263 141 330 176 40 21 17 22 -31 2 -25
-11 -47 -18 -49 -15 -5 4 -211 -100 -248 -126 -14 -10 -54 -32 -90 -50 -36
-18 -73 -39 -82 -48 -10 -8 -18 -12 -18 -7 0 4 -6 3 -12 -2 -25 -20 -168 -94
-168 -87 0 3 -7 1 -15 -6 -8 -7 -15 -10 -15 -8 0 16 326 248 348 248 5 0 24
11 43 25 19 14 68 44 109 67 91 49 360 208 360 212 0 2 -13 3 -28 4 -19 0 -80
-30 -178 -88z"/>
<path d="M7841 4133 c-5 -10 -12 -17 -15 -15 -13 6 -214 -119 -257 -160 -8 -7
-30 -22 -49 -32 -19 -11 -49 -29 -66 -40 -16 -12 -73 -49 -125 -83 -225 -148
-331 -215 -386 -246 -33 -19 -108 -68 -169 -109 -60 -42 -143 -94 -184 -117
-78 -44 -118 -76 -108 -86 7 -7 116 48 193 97 28 18 131 84 230 147 99 63 226
143 283 178 57 34 135 85 175 113 87 61 275 187 320 214 127 78 195 128 190
142 -7 19 -20 18 -32 -3z"/>
<path d="M3286 4132 c-3 -5 -49 -38 -103 -75 -54 -37 -116 -84 -138 -104 -36
-32 -142 -107 -155 -108 -12 -2 -57 -29 -77 -48 -13 -11 -23 -18 -23 -14 0 6
-35 -11 -225 -113 -102 -54 -189 -110 -182 -116 9 -9 309 142 412 207 22 14
65 38 95 53 30 16 73 43 95 61 22 17 74 54 115 82 225 149 241 163 205 176 -8
4 -16 3 -19 -1z"/>
<path d="M7845 4004 c-222 -149 -365 -253 -365 -266 0 -5 -4 -7 -8 -4 -8 5
-123 -66 -377 -231 -91 -59 -126 -80 -340 -206 -66 -39 -127 -77 -135 -85 -8
-8 -9 -12 -2 -8 6 4 12 3 12 -3 0 -5 -6 -12 -12 -14 -10 -4 -10 -6 0 -6 7 -1
24 6 37 15 14 9 25 13 25 10 0 -19 256 132 377 222 38 27 104 72 148 99 103
64 236 147 303 190 29 18 69 48 90 67 42 37 273 196 390 269 75 47 93 69 62
75 -9 1 -101 -54 -205 -124z"/>
<path d="M3300 4008 c-41 -27 -107 -74 -145 -103 -68 -50 -177 -117 -260 -158
-22 -11 -81 -46 -131 -78 -50 -32 -125 -74 -167 -95 -76 -37 -147 -88 -147
-105 0 -12 126 52 271 137 63 38 154 92 202 119 76 43 291 180 439 278 49 33
62 57 31 56 -10 0 -52 -23 -93 -51z"/>
<path d="M8180 4002 c0 -5 -19 -16 -42 -27 -51 -21 -109 -70 -100 -81 4 -5 0
-3 -9 4 -13 10 -19 10 -28 -1 -6 -8 -9 -16 -6 -19 3 -3 -3 -11 -12 -19 -16
-13 -17 -12 -4 4 7 9 9 17 3 17 -13 0 -33 -25 -26 -33 4 -4 -3 -5 -15 -2 -14
2 -21 -1 -21 -11 0 -9 -5 -12 -12 -8 -7 4 -8 3 -4 -4 4 -7 -4 -16 -21 -23
-100 -41 -440 -236 -440 -252 0 -30 255 108 539 292 64 42 142 91 173 109 57
34 65 46 40 56 -8 3 -15 2 -15 -2z"/>
<path d="M3349 3917 c-105 -71 -345 -227 -507 -331 -45 -28 -79 -56 -75 -61 5
-4 2 -5 -4 -1 -21 12 -203 -101 -203 -126 0 -16 18 -8 91 40 41 27 97 61 126
77 29 15 50 32 46 38 -3 6 -1 7 5 3 25 -15 202 100 184 119 -4 5 -2 5 5 2 21
-12 456 267 461 296 6 29 -18 18 -129 -56z"/>
<path d="M3485 3864 c-39 -25 -137 -87 -220 -137 -82 -50 -172 -107 -200 -127
-27 -20 -75 -50 -105 -67 -194 -107 -310 -184 -310 -207 0 -17 2 -17 23 -3 12
9 92 59 177 111 361 219 515 317 512 327 -1 6 2 8 8 4 18 -11 224 120 214 136
-10 17 -30 9 -99 -37z"/>
<path d="M5361 3784 c-58 -36 -150 -99 -205 -140 -56 -42 -136 -96 -179 -121
-43 -25 -74 -49 -71 -55 4 -6 1 -9 -7 -6 -8 3 -36 -12 -64 -32 -27 -20 -82
-57 -121 -83 -63 -41 -93 -72 -81 -83 2 -2 48 24 103 58 54 34 151 93 214 131
63 39 149 96 190 127 41 31 118 83 170 115 142 87 210 137 204 146 -12 20 -55
4 -153 -57z"/>
<path d="M3593 3802 c-208 -136 -472 -299 -603 -372 -108 -60 -192 -119 -185
-131 4 -5 -5 -13 -18 -18 -13 -5 -27 -16 -30 -24 -3 -8 41 16 97 54 56 37 127
80 156 95 93 46 426 249 602 367 46 31 62 57 36 57 -7 0 -32 -13 -55 -28z"/>
<path d="M5153 3789 c-3 -11 -11 -18 -19 -15 -7 3 -24 -4 -37 -15 -14 -10 -28
-19 -32 -19 -3 0 -25 -13 -48 -29 -23 -15 -91 -54 -152 -85 -161 -82 -236
-128 -254 -155 -15 -23 -15 -24 6 -13 12 7 25 17 28 22 3 6 11 10 17 10 6 0 5
-7 -3 -17 -13 -17 -12 -17 6 -2 32 27 121 77 245 140 151 75 255 147 256 177
2 28 -6 29 -13 1z"/>
<path d="M5554 3747 c-22 -13 -69 -44 -105 -68 -35 -24 -121 -80 -190 -124
-70 -44 -167 -107 -217 -140 -50 -33 -146 -96 -214 -139 -112 -72 -135 -98
-75 -82 29 7 260 155 363 232 45 33 121 82 170 109 98 53 276 166 311 198 20
18 23 37 5 37 -4 0 -25 -11 -48 -23z"/>
<path d="M3690 3734 c-19 -14 -53 -35 -75 -46 -22 -11 -87 -52 -145 -91 -100
-67 -236 -148 -473 -281 -112 -63 -176 -109 -166 -120 8 -9 333 171 538 298
274 169 371 237 371 258 0 13 -13 9 -50 -18z"/>
<path d="M3655 3599 c-212 -136 -531 -331 -612 -373 -77 -40 -158 -105 -133
-105 34 -1 472 251 723 416 165 109 217 154 175 153 -7 -1 -76 -41 -153 -91z"/>
<path d="M5645 3643 c-277 -171 -521 -325 -575 -363 -36 -25 -97 -65 -135 -87
-39 -23 -82 -51 -95 -62 -22 -17 -23 -20 -8 -26 19 -7 89 33 307 177 177 118
277 181 454 289 77 47 143 91 145 97 7 23 -34 12 -93 -25z"/>
<path d="M3744 3521 c-88 -54 -186 -116 -219 -138 -33 -22 -80 -50 -105 -63
-25 -13 -58 -33 -75 -45 -16 -13 -91 -58 -165 -100 -174 -101 -219 -135 -175
-135 40 0 269 136 258 153 -3 6 -2 7 4 4 13 -8 102 39 233 123 95 60 200 127
346 218 66 41 90 67 71 75 -8 3 -86 -39 -173 -92z"/>
<path d="M7964 3596 c-3 -8 -11 -13 -18 -10 -6 2 -21 -3 -31 -13 -11 -10 -26
-18 -32 -19 -30 -2 -34 -5 -27 -16 4 -6 3 -8 -4 -4 -14 8 -63 -14 -56 -26 3
-5 0 -8 -7 -7 -26 4 -120 -44 -114 -59 2 -7 1 -11 -4 -7 -11 6 -202 -82 -282
-130 -30 -19 -61 -46 -67 -60 -7 -14 -17 -23 -22 -20 -6 3 -10 1 -10 -5 0 -15
37 -3 75 25 17 12 58 39 92 60 35 21 60 42 56 48 -3 5 -1 7 5 4 13 -9 44 2 37
13 -3 4 2 11 11 14 8 3 12 2 9 -4 -9 -15 -6 -14 116 51 62 34 149 79 192 102
44 22 81 46 84 53 3 8 10 11 16 7 6 -3 7 -1 3 5 -10 16 -15 15 -22 -2z"/>
<path d="M5740 3547 c-122 -71 -176 -104 -355 -221 -312 -204 -439 -291 -443
-305 -9 -28 38 -2 232 130 216 147 371 246 486 311 113 63 180 107 180 118 0
18 -24 10 -100 -33z"/>
<path d="M3915 3497 c-38 -23 -88 -54 -110 -69 -22 -14 -137 -87 -255 -161
-118 -74 -253 -159 -299 -188 -91 -57 -145 -99 -137 -106 2 -3 14 1 27 7 19
10 21 10 16 -3 -3 -8 30 10 74 42 43 31 134 89 201 130 68 40 173 106 233 146
61 40 164 106 229 147 66 40 121 79 124 86 7 24 -33 11 -103 -31z"/>
<path d="M5859 3496 c-19 -14 -54 -37 -79 -52 -25 -16 -76 -49 -115 -75 -38
-25 -95 -58 -125 -74 -67 -33 -348 -217 -349 -228 -1 -5 4 -5 11 -1 7 4 8 3 4
-4 -4 -6 -14 -8 -23 -5 -11 4 -14 3 -9 -5 4 -8 2 -10 -7 -6 -8 3 -27 -6 -43
-19 -16 -13 -43 -31 -60 -40 -39 -20 -63 -47 -42 -47 18 0 133 69 308 186 74
50 191 123 260 162 145 82 326 204 323 217 -3 18 -20 15 -54 -9z"/>
<path d="M5810 3340 c-91 -60 -185 -120 -210 -133 -25 -13 -44 -29 -43 -35 2
-6 -3 -9 -10 -7 -6 3 -63 -29 -125 -70 -63 -41 -144 -93 -181 -115 -37 -22
-77 -49 -89 -60 -12 -11 -26 -20 -32 -20 -6 0 -8 -5 -4 -12 5 -8 2 -9 -11 -4
-15 5 -16 4 -5 -9 15 -19 43 -4 254 132 129 82 242 153 503 315 109 67 159
109 146 121 -13 13 -30 4 -193 -103z"/>
<path d="M7332 3394 c-76 -45 -131 -67 -118 -46 9 15 -17 6 -71 -26 -44 -24
-58 -21 -25 5 9 9 4 7 -13 -3 -68 -40 -104 -67 -100 -74 3 -4 -10 -13 -28 -21
-49 -19 -208 -114 -247 -148 -24 -20 -32 -33 -25 -40 7 -7 30 2 74 30 84 53
553 313 614 340 15 7 27 16 27 21 0 13 -12 9 -88 -38z"/>
<path d="M6040 3347 c-100 -60 -245 -160 -243 -168 2 -4 -3 -6 -11 -3 -7 3
-20 -1 -27 -8 -8 -8 -29 -20 -46 -27 -18 -7 -43 -23 -56 -35 -12 -11 -27 -22
-32 -23 -6 -2 -71 -43 -145 -91 -74 -49 -160 -103 -190 -120 -85 -49 -104 -66
-88 -79 13 -11 142 66 448 265 58 38 128 82 155 97 28 16 89 54 136 84 47 31
108 69 134 84 37 22 45 31 34 38 -20 12 -29 10 -69 -14z"/>
<path d="M6262 3007 c-197 -150 -292 -219 -305 -221 -35 -6 -57 -19 -62 -37
-4 -10 -10 -17 -14 -14 -4 2 -17 -4 -27 -13 -10 -10 -26 -16 -34 -15 -8 2 -35
-10 -60 -27 -43 -29 -49 -41 -9 -20 10 6 19 8 19 6 0 -8 -38 -27 -62 -31 -25
-5 -49 -25 -43 -35 3 -4 -11 -22 -30 -39 -20 -17 -33 -31 -29 -31 3 0 23 15
44 33 22 18 66 49 99 67 120 69 661 436 661 449 0 29 -40 9 -148 -72z"/>
<path d="M6435 2987 c-220 -145 -255 -171 -255 -187 0 -11 -2 -12 -8 -3 -10
16 -52 -11 -52 -33 0 -16 21 -19 36 -5 5 5 49 33 99 61 88 51 228 150 241 171
3 6 2 15 -3 20 -5 5 -29 -5 -58 -24z"/>
<path d="M6529 2910 c-24 -16 -83 -58 -130 -92 -48 -35 -112 -78 -143 -97 -30
-19 -54 -37 -51 -39 2 -3 -9 -12 -25 -21 -27 -15 -169 -109 -285 -188 -27 -19
-82 -56 -122 -81 -40 -26 -72 -52 -73 -59 0 -27 22 -21 77 17 105 74 157 109
243 162 47 28 119 77 160 108 41 31 93 67 115 81 47 28 272 185 297 207 18 15
15 32 -6 32 -6 0 -32 -13 -57 -30z"/>
<path d="M6530 2764 c-69 -48 -169 -117 -223 -153 -58 -39 -95 -71 -93 -78 3
-8 -6 -16 -22 -19 -53 -14 -412 -253 -405 -271 8 -20 19 -16 58 24 19 20 38
33 41 30 4 -4 21 1 37 11 26 14 274 178 482 319 33 22 113 75 178 117 65 43
116 83 114 89 -9 30 -49 14 -167 -69z"/>
<path d="M6672 2679 c-89 -42 -228 -125 -364 -216 -21 -14 -35 -29 -32 -34 4
-7 -44 -38 -63 -40 -5 -1 -29 -16 -54 -35 -26 -19 -50 -34 -54 -34 -17 0 -145
-82 -140 -90 3 -5 0 -12 -6 -16 -8 -4 -9 -3 -5 4 10 16 -9 15 -22 -1 -23 -28
34 -11 96 28 352 222 389 246 349 232 -11 -4 -16 -3 -12 4 4 6 14 8 23 4 9 -3
33 6 56 23 23 16 111 69 196 117 85 47 159 91 165 96 23 23 -38 3 -133 -42z"/>
<path d="M5303 2269 c-35 -23 -63 -47 -63 -53 0 -6 -10 -17 -22 -25 l-23 -14
20 23 c19 23 19 23 -24 -3 -77 -45 -132 -87 -127 -96 3 -5 -1 -12 -10 -15 -10
-4 -13 -2 -8 6 4 7 3 8 -4 4 -7 -4 -12 -14 -12 -23 0 -10 -5 -13 -17 -9 -10 4
-14 4 -10 0 8 -8 -11 -34 -25 -34 -5 0 -6 6 -2 13 5 8 3 8 -9 -2 -9 -7 -15
-17 -12 -21 3 -5 1 -11 -5 -15 -5 -3 -10 -1 -10 5 0 6 -5 8 -10 5 -6 -4 -8
-10 -5 -14 6 -11 -19 -32 -80 -67 -27 -16 -70 -44 -95 -62 -24 -19 -46 -29
-48 -24 -8 24 -131 -70 -132 -100 0 -6 51 14 76 30 174 113 246 163 350 237
68 50 167 115 219 145 113 63 176 115 168 135 -7 21 -10 20 -80 -26z"/>
<path d="M5255 2084 c-105 -70 -207 -140 -227 -156 -21 -16 -82 -58 -135 -93
-54 -35 -107 -71 -118 -80 -20 -15 -19 -16 3 -5 32 15 27 5 -10 -21 -26 -19
-30 -20 -25 -6 5 15 3 16 -13 7 -26 -14 -34 -30 -21 -43 10 -10 203 113 576
366 33 23 93 63 133 90 53 36 70 52 60 58 -7 5 -18 9 -23 9 -6 0 -96 -57 -200
-126z"/>
<path d="M5455 2067 c-55 -35 -176 -114 -270 -177 -93 -63 -209 -141 -257
-173 -49 -32 -88 -62 -88 -67 0 -6 -4 -9 -8 -7 -4 1 -23 -11 -41 -26 -24 -20
-31 -31 -23 -39 7 -7 27 1 67 28 31 22 80 55 110 74 142 93 277 184 341 229
39 28 113 76 165 107 94 56 139 90 139 106 0 20 -43 3 -135 -55z"/>
<path d="M5605 2007 c-44 -24 -140 -83 -213 -132 -73 -50 -147 -99 -165 -109
-118 -70 -316 -210 -310 -219 3 -6 1 -7 -5 -3 -12 7 -40 -39 -30 -49 3 -3 37
18 76 47 48 35 67 55 59 60 -8 5 -4 8 10 8 12 0 42 13 65 29 37 25 166 108
370 236 276 175 245 153 232 165 -5 5 -40 -8 -89 -33z"/>
<path d="M4135 3232 c-16 -10 -36 -25 -43 -35 -7 -9 -29 -24 -48 -32 -36 -15
-43 -39 -24 -76 14 -25 20 -24 51 5 14 13 46 34 70 46 79 40 102 77 60 100
-25 13 -29 12 -66 -8z"/>
<path d="M4375 3138 c-22 -12 -90 -56 -152 -100 -62 -43 -115 -78 -118 -78 -9
0 -284 -171 -299 -186 -8 -8 -17 -14 -20 -14 -7 0 -191 -117 -233 -148 -18
-13 -30 -28 -27 -33 7 -12 69 22 244 134 74 47 191 121 260 164 237 149 390
254 390 268 0 18 4 19 -45 -7z"/>
<path d="M3945 3100 c-10 -11 -22 -20 -26 -20 -4 0 -29 -14 -54 -31 -38 -25
-45 -35 -39 -52 6 -19 5 -20 -9 -8 -18 14 -51 10 -81 -12 -18 -13 -18 -15 -1
-40 9 -15 21 -27 26 -27 22 0 89 55 101 81 14 32 23 36 32 14 8 -22 27 -18 65
14 31 25 33 31 27 64 -8 42 -15 45 -41 17z"/>
<path d="M4275 2939 c-121 -81 -271 -179 -335 -216 -126 -74 -301 -190 -312
-207 -10 -15 -10 -26 1 -26 5 0 49 26 98 58 88 58 194 125 341 214 157 96 461
303 458 313 -7 24 -43 4 -251 -136z"/>
<path d="M4443 2907 c-84 -56 -204 -136 -265 -178 -62 -42 -142 -93 -178 -114
-115 -68 -285 -178 -292 -189 -18 -28 9 -21 75 18 190 113 370 226 497 313 36
24 127 85 203 135 122 80 162 118 125 118 -7 0 -82 -46 -165 -103z"/>
<path d="M3681 2936 c-7 -8 -31 -24 -54 -35 -49 -25 -59 -31 -149 -90 -71 -46
-77 -55 -55 -85 12 -17 15 -17 50 4 32 19 36 25 30 52 -4 22 -3 29 5 24 7 -4
12 -16 12 -27 0 -30 12 -25 97 38 29 21 31 26 22 50 -10 26 -10 27 10 9 37
-33 93 5 73 49 -13 28 -24 31 -41 11z"/>
<path d="M4641 2889 c-76 -41 -238 -150 -366 -244 -38 -29 -88 -61 -110 -73
-22 -11 -76 -44 -120 -74 -44 -30 -99 -65 -122 -78 -24 -13 -43 -30 -43 -38 0
-16 120 46 207 107 248 174 413 283 493 326 112 59 149 85 150 103 0 18 -8 15
-89 -29z"/>
<path d="M4745 2814 c-33 -18 -61 -37 -63 -43 -2 -5 -10 -7 -18 -4 -10 4 -17
-2 -21 -15 -3 -12 -10 -18 -19 -15 -8 3 -17 -2 -20 -11 -3 -9 -11 -15 -18 -14
-6 2 -34 -11 -61 -27 -28 -17 -59 -36 -70 -42 -11 -6 -19 -16 -17 -23 1 -6 -2
-9 -8 -5 -5 3 -45 -21 -88 -54 -44 -34 -84 -61 -90 -61 -7 0 -12 -4 -12 -10 0
-21 37 -2 168 85 93 62 154 99 279 168 82 45 141 91 127 98 -5 3 -36 -9 -69
-27z"/>
<path d="M4890 2607 c-108 -59 -250 -155 -250 -168 0 -5 -7 -9 -15 -9 -9 0
-18 -7 -21 -15 -4 -8 -9 -13 -14 -10 -4 2 -22 -7 -41 -21 -19 -14 -79 -51
-134 -82 -134 -75 -256 -154 -279 -181 -22 -24 -13 -41 12 -24 9 7 89 56 177
109 88 54 232 145 320 204 88 58 205 133 260 165 55 32 94 60 87 63 -7 2 -10
8 -6 13 8 14 6 13 -96 -44z"/>
<path d="M4498 2466 c-15 -8 -29 -12 -32 -8 -3 3 -6 -1 -6 -8 0 -7 -3 -11 -6
-7 -3 3 -63 -29 -132 -71 -70 -43 -153 -91 -185 -107 -66 -34 -135 -89 -125
-100 4 -4 43 13 87 39 44 25 85 46 91 46 5 0 10 5 10 10 0 6 4 10 9 10 21 0
321 192 321 206 0 6 -2 5 -32 -10z"/>
<path d="M295 7219 c-38 -11 -121 -48 -182 -82 -93 -50 -113 -66 -113 -84 0
-29 1 -29 51 3 68 43 280 144 303 144 11 0 39 9 61 19 l40 19 -45 0 c-25 1
-76 -8 -115 -19z"/>
<path d="M460 7153 c-79 -13 -170 -53 -307 -136 -141 -85 -153 -94 -153 -121
0 -27 1 -28 18 -14 21 19 236 145 317 186 33 17 92 38 130 47 100 24 104 26
80 35 -21 9 -44 10 -85 3z"/>
<path d="M510 7050 c-63 -17 -134 -43 -175 -64 -64 -33 -214 -140 -208 -149 3
-6 1 -7 -6 -3 -16 11 -121 -80 -121 -105 0 -26 12 -24 41 7 35 39 240 170 344
221 49 24 127 55 173 69 45 14 82 29 82 35 0 14 -57 9 -130 -11z"/>
<path d="M631 6979 c-146 -38 -431 -198 -514 -288 -16 -17 -49 -45 -73 -63
-35 -25 -44 -37 -44 -62 l0 -30 28 25 c15 14 57 52 93 86 172 156 376 259 631
317 19 4 26 11 22 21 -8 20 -52 18 -143 -6z"/>
<path d="M750 6893 c-93 -16 -159 -42 -280 -111 -160 -90 -168 -96 -338 -237
-121 -101 -132 -113 -132 -144 0 -39 -1 -39 90 44 206 187 235 211 325 260 39
21 95 53 125 71 30 18 95 45 144 59 89 25 129 43 71 30 -30 -6 -30 -6 4 10 40
18 45 19 38 2 -3 -7 3 -13 13 -13 10 0 16 4 14 8 -3 4 3 8 13 9 13 1 11 3 -7
9 -28 9 -43 9 -80 3z"/>
<path d="M820 6789 c-113 -22 -201 -64 -360 -169 -14 -9 -33 -19 -43 -23 -24
-9 -127 -88 -127 -97 0 -16 46 6 120 56 150 102 348 203 364 186 3 -3 6 -1 6
4 0 5 10 10 23 10 65 4 147 18 147 26 0 5 5 6 10 3 6 -3 10 -1 10 4 0 13 -85
13 -150 0z"/>
<path d="M145 2854 c-142 -16 -145 -17 -145 -45 0 -18 4 -20 27 -15 16 3 86
13 158 22 338 42 799 -25 1125 -164 329 -140 627 -408 764 -685 107 -217 124
-473 47 -698 -77 -223 -169 -368 -351 -549 -143 -143 -290 -248 -460 -329
-151 -71 -393 -149 -520 -166 -25 -3 -52 -8 -60 -10 -77 -20 -568 -29 -677
-12 -43 6 -53 5 -53 -7 0 -21 23 -26 180 -38 642 -46 1276 170 1642 561 170
182 295 397 334 576 l13 60 -5 -51 c-14 -150 -107 -351 -239 -516 -293 -367
-714 -579 -1305 -659 -111 -15 -454 -12 -547 4 l-73 13 0 -73 0 -73 635 0
c729 0 663 -8 878 101 285 144 513 353 682 624 93 148 155 357 155 518 0 138
-48 324 -122 472 -19 39 -41 88 -48 110 -26 80 -100 226 -159 313 -136 199
-371 394 -622 517 -347 170 -832 247 -1254 199z"/>
<path d="M395 2641 c-70 -18 -113 -54 -189 -156 -33 -44 -42 -50 -79 -52 -23
-1 -61 -5 -85 -8 l-42 -6 0 -71 0 -70 40 4 c45 4 48 -2 21 -40 -42 -61 -61
-112 -61 -165 0 -46 10 -75 65 -191 66 -141 95 -227 95 -288 0 -28 -5 -37 -25
-46 -36 -16 -45 -15 -45 6 0 23 -53 180 -73 218 -15 27 -16 17 -17 -177 l0
-206 31 -7 c65 -13 154 -6 219 16 90 31 145 88 208 213 l49 98 1 -112 c1 -129
1 -131 94 -188 32 -20 58 -39 58 -44 0 -4 -17 -18 -37 -30 -62 -37 -264 -190
-316 -238 l-47 -44 6 -121 c4 -67 12 -127 18 -135 6 -7 76 -56 156 -109 217
-141 221 -144 217 -156 -6 -17 -120 -30 -272 -31 -174 0 -297 13 -369 41 -14
5 -17 2 -14 -17 4 -29 25 -34 185 -48 253 -23 422 -9 664 53 142 36 257 90
409 190 155 104 244 189 323 308 111 169 152 280 150 408 -4 209 -22 284 -103
429 -50 88 -78 125 -163 209 -158 156 -201 186 -360 251 -113 46 -244 85 -343
102 l-71 12 -12 46 c-16 60 -52 106 -103 132 -45 23 -135 33 -183 20z m52 -70
c61 -32 137 -162 155 -262 9 -50 8 -67 -7 -105 -9 -24 -20 -42 -25 -39 -4 2
-10 27 -14 54 -14 103 -113 255 -197 303 -45 25 -47 31 -16 53 24 17 69 15
104 -4z m-86 -140 c112 -116 168 -323 114 -421 l-13 -25 -6 40 c-19 119 -91
257 -185 352 -28 29 -51 56 -51 62 0 16 42 41 69 41 16 0 40 -16 72 -49z
m-106 -146 c31 -44 68 -101 81 -127 29 -58 54 -157 54 -219 0 -48 -16 -109
-30 -109 -4 0 -13 28 -20 61 -17 81 -83 208 -160 309 l-62 82 33 48 c19 27 37
46 40 42 4 -4 33 -43 64 -87z m548 10 c64 -9 136 -23 159 -32 24 -8 73 -23
110 -32 l67 -16 -82 -55 c-45 -30 -127 -89 -182 -131 -55 -41 -122 -90 -150
-108 l-50 -32 38 32 c93 79 89 177 -14 280 -36 36 -39 43 -33 74 3 19 9 35 13
35 4 0 59 -7 124 -15z m-696 -122 c133 -165 206 -399 156 -497 l-20 -39 -18
69 c-29 107 -85 225 -183 385 -15 26 -15 29 9 63 27 41 36 43 56 19z m1107
-16 l38 -24 -1 -238 c-2 -165 -6 -243 -14 -253 -12 -15 -119 -89 -139 -97 -10
-4 -13 56 -11 297 3 301 3 303 25 320 31 24 56 22 102 -5z m-179 -349 c-6
-321 -5 -316 -59 -349 -28 -17 -30 -17 -67 8 -20 13 -40 30 -42 37 -3 7 -1
120 4 252 l9 239 26 20 c15 11 48 37 73 57 25 20 49 37 53 37 5 1 5 -135 3
-301z m343 259 c37 -24 72 -50 78 -58 6 -8 14 -49 16 -92 l5 -78 -41 -35 c-23
-18 -61 -50 -86 -70 l-45 -37 -7 139 c-7 129 -2 274 9 274 2 0 35 -19 71 -43z
m-560 -336 l-2 -208 -66 40 c-105 63 -100 55 -93 166 5 78 9 100 27 120 22 25
116 91 129 91 4 0 6 -94 5 -209z m842 -306 c1 -95 -3 -121 -27 -195 -43 -129
-113 -241 -213 -338 -76 -75 -85 -81 -92 -62 -4 11 -28 33 -54 48 l-46 27 6
100 c3 55 1 106 -3 114 -5 8 -40 32 -77 55 -37 23 -69 46 -71 53 -6 17 129
121 362 278 l200 135 7 -53 c4 -28 8 -101 8 -162z m-821 -101 c42 -26 135 -80
206 -121 72 -41 138 -83 149 -93 28 -27 14 -60 -44 -100 -27 -19 -87 -62 -133
-96 -106 -78 -203 -145 -240 -165 -30 -16 -30 -16 -161 62 -307 182 -339 206
-320 237 12 19 34 36 209 162 64 47 140 102 168 123 28 20 60 37 71 37 10 0
53 -21 95 -46z"/>
<path d="M734 1205 c8 -8 29 -15 46 -15 39 0 85 -45 101 -99 17 -58 9 -83 -36
-109 -75 -43 -188 -18 -222 48 -9 19 -9 31 3 59 l15 35 -26 -24 c-23 -22 -26
-31 -21 -64 4 -21 16 -52 27 -68 38 -52 140 -90 189 -68 22 9 21 10 -12 5 -44
-7 -60 10 -18 18 31 7 57 24 103 72 25 26 28 35 24 73 -3 32 -14 53 -38 79
-35 37 -93 68 -109 58 -5 -3 -11 -1 -15 5 -3 5 -11 10 -16 10 -6 0 -4 -7 5
-15z"/>
<path d="M9392 2479 c-13 -5 -33 -11 -45 -14 -307 -65 -719 -254 -1242 -569
-99 -60 -211 -130 -250 -156 -38 -26 -112 -73 -164 -105 -52 -31 -112 -71
-133 -90 -22 -18 -54 -36 -72 -39 -19 -4 -66 -30 -107 -58 -85 -60 -321 -207
-919 -573 -315 -193 -517 -323 -569 -364 -59 -47 -84 -105 -79 -185 2 -41 10
-70 23 -88 42 -56 162 -108 216 -95 14 4 108 62 209 130 102 67 201 132 220
144 128 76 608 371 665 408 28 17 154 93 280 167 127 74 266 158 310 185 44
28 179 109 300 181 383 227 1405 884 1405 904 0 11 -70 28 -112 28 -21 0 -38
3 -38 8 0 4 19 21 41 37 58 42 141 133 134 145 -8 12 -42 12 -73 -1z m-12 -58
c0 -24 -202 -197 -340 -292 -140 -96 -469 -311 -632 -413 -35 -22 -112 -71
-173 -109 -290 -185 -518 -317 -545 -317 -5 0 -10 8 -10 18 -1 31 -36 96 -80
145 -23 26 -41 49 -39 51 2 1 22 16 44 32 41 32 300 198 460 296 458 281 889
489 1170 563 55 15 102 29 104 31 8 8 41 4 41 -5z m-1798 -999 c20 -22 38 -53
41 -68 19 -98 18 -99 -12 -128 l-29 -28 5 61 c6 58 5 61 -20 70 -14 6 -45 24
-68 41 -40 29 -99 41 -99 20 0 -5 7 -10 15 -10 8 0 29 -13 47 -28 18 -16 40
-31 49 -34 16 -6 39 -77 39 -121 0 -14 -7 -30 -15 -37 -13 -11 -15 -8 -15 19
0 47 -42 120 -98 173 l-50 47 71 39 c81 44 85 43 139 -16z m-192 -89 c0 -5
-12 -15 -28 -24 -42 -25 -245 -149 -362 -221 -58 -36 -163 -101 -235 -145
-363 -222 -456 -279 -519 -319 -37 -24 -103 -60 -145 -81 -42 -21 -78 -39 -80
-40 -2 -2 8 -14 22 -27 14 -13 28 -35 31 -48 20 -98 14 -142 -24 -167 -23 -15
-23 -15 -16 13 18 72 -19 155 -86 196 l-29 17 29 12 c16 7 36 13 43 14 8 2 58
33 112 71 54 38 137 91 185 118 48 28 155 92 237 143 83 51 204 125 270 166
66 40 167 102 225 138 252 156 370 215 370 184z m-1449 -895 c58 -63 62 -72
50 -129 -14 -66 -25 -79 -66 -79 -52 0 -70 29 -70 115 0 64 3 77 24 99 14 14
26 26 28 26 2 0 18 -15 34 -32z"/>
<path d="M9015 2169 c-108 -75 -239 -162 -291 -194 -18 -11 -72 -46 -120 -78
-48 -33 -132 -86 -188 -119 -55 -33 -114 -71 -131 -83 -16 -12 -66 -44 -110
-70 -44 -27 -102 -62 -130 -80 -27 -17 -72 -44 -98 -59 -27 -15 -47 -30 -44
-32 5 -5 128 67 299 175 73 46 180 113 238 149 58 35 141 89 185 119 44 31
134 90 200 132 142 92 313 211 299 210 -5 0 -54 -31 -109 -70z"/>
<path d="M10035 1891 c-231 -155 -1076 -713 -1480 -976 -152 -99 -313 -206
-358 -238 -45 -33 -103 -69 -128 -82 -25 -13 -51 -31 -58 -39 -10 -11 -15 -69
-18 -200 l-5 -183 38 -23 c61 -38 154 -120 151 -133 -1 -8 19 -13 68 -15 l69
-3 -39 30 c-22 17 -73 54 -112 83 l-73 52 0 108 c0 59 3 108 8 108 4 0 34 -21
67 -46 33 -25 134 -97 225 -161 91 -64 182 -129 202 -144 39 -31 91 -42 69
-15 -7 8 -96 72 -199 142 -216 147 -323 224 -371 268 -25 23 -32 26 -25 11 5
-11 10 -69 12 -128 3 -101 2 -108 -15 -105 -16 3 -18 15 -17 118 1 122 4 160
11 160 2 0 39 -29 82 -65 43 -35 163 -121 267 -191 245 -164 230 -154 274
-192 27 -23 47 -32 71 -32 l34 1 -34 29 c-19 16 -51 37 -70 47 -29 14 -32 18
-17 21 28 6 125 68 640 411 828 551 936 627 936 653 0 27 -10 23 -91 -35 -41
-29 -243 -166 -449 -303 -206 -138 -452 -302 -545 -365 -247 -165 -384 -253
-446 -284 -30 -15 -62 -34 -72 -43 -12 -11 -21 -13 -25 -6 -4 6 -62 45 -129
88 -67 42 -168 113 -224 157 -57 44 -112 85 -123 91 -12 6 -35 24 -53 39 l-32
28 54 31 c31 17 77 48 103 69 26 21 191 132 367 248 480 317 955 631 1185 784
477 317 485 323 478 351 -2 9 -71 -32 -203 -121z"/>
<path d="M2834 1319 c-44 -13 -124 -86 -145 -134 -32 -70 -20 -181 24 -229 15
-17 48 -30 108 -45 80 -20 88 -20 137 -6 54 16 123 63 154 106 26 34 33 99 18
153 -33 120 -170 192 -296 155z m70 -51 c8 -30 8 -112 0 -132 -3 -9 -21 -25
-39 -36 -94 -58 -173 59 -92 137 56 55 120 70 131 31z"/>
<path d="M3076 944 c-56 -71 -164 -93 -273 -56 l-51 18 10 -25 c5 -14 9 -28 8
-31 0 -3 11 -20 25 -38 68 -84 250 -115 370 -62 54 23 76 51 82 102 4 37 1 47
-22 70 -15 15 -42 32 -59 37 -17 5 -38 12 -46 15 -10 4 -25 -7 -44 -30z"/>
<path d="M10190 888 c-152 -106 -895 -598 -1097 -728 -233 -150 -240 -155
-204 -158 31 -2 53 6 117 46 92 57 290 188 524 345 91 61 190 127 220 146 130
84 457 305 473 321 10 9 17 27 15 38 -3 20 -5 19 -48 -10z"/>
<path d="M9778 330 c-252 -168 -463 -311 -470 -317 -10 -10 -5 -13 20 -13 23
0 61 19 135 68 277 184 754 506 765 517 8 7 12 21 10 31 -2 16 -87 -37 -460
-286z"/>
</g>
</svg>
