<?xml version="1.0" standalone="no"?>
<!DOCTYPE svg PUBLIC "-//W3C//DTD SVG 20010904//EN"
 "http://www.w3.org/TR/2001/REC-SVG-20010904/DTD/svg10.dtd">
<svg version="1.0" xmlns="http://www.w3.org/2000/svg"
 width="1024.000000pt" height="1024.000000pt" viewBox="0 0 1024.000000 1024.000000"
 preserveAspectRatio="xMidYMid meet">
<metadata>
Created by potrace 1.16, written by Peter Selinger 2001-2019
</metadata>
<g transform="translate(0.000000,1024.000000) scale(0.100000,-0.100000)"
fill="#000000" stroke="none">
<path d="M0 5120 l0 -5120 5120 0 5120 0 0 5120 0 5120 -5120 0 -5120 0 0
-5120z m9580 4642 l0 -318 -33 -40 c-18 -21 -79 -101 -135 -176 l-102 -137 54
-83 c30 -46 91 -119 136 -163 l83 -80 -1 -1349 0 -1350 -108 -100 c-60 -55
-146 -137 -192 -181 l-83 -80 41 -31 c42 -33 60 -53 239 -263 l104 -123 4
-1869 4 -1870 -64 -82 c-35 -45 -84 -113 -109 -152 -25 -38 -52 -76 -61 -84
-21 -17 -22 -45 -1 -62 8 -7 64 -74 123 -149 l109 -137 -2 -94 c-2 -52 -3
-172 -4 -266 l-2 -173 -324 0 -323 0 -27 138 c-31 163 -31 168 -9 181 14 8 15
10 3 11 -20 0 -56 57 -65 100 -4 19 -11 49 -15 65 -5 17 -14 64 -20 105 -6 41
-16 93 -20 115 -5 22 -12 62 -15 89 -3 27 -8 53 -10 56 -2 4 -9 33 -14 66 -6
32 -27 136 -46 229 -20 94 -54 256 -75 360 -57 277 -67 322 -75 334 -3 6 -6
30 -7 54 0 23 -4 47 -8 52 -4 6 -11 29 -15 53 -6 39 -5 44 14 49 28 7 27 21
-1 25 -19 3 -26 16 -45 88 -30 118 -30 132 5 129 44 -3 64 0 57 11 -3 6 -26
10 -50 10 -24 0 -47 5 -50 10 -4 6 -8 32 -9 58 -2 26 -8 67 -14 92 -25 98 -52
211 -52 215 0 3 41 5 90 5 79 0 90 2 89 18 0 10 -3 12 -6 5 -6 -16 -24 -17
-21 -1 2 9 -20 12 -80 11 -81 0 -82 0 -89 26 -4 14 -7 46 -7 71 -1 25 -7 50
-14 55 -7 6 -14 33 -16 60 -2 28 -9 63 -15 78 -6 15 -14 39 -17 52 l-6 25 136
0 c75 0 136 3 136 8 0 4 -35 7 -77 7 -161 1 -190 6 -202 32 -6 13 -11 37 -11
53 0 27 4 30 33 32 l32 1 -31 4 c-42 5 -59 39 -79 153 -9 52 -23 117 -31 144
-17 57 -18 76 -4 76 6 0 1 9 -9 19 -26 26 -38 90 -20 103 11 8 11 9 -2 5 -18
-6 -35 46 -45 140 -7 62 -30 113 -51 113 -8 0 -19 12 -25 28 -9 21 -12 23 -15
10 -5 -22 -8 -22 -44 -1 -16 10 -29 25 -29 34 0 9 -7 19 -15 23 -8 3 -15 1
-15 -4 0 -18 -18 -10 -77 33 -32 24 -92 61 -133 81 -41 21 -84 47 -96 57 -11
11 -27 19 -35 19 -27 0 -49 24 -52 58 -6 49 -22 59 -37 23 -15 -38 -23 -38
-44 -6 -9 14 -26 25 -39 25 -12 0 -41 16 -65 35 -24 18 -49 32 -55 30 -7 -2
-39 13 -72 33 -43 27 -61 45 -64 62 -3 20 -5 22 -10 7 -6 -16 -8 -16 -41 2
-31 16 -35 23 -38 64 -2 37 1 48 16 56 21 11 41 0 61 -34 10 -18 11 -16 9 15
-3 30 -7 35 -32 38 -16 2 -45 1 -64 -3 l-34 -6 6 -49 7 -49 -113 63 c-62 34
-143 83 -180 109 -38 25 -98 57 -135 70 -80 29 -97 49 -141 170 -17 45 -34 90
-38 101 -6 16 -4 17 14 7 11 -6 29 -11 39 -10 15 0 14 2 -4 9 -13 5 -23 14
-23 20 0 5 -9 10 -20 10 -13 0 -27 14 -40 40 -24 47 -24 51 -5 44 8 -4 15 -1
15 5 0 6 -5 11 -11 11 -8 0 -7 5 2 16 12 14 14 14 20 -3 6 -15 8 -15 8 -1 1 9
7 19 14 22 6 2 -5 3 -25 1 -22 -2 -38 0 -38 6 0 6 -5 9 -12 7 -18 -6 -66 41
-86 82 -21 46 -78 135 -116 184 -22 28 -27 40 -18 44 9 3 6 8 -10 16 -14 8
-23 20 -22 34 0 14 -3 19 -9 13 -6 -6 -21 -2 -41 10 -18 10 -49 21 -69 23
l-37 5 0 -74 c0 -41 -4 -77 -10 -80 -5 -3 -10 3 -10 15 0 12 -4 18 -10 15 -9
-6 -14 14 -11 43 1 8 -3 20 -10 28 -9 11 -9 17 0 28 7 8 8 17 3 20 -6 3 -12
-3 -15 -14 -3 -11 -11 -20 -19 -19 -10 0 -10 2 0 6 6 2 9 9 6 14 -3 6 0 17 8
26 9 13 6 12 -14 -2 -14 -11 -25 -24 -25 -29 1 -5 -4 -11 -11 -13 -7 -3 -10 1
-7 10 3 7 -2 20 -12 28 -16 12 -17 12 -7 -1 9 -12 9 -18 -2 -28 -12 -11 -14
-9 -14 9 0 12 -3 19 -7 16 -3 -4 -12 1 -20 11 -8 9 -11 11 -7 3 5 -11 3 -13
-9 -8 -10 4 -30 2 -45 -3 l-27 -10 25 18 c13 9 74 54 134 99 60 45 114 79 120
77 7 -3 12 3 13 13 4 90 7 104 25 100 10 -3 16 -1 13 3 -3 5 0 10 7 13 7 2 1
3 -14 1 l-28 -3 0 69 0 69 1005 3 c1019 3 1067 5 1005 38 -25 13 -1948 9
-1987 -5 -37 -12 -29 27 17 80 34 39 40 53 41 93 1 80 -1 153 -7 240 l-6 82
29 0 c75 0 132 48 187 160 15 30 47 75 70 100 57 59 65 102 69 392 l3 227 -25
-5 c-14 -3 -52 -18 -85 -34 l-58 -28 6 117 c9 145 16 174 85 341 l55 135 0
110 c-1 61 -4 127 -8 148 l-7 37 1108 2 c609 1 1287 0 1506 -2 l397 -3 0 27 0
26 -1501 0 -1502 0 8 78 c4 42 8 83 8 90 0 9 43 12 176 12 217 0 218 1 213 46
l-4 34 -87 -7 c-91 -8 -180 -8 -188 1 -3 3 -8 82 -11 175 l-5 171 63 0 c54 0
65 -3 82 -25 11 -14 24 -25 29 -25 12 0 12 177 0 184 -5 3 -16 -5 -25 -19 -15
-22 -23 -25 -81 -25 l-65 0 0 155 0 155 135 0 c74 0 135 3 136 8 0 4 1 22 2
40 l2 32 -227 0 c-247 0 -249 -1 -208 -52 18 -24 19 -44 21 -384 1 -198 -2
-372 -6 -387 -5 -19 -12 -26 -24 -23 -9 3 -37 8 -63 11 -57 8 -58 11 -58 163
0 62 -4 121 -9 130 -5 9 -57 35 -115 57 -75 28 -104 44 -101 54 3 8 0 11 -8 8
-8 -3 -14 3 -15 16 -1 18 1 19 9 7 8 -12 9 -10 4 7 -7 26 48 269 76 332 10 24
19 47 19 52 0 5 -28 9 -62 9 l-63 0 0 -108 c-1 -59 -7 -144 -14 -190 -11 -66
-11 -85 -1 -97 22 -26 8 -25 -67 6 -70 30 -71 31 -68 62 2 18 7 66 10 107 5
73 23 148 45 189 10 19 8 21 -22 22 -18 0 -45 2 -59 4 l-26 3 -7 -156 c-3 -86
-8 -158 -11 -160 -2 -3 -21 2 -42 11 -33 13 -40 21 -50 63 -7 27 -19 92 -26
144 l-13 94 -54 -3 c-30 -1 -56 -3 -57 -4 0 -1 7 -40 18 -87 22 -100 24 -140
7 -140 -7 0 -30 4 -51 9 l-38 9 -24 -54 c-31 -69 -232 -428 -256 -457 -19 -22
-19 -20 -13 109 4 71 4 155 0 185 l-7 54 -228 44 c-282 54 -316 58 -337 40 -9
-7 -36 -43 -59 -79 l-44 -65 38 -11 c45 -13 243 -100 288 -127 18 -10 51 -46
73 -79 41 -61 52 -90 26 -69 -10 9 -16 9 -21 1 -4 -6 -18 4 -35 25 -50 63
-104 95 -220 134 -147 48 -123 50 -433 -40 -51 -15 -70 -25 -76 -43 -8 -19
-31 -211 -31 -252 0 -7 -21 -15 -52 -19 -87 -12 -99 -19 -92 -57 7 -41 48 -80
107 -103 60 -23 108 -14 153 28 29 27 39 48 60 126 35 133 56 167 129 208 73
40 146 45 218 13 44 -19 78 -48 41 -33 -11 4 -15 3 -10 -5 9 -15 -23 -23 -103
-26 -122 -4 -176 -59 -212 -212 -11 -51 -29 -105 -39 -121 -39 -64 -188 -95
-266 -55 -52 27 -88 61 -112 109 -11 21 -41 62 -66 90 -25 28 -46 54 -46 57 0
4 12 18 28 31 15 13 23 25 17 25 -12 0 -8 420 3 420 5 0 18 -21 31 -47 26 -55
133 -221 142 -222 6 -1 16 45 34 162 7 44 -7 66 -96 158 -34 35 -68 59 -87 64
l-31 6 -3 152 -3 151 -82 3 c-46 2 -83 1 -83 -2 0 -3 9 -22 20 -42 19 -36 20
-57 20 -418 0 -371 -1 -381 -20 -398 -29 -24 -17 -37 36 -37 65 0 81 -21 90
-116 l6 -51 -129 -6 c-70 -4 -645 -7 -1276 -7 l-1148 0 3 -22 3 -23 1250 0
c688 0 1267 3 1288 7 l38 7 -2 -52 c-3 -50 -2 -53 61 -126 132 -152 281 -294
295 -279 2 2 -2 31 -10 63 -8 33 -14 72 -15 87 0 28 -6 31 -64 40 -11 2 -21 9
-24 17 -4 12 7 13 62 8 56 -5 78 -2 131 17 122 44 160 90 177 210 10 78 26
102 73 111 26 5 57 -11 215 -111 102 -64 216 -132 253 -151 38 -19 89 -53 113
-75 l45 -41 37 35 c20 20 51 43 67 51 17 8 100 60 185 114 85 55 193 120 238
146 l84 47 79 -72 c56 -51 78 -77 73 -88 -4 -8 -9 -143 -11 -300 l-5 -285 56
-75 c82 -111 76 -123 -29 -55 -31 19 -59 35 -64 35 -4 0 -41 -23 -82 -52 -147
-103 -427 -258 -467 -258 -22 0 -63 41 -88 90 l-19 35 -3 -34 c-2 -19 1 -54 7
-77 18 -69 15 -76 -21 -72 -26 2 -33 -1 -32 -14 0 -10 1 -119 2 -242 l2 -224
49 -17 c26 -8 59 -27 72 -41 21 -22 22 -27 8 -34 -9 -5 -38 -27 -64 -49 -70
-58 -86 -59 -158 -12 -63 43 -79 47 -121 31 -18 -6 -26 -17 -26 -33 0 -20 10
-28 52 -46 72 -30 158 -91 169 -119 5 -13 9 -38 10 -55 1 -29 2 -28 15 11 3 9
18 4 50 -20 67 -48 116 -96 104 -103 -5 -3 -94 -5 -197 -4 -160 1 -204 -2
-298 -21 -121 -25 -159 -40 -175 -70 -10 -19 -10 -19 22 0 60 35 162 43 463
36 255 -6 429 -19 365 -26 -14 -2 -29 -4 -35 -5 -5 -2 -16 -3 -22 -4 -7 0 -13
-8 -13 -16 0 -37 -38 -44 -251 -46 -114 0 -213 -5 -220 -10 -10 -6 -4 -9 17
-9 30 0 32 -2 32 -42 1 -23 -4 -48 -9 -54 -7 -9 5 -8 38 3 72 22 199 12 261
-22 94 -52 157 -100 160 -122 5 -32 -48 -123 -71 -123 -29 0 -48 13 -136 97
-46 43 -89 82 -97 86 -12 7 -14 -11 -14 -100 l0 -109 -127 4 c-71 2 -139 7
-153 11 -24 8 -135 84 -320 219 -41 31 -109 85 -150 120 -57 50 -76 61 -78 49
-4 -21 -12 -21 -37 -3 -29 20 -102 21 -1630 21 -1373 0 -1380 0 -1380 -20 0
-20 9 -20 1475 -26 811 -3 1495 -10 1520 -15 l45 -9 3 -53 c2 -37 -1 -57 -12
-68 -9 -8 -16 -11 -16 -5 0 6 -5 11 -11 11 -8 0 -8 -4 1 -14 6 -8 19 -12 27
-9 12 5 15 2 10 -11 -7 -17 23 -49 143 -151 124 -106 272 -185 314 -169 7 3
41 -32 83 -88 70 -93 224 -308 258 -360 9 -16 25 -28 35 -28 19 0 59 45 105
120 37 61 210 274 247 305 54 45 54 45 51 -202 -4 -243 -8 -297 -24 -288 -13
8 -750 8 -771 0 -14 -6 -16 6 -15 101 l2 108 -160 81 c-128 64 -226 118 -253
140 -1 1 -5 33 -7 70 -3 37 -8 72 -11 76 -9 16 -40 10 -59 -11 -10 -11 -24
-20 -32 -20 -7 0 -13 -4 -13 -10 0 -5 -29 -53 -64 -107 -68 -106 -108 -180
-151 -283 -15 -36 -54 -123 -87 -195 -34 -71 -93 -204 -133 -295 -63 -143
-202 -456 -335 -754 -36 -79 -38 -90 -24 -100 23 -18 0 -32 -63 -41 -44 -6
-53 -4 -53 8 0 24 265 638 339 786 44 87 114 251 109 256 -3 3 -295 -180 -383
-241 -33 -23 -87 -56 -120 -74 -33 -18 -76 -44 -95 -59 -105 -78 -722 -478
-784 -508 -24 -11 -36 -23 -36 -37 0 -30 24 -102 54 -166 38 -81 35 -87 -35
-65 -19 6 -60 77 -84 145 l-12 35 -17 -54 c-9 -30 -16 -63 -16 -72 0 -10 -5
-21 -10 -24 -6 -4 -9 -18 -9 -33 1 -15 -5 -54 -14 -87 -8 -33 -21 -87 -27
-120 -6 -33 -24 -116 -40 -185 -15 -69 -35 -156 -43 -195 -9 -38 -27 -119 -41
-180 -14 -60 -34 -153 -46 -205 -12 -52 -28 -118 -36 -147 -8 -28 -14 -61 -14
-73 0 -33 -52 -240 -59 -235 -4 2 -13 0 -21 -6 -12 -7 -12 -9 4 -9 13 0 16 -5
11 -17 -23 -60 -35 -108 -45 -183 -10 -84 -15 -110 -46 -245 -8 -38 -21 -101
-29 -140 -7 -38 -21 -104 -30 -145 -9 -41 -28 -124 -41 -185 -14 -60 -29 -130
-34 -155 -5 -25 -19 -90 -31 -145 -35 -164 -45 -212 -78 -380 -18 -88 -38
-187 -46 -220 -8 -33 -21 -94 -30 -135 -34 -172 -73 -351 -77 -355 -2 -2 -82
-5 -178 -5 l-175 -2 -3 268 -2 268 34 35 c18 20 73 90 121 156 48 66 92 125
96 131 10 12 -68 129 -173 259 l-73 90 0 1820 c0 1500 2 1826 13 1852 11 25
21 33 53 38 27 5 50 19 79 48 22 23 40 46 40 50 0 5 13 26 29 46 31 40 119
190 121 206 0 6 17 27 37 48 l37 37 -49 51 c-28 27 -118 111 -202 186 l-152
136 -3 86 c-3 47 -4 651 -3 1342 l1 1256 63 69 c102 111 215 265 205 279 -34
47 -148 193 -200 256 l-62 75 -6 321 -7 321 4305 1 4306 0 0 -317z m-3812
-2154 c7 -7 12 -19 12 -28 0 -18 -52 -71 -87 -89 -28 -14 -128 -14 -156 0 -61
32 -85 82 -52 109 13 11 21 7 49 -23 43 -47 78 -56 124 -31 20 10 43 31 51 46
17 30 39 36 59 16z m-230 -160 c87 -43 109 -50 142 -45 22 3 40 3 40 0 0 -3
-20 -23 -45 -45 -45 -40 -55 -58 -32 -58 22 0 131 56 165 85 27 23 39 26 69
22 19 -4 38 -9 41 -12 3 -3 -45 -56 -105 -118 -84 -86 -114 -124 -124 -155
-12 -41 -12 -41 -27 -21 -8 12 -32 37 -53 56 -39 36 -119 134 -119 148 0 4 9
0 21 -11 21 -19 21 -18 -2 28 -12 26 -26 45 -29 43 -12 -7 -100 112 -100 136
0 18 45 3 158 -53z m-114 -169 c57 -64 150 -251 175 -354 11 -43 18 -81 16
-84 -3 -2 -5 1 -5 7 0 6 -24 38 -53 71 -30 33 -77 93 -105 134 -62 89 -172
299 -172 327 0 18 5 16 50 -16 27 -19 70 -58 94 -85z m-1055 -1857 c53 -32
156 -92 230 -132 l133 -73 30 -66 c16 -36 48 -111 70 -166 22 -55 52 -124 68
-153 l28 -53 -93 -279 c-52 -154 -99 -299 -105 -322 -14 -56 -31 -98 -39 -98
-13 0 -245 676 -301 880 -56 198 -79 282 -105 370 -29 97 -37 150 -23 150 5 0
53 -26 107 -58z m1556 7 c-4 -22 -20 -88 -36 -147 -16 -59 -52 -195 -79 -302
-28 -107 -71 -256 -95 -330 -24 -74 -74 -232 -110 -350 -66 -212 -71 -227 -79
-219 -8 8 -95 255 -166 472 -60 181 -71 222 -61 240 6 12 26 65 45 117 19 52
54 142 78 200 40 95 48 107 84 125 74 39 371 206 390 220 30 23 36 18 29 -26z
m601 -1133 c29 -22 28 -153 -2 -193 -28 -38 -54 -39 -115 -7 -75 41 -109 84
-109 140 0 69 22 69 84 0 l51 -58 2 48 c1 37 7 53 23 66 27 22 40 22 66 4z
m-86 -232 l32 -7 -4 -111 c-3 -70 -11 -125 -21 -148 -14 -33 -20 -38 -50 -38
-66 0 -80 34 -59 143 7 31 17 82 23 112 11 59 15 61 79 49z m-410 -56 c13 -29
24 -71 24 -93 l1 -39 -200 -93 c-110 -51 -255 -117 -321 -147 -312 -142 -491
-238 -601 -323 -123 -96 -160 -130 -151 -138 8 -9 59 25 78 50 36 50 181 165
208 165 19 0 41 -29 42 -54 0 -22 -4 -23 145 37 168 68 479 187 487 187 3 0
20 -42 37 -92 17 -51 36 -100 42 -108 9 -12 9 -11 4 5 -4 11 -8 29 -9 40 0 11
-5 23 -10 26 -11 9 0 26 24 39 17 9 19 8 13 -7 -5 -14 0 -12 21 7 16 14 31 34
36 44 5 16 13 4 35 -53 17 -46 24 -76 18 -82 -5 -5 -57 -23 -114 -39 -188 -52
-652 -236 -631 -249 5 -3 18 -23 28 -43 l19 -37 115 46 c128 51 426 153 447
153 8 0 13 -11 13 -27 0 -16 9 -61 19 -101 l19 -73 -26 -11 c-15 -6 -79 -27
-142 -48 -205 -67 -359 -129 -440 -176 -86 -49 -102 -63 -45 -40 19 8 35 13
35 11 0 -2 12 7 26 20 36 33 48 31 63 -10 10 -29 16 -35 33 -29 13 4 24 1 29
-7 7 -11 9 -10 9 3 0 17 41 35 68 30 7 -2 19 4 28 12 19 19 91 39 106 30 6 -4
8 -3 5 3 -5 8 172 73 200 73 7 0 15 -17 20 -39 7 -35 10 -38 31 -30 20 8 22
13 16 46 -4 25 -3 34 3 28 9 -9 42 -142 47 -184 1 -10 -21 -20 -65 -31 -84
-22 -242 -76 -334 -115 -16 -7 -68 -27 -115 -45 -47 -18 -110 -45 -140 -60
-30 -15 -100 -47 -155 -70 -55 -23 -140 -61 -189 -84 -49 -22 -92 -41 -95 -42
-13 -1 -479 -234 -518 -258 l-41 -26 -55 97 c-30 54 -57 109 -62 123 -4 14
-38 79 -75 145 -37 66 -82 148 -99 182 -17 34 -40 71 -51 81 -21 19 -21 19 61
78 l82 59 37 110 c20 61 60 162 89 225 29 63 72 168 97 234 24 65 49 126 54
135 5 10 37 32 72 49 112 55 519 402 590 503 23 32 46 59 51 59 16 0 -4 -173
-24 -206 -37 -62 -288 -275 -486 -413 -35 -24 -63 -48 -63 -54 0 -13 48 0 79
22 117 82 628 341 1046 528 123 56 344 141 366 142 11 1 25 -18 39 -51z
m-2430 -2 c0 -8 -173 -107 -272 -155 -127 -61 -188 -70 -188 -26 0 29 48 50
310 141 119 41 150 49 150 40z m3329 -552 c36 -60 174 -237 211 -269 12 -11
31 -32 42 -47 l19 -28 -403 0 -403 1 65 59 c36 33 94 76 130 95 40 22 107 75
175 140 61 57 115 104 120 105 6 0 25 -25 44 -56z m-2984 -1009 c54 -154 122
-341 153 -415 152 -374 288 -748 276 -760 -5 -5 -65 -38 -134 -73 -198 -101
-324 -168 -338 -179 -18 -15 -22 -7 -48 73 -20 62 -20 70 -6 65 14 -5 14 -4
-1 8 -13 10 -27 57 -49 163 -17 81 -32 160 -32 176 -1 15 -5 27 -10 27 -4 0
-6 9 -3 20 3 10 1 20 -3 22 -11 4 -92 358 -86 375 3 7 2 13 -3 13 -5 0 -14 37
-21 83 -10 72 -44 209 -56 229 -9 14 -104 -49 -354 -235 -140 -105 -271 -201
-290 -215 l-35 -25 22 24 23 25 -21 21 c-16 15 -18 22 -8 28 8 5 10 4 5 -3 -5
-8 -1 -10 10 -5 11 4 13 8 6 11 -7 2 -9 9 -5 15 4 6 0 8 -10 4 -28 -11 -208
-127 -281 -181 -39 -29 -98 -69 -131 -88 -33 -19 -97 -58 -142 -86 -46 -29
-85 -52 -88 -52 -3 0 -35 -18 -70 -39 -36 -22 -65 -38 -65 -36 0 2 30 25 67
51 38 27 115 87 173 134 58 48 174 140 258 206 85 65 211 163 280 217 70 55
199 153 287 219 88 67 194 150 236 184 43 35 86 64 96 64 11 0 50 26 89 59 38
32 98 83 134 114 36 30 68 52 71 48 4 -3 51 -132 104 -286z m1755 -195 c85
-40 201 -89 258 -110 90 -33 110 -45 170 -102 38 -35 97 -80 132 -99 85 -47
89 -54 56 -122 -29 -62 -33 -80 -11 -51 13 17 14 16 5 -13 -5 -18 -6 -33 -2
-33 4 0 2 -4 -3 -8 -14 -9 -57 -115 -45 -107 13 8 13 3 -5 -36 -8 -19 -15 -27
-15 -19 -1 10 -4 9 -10 -5 -12 -27 -12 -43 0 -25 18 28 10 -4 -27 -112 -21
-62 -40 -105 -46 -101 -6 4 -8 0 -4 -10 3 -10 3 -17 -1 -17 -4 0 -8 -9 -9 -21
-2 -24 -90 -169 -103 -169 -5 0 -41 16 -81 35 -41 19 -78 35 -84 35 -6 0 -110
39 -231 86 -120 47 -257 99 -304 116 -47 17 -89 33 -95 38 -32 24 -64 19 -136
-22 -201 -114 -259 -150 -277 -172 -10 -14 -33 -28 -50 -31 -37 -6 -58 12 -99
90 l-27 53 19 37 c11 21 43 53 70 72 63 44 293 176 363 208 28 14 52 29 52 35
0 5 15 10 33 10 26 1 29 2 15 11 -13 7 -16 17 -11 39 11 55 -37 45 -136 -29
-57 -43 -330 -179 -335 -167 -2 6 -5 3 -5 -6 -1 -10 -6 -18 -12 -18 -6 0 -29
-16 -52 -35 -22 -19 -42 -33 -44 -32 -1 2 -23 48 -47 102 l-45 99 72 39 c40
22 108 58 152 81 98 52 281 157 353 203 30 19 60 32 68 29 8 -3 14 -1 14 3 0
5 -8 12 -17 16 -17 6 -17 7 0 20 12 8 14 15 8 20 -6 3 -11 1 -11 -5 0 -6 -10
-8 -22 -5 -14 4 -42 -4 -73 -20 -108 -57 -208 -95 -221 -84 -9 7 -12 5 -10 -8
0 -11 -5 -17 -16 -17 -10 1 -18 -2 -18 -7 0 -5 -10 -13 -23 -18 -12 -5 -44
-19 -70 -31 -26 -12 -54 -19 -63 -16 -12 4 -15 2 -10 -9 7 -18 7 -18 -37 0
-33 14 -54 41 -41 54 4 3 8 2 11 -4 8 -23 22 -39 29 -33 3 4 -1 14 -10 23 -22
22 -21 41 2 24 15 -13 16 -12 3 3 -7 10 -17 16 -21 13 -5 -3 -10 -2 -13 2 -2
5 -2 2 -1 -4 2 -7 -1 -13 -6 -13 -6 0 -10 5 -10 11 0 6 -7 3 -16 -6 -9 -9 -19
-13 -23 -9 -3 4 0 9 7 11 6 3 10 9 7 14 -4 5 -12 3 -20 -4 -14 -13 0 -41 16
-31 5 3 9 1 9 -5 0 -5 -6 -12 -12 -14 -10 -4 -10 -6 0 -6 7 -1 17 9 22 22 5
12 9 17 9 10 1 -6 4 -19 8 -29 4 -11 3 -15 -4 -11 -6 4 -16 0 -23 -9 -10 -12
-15 -12 -21 -2 -4 7 -11 9 -15 5 -4 -4 -3 -12 4 -19 8 -8 15 -8 27 2 8 7 19
10 22 6 4 -4 1 -11 -7 -16 -17 -11 -9 -13 14 -4 8 3 12 12 9 20 -4 11 2 11 26
-3 17 -10 31 -21 31 -24 0 -5 -71 -39 -83 -39 -4 0 -7 6 -7 14 0 8 -4 18 -10
21 -6 4 -8 -7 -4 -27 8 -49 -12 -14 -41 73 l-24 70 27 10 c15 5 39 14 54 20
15 6 32 8 39 3 7 -4 10 -3 6 3 -3 5 42 33 101 61 271 128 394 182 404 176 6
-4 8 -3 5 3 -8 13 59 47 73 38 6 -4 9 -1 8 7 -2 8 6 13 24 12 15 -1 24 4 22
10 -2 6 39 33 92 60 52 27 98 55 101 62 4 11 22 5 77 -25 39 -22 141 -72 226
-111z m853 -262 c23 -18 95 -62 159 -98 112 -62 117 -67 118 -97 0 -18 -5 -33
-11 -33 -6 0 -8 -7 -5 -15 9 -25 -31 -208 -44 -200 -4 2 -5 -7 -2 -22 4 -19 2
-24 -8 -18 -9 5 -11 4 -6 -4 7 -11 -11 -124 -50 -321 -13 -64 -41 -176 -86
-345 l-10 -40 -19 24 c-10 13 -19 18 -19 13 0 -6 5 -14 10 -17 6 -4 8 -15 5
-25 -3 -10 -1 -21 5 -25 5 -3 9 -16 9 -28 -1 -17 -2 -18 -6 -4 -2 9 -9 17 -13
17 -6 0 -5 -12 1 -27 12 -33 1 -129 -17 -148 -11 -10 -11 -15 -1 -18 6 -3 3
-6 -8 -6 -14 -1 -16 -4 -7 -9 10 -7 10 -20 -2 -69 -7 -34 -17 -66 -20 -72 -4
-6 -30 1 -70 18 -34 16 -118 50 -187 76 -68 26 -149 60 -180 76 l-58 29 29 57
c16 32 45 110 65 173 20 63 56 178 80 255 25 77 74 235 111 350 36 116 71 226
79 245 7 19 32 100 55 180 43 146 48 160 56 160 2 0 23 -15 47 -32z m-3017
-864 c19 -9 41 -26 49 -38 17 -23 20 -72 5 -81 -5 -3 -7 -12 -4 -20 4 -9 -7
-22 -28 -35 -39 -24 -102 -23 -142 3 -50 33 -43 124 12 167 30 24 63 25 108 4z
m-331 -176 c15 -12 34 -37 42 -56 39 -93 -73 -177 -163 -121 -67 41 -73 98
-18 159 30 33 43 40 74 40 23 0 48 -8 65 -22z m1990 -303 c138 -163 212 -202
312 -160 47 20 54 12 12 -14 -43 -27 -110 -27 -167 -1 -42 19 -164 132 -231
215 -20 24 -35 35 -38 28 -10 -28 -95 -120 -142 -157 -57 -43 -153 -86 -191
-85 -18 0 -10 6 27 19 29 10 72 32 95 48 52 36 198 187 198 204 0 7 -9 24 -20
38 -11 14 -20 29 -20 33 0 13 93 -82 165 -168z m-2329 111 c36 -36 41 -62 23
-115 -21 -59 -103 -79 -164 -41 -44 27 -59 71 -41 114 22 53 54 76 104 76 37
0 50 -6 78 -34z m4155 -53 c32 -27 59 -77 59 -110 0 -25 -79 -73 -122 -73 -25
0 -43 8 -65 30 -58 57 -50 105 27 158 43 29 61 28 101 -5z"/>
<path d="M4540 9833 c0 -5 21 -16 46 -27 52 -21 109 -90 120 -143 6 -33 24
-43 77 -43 25 0 27 3 22 23 -17 56 -50 109 -87 139 -49 39 -178 76 -178 51z"/>
<path d="M4850 9826 c0 -8 10 -34 21 -56 12 -23 29 -71 38 -108 15 -62 18 -67
45 -70 27 -3 28 -2 23 26 -3 17 -9 71 -13 121 l-7 91 -31 0 c-17 0 -41 3 -53
6 -17 5 -23 2 -23 -10z"/>
<path d="M5194 9825 c-4 -8 1 -26 10 -40 12 -17 16 -48 16 -109 l0 -85 33 6
c17 3 41 9 53 14 22 8 22 8 -4 179 l-7 45 -48 3 c-36 2 -49 -1 -53 -13z"/>
<path d="M4346 9764 c-8 -75 2 -212 16 -220 5 -4 25 9 44 27 33 32 34 36 34
107 0 70 2 75 30 100 48 42 40 52 -44 52 l-73 0 -7 -66z"/>
<path d="M1598 8532 l-28 -3 0 -305 0 -304 40 0 40 0 0 143 c1 78 3 214 6 303
7 178 8 174 -58 166z"/>
<path d="M1744 8531 c-2 -2 -4 -141 -4 -308 l0 -303 45 0 45 0 0 115 0 115 28
0 c30 0 24 12 87 -165 20 -55 24 -60 54 -63 61 -6 62 -2 26 110 -50 158 -50
154 -16 174 41 24 51 53 51 141 0 63 -4 84 -24 117 -13 23 -35 47 -48 55 -22
11 -234 22 -244 12z m201 -111 c14 -15 17 -32 13 -85 -5 -77 -12 -85 -80 -85
l-48 0 0 95 0 95 48 0 c36 0 54 -5 67 -20z"/>
<path d="M1400 8302 c0 -209 -2 -230 -18 -245 -29 -27 -52 -21 -68 18 -13 32
-17 34 -47 28 -17 -3 -33 -6 -34 -7 -2 -2 -5 -59 -4 -83 1 -13 13 -36 29 -53
24 -28 33 -31 86 -31 67 -1 98 16 131 72 18 31 20 55 23 282 l3 247 -50 0 -51
0 0 -228z"/>
<path d="M2100 8231 c0 -230 3 -300 13 -302 6 -2 73 -2 147 1 l135 5 2 48 3
47 -53 1 c-50 2 -92 4 -129 7 -15 2 -18 13 -18 77 l0 75 60 0 60 0 0 50 0 50
-59 0 -60 0 -6 44 c-4 24 -4 58 0 75 l7 31 94 0 94 0 0 45 0 45 -145 0 -145 0
0 -299z"/>
<path d="M3730 8484 c0 -25 40 -122 112 -271 16 -35 31 -80 31 -102 1 -21 5
-37 8 -35 12 7 18 -23 30 -137 9 -94 15 -119 41 -162 16 -28 39 -76 50 -106
17 -46 23 -52 29 -36 4 11 8 56 8 100 2 144 17 212 66 308 37 72 45 97 45 142
0 51 -2 56 -27 66 -47 18 -282 170 -333 216 -26 24 -51 43 -54 43 -3 0 -6 -12
-6 -26z"/>
<path d="M2616 8249 c3 -5 9 -7 14 -4 16 10 20 -13 5 -25 -12 -10 -15 -10 -15
0 0 7 -6 10 -14 7 -7 -3 -19 0 -25 6 -6 6 -11 7 -11 3 0 -5 -7 -3 -15 4 -13
11 -14 10 -9 -4 4 -10 13 -15 20 -12 8 3 14 1 14 -5 0 -6 7 -9 15 -6 8 4 17 3
19 -2 3 -4 24 -7 46 -6 32 2 40 -1 35 -12 -3 -8 -5 -17 -5 -19 0 -3 -9 0 -20
6 -16 8 -18 8 -14 -4 7 -19 -24 -15 -36 5 -7 10 -9 8 -8 -8 2 -14 8 -20 20
-18 16 3 22 -5 19 -27 -1 -8 20 -5 37 5 16 11 16 -8 -1 -22 -8 -6 -18 -7 -23
-3 -4 4 -3 0 4 -9 6 -9 8 -20 4 -25 -4 -5 5 2 21 15 l27 24 0 -22 c0 -12 -4
-20 -9 -17 -4 3 -17 -4 -27 -15 -10 -11 -14 -19 -9 -17 6 2 11 -1 13 -7 1 -5
-3 -10 -10 -10 -6 0 -12 -6 -14 -13 -1 -7 0 -8 3 -2 2 5 8 8 13 5 4 -3 13 2
20 10 13 16 35 21 26 6 -7 -10 18 -33 27 -25 5 5 3 -35 -2 -55 0 -3 -8 4 -16
15 -10 13 -13 14 -10 3 5 -12 0 -16 -21 -15 -15 1 -30 8 -32 15 -3 9 0 11 9 6
8 -5 10 -4 6 0 -12 13 -36 15 -44 3 -4 -7 -1 -8 7 -3 10 6 12 4 7 -9 -4 -10
-3 -15 3 -11 5 3 16 -8 25 -25 16 -30 29 -42 19 -16 -5 13 17 28 42 30 16 1
66 -61 55 -68 -5 -4 -14 1 -19 11 -12 20 -59 26 -59 7 0 -7 6 -15 14 -18 7 -3
13 -13 13 -21 0 -10 -5 -13 -12 -9 -10 6 -10 4 0 -7 14 -16 16 -33 2 -24 -6 3
-7 -1 -4 -10 9 -21 16 -12 20 25 5 46 15 56 30 35 12 -17 14 -17 20 -1 6 15 7
15 20 -1 13 -17 14 -17 7 1 -4 12 -3 17 4 13 5 -3 10 0 10 7 0 8 -7 13 -16 11
-25 -4 -33 5 -19 23 7 10 9 14 4 10 -5 -4 -17 3 -27 16 -21 26 -25 41 -9 31 6
-3 7 1 4 9 -11 28 5 17 21 -14 9 -17 20 -28 25 -25 4 3 11 -1 13 -7 4 -9 6 -9
6 1 1 11 5 10 17 -5 8 -10 13 -13 9 -6 -4 7 -1 19 5 27 7 8 10 16 6 16 -25 5
-33 3 -50 -10 -17 -15 -18 -15 -12 6 4 12 2 24 -3 27 -5 4 -9 20 -9 36 1 17 3
28 6 25 3 -3 11 0 19 6 7 6 13 8 13 4 0 -4 7 -2 15 5 8 7 15 17 15 23 0 6 -7
2 -16 -9 -11 -14 -14 -15 -11 -3 4 12 -1 15 -20 14 -31 -1 -41 -18 -36 -60 3
-27 0 -33 -14 -30 -10 2 -19 4 -20 5 -3 2 -15 6 -29 9 -4 0 -1 8 6 16 6 8 16
13 22 12 5 -1 14 9 19 22 9 24 9 24 -9 8 -10 -9 -22 -14 -26 -10 -4 5 -6 4 -4
-2 3 -10 -4 -15 -24 -15 -6 0 -3 8 7 20 10 11 22 17 27 14 4 -3 7 0 6 8 -2 7
2 12 9 11 7 -2 10 4 7 12 -5 12 -10 10 -26 -8 -15 -16 -18 -18 -14 -5 3 11 0
17 -7 15 -7 -1 -11 5 -11 14 1 17 -12 19 -32 6 -12 -7 -24 1 -24 15 0 5 4 7 9
3 5 -3 17 5 25 17 9 12 16 17 16 10 0 -7 4 -11 10 -7 5 3 2 14 -8 26 -9 11
-17 25 -17 32 0 7 -10 13 -22 13 -13 1 -24 2 -25 4 -10 7 -37 6 -32 -1z"/>
<path d="M4206 7894 c-64 -63 -116 -119 -116 -124 0 -4 21 -2 47 6 25 8 76 14
112 14 57 -1 74 -5 126 -35 33 -19 52 -35 42 -35 -10 0 -25 7 -34 15 -14 14
-19 13 -53 -7 -21 -13 -63 -47 -95 -76 -68 -63 -69 -88 -3 -79 38 5 46 2 87
-35 25 -22 70 -52 98 -66 36 -18 49 -29 40 -35 -7 -4 20 -7 63 -4 66 3 88 9
180 54 104 50 105 51 159 40 52 -11 54 -11 70 13 41 63 64 82 90 77 l26 -5 2
99 c1 54 0 99 -2 99 -2 0 -13 -17 -26 -37 -28 -49 -69 -93 -85 -93 -22 0 -308
147 -399 205 -108 69 -201 125 -209 125 -3 0 -57 -52 -120 -116z m266 -319
c33 -38 46 -45 75 -45 29 0 44 8 75 41 42 44 58 44 58 -1 0 -60 -108 -113
-184 -90 -43 13 -116 78 -116 102 0 12 29 34 49 37 2 1 21 -19 43 -44z"/>
<path d="M1272 7744 c-25 -18 -29 -46 -7 -64 17 -14 21 -85 5 -95 -11 -7 -13
-135 -2 -151 22 -31 202 -48 202 -19 0 8 -9 19 -20 25 -11 6 -20 17 -20 25 0
18 -12 19 -28 3 -16 -16 -41 17 -42 54 0 15 -4 30 -10 33 -18 11 -11 88 11
124 20 33 20 35 2 51 -27 26 -66 32 -91 14z"/>
<path d="M1502 7744 c-24 -17 -31 -71 -9 -79 8 -4 12 -34 13 -98 1 -83 4 -96
28 -132 41 -59 86 -74 86 -27 0 15 5 33 11 39 17 17 -3 276 -23 301 -15 17
-79 15 -106 -4z"/>
<path d="M1738 7744 c-39 -21 -36 -46 7 -70 22 -12 33 -65 34 -175 1 -92 11
-99 133 -101 53 0 100 2 106 6 6 3 13 2 17 -4 15 -24 24 -6 18 39 -3 28 -3 57
1 67 6 16 8 16 26 -1 11 -10 20 -24 20 -32 0 -7 11 -19 25 -25 14 -6 25 -17
25 -24 0 -22 103 -38 160 -26 l35 8 -3 65 c-2 35 -8 68 -13 74 -11 11 -12 48
-1 61 5 5 18 33 30 62 30 75 20 92 -54 92 -39 0 -68 -7 -100 -24 l-46 -25 40
-20 c36 -19 42 -26 53 -76 9 -42 9 -61 1 -80 -7 -14 -12 -35 -12 -45 0 -27
-16 -25 -36 5 -10 15 -26 25 -40 25 -18 0 -24 7 -29 34 -4 18 -6 42 -4 52 1
11 -3 38 -10 62 -11 40 -11 44 11 62 16 15 18 18 5 14 -9 -3 -24 -1 -32 6 -8
7 -20 8 -27 3 -12 -7 -36 -9 -166 -13 -30 -1 -59 3 -65 9 -16 16 -77 13 -109
-5z m240 -64 c1 -14 2 -70 2 -125 -1 -104 -6 -115 -46 -115 -20 0 -21 4 -18
55 4 59 1 64 -28 38 -42 -38 -74 42 -34 86 9 10 16 27 16 38 0 43 9 51 58 49
42 -1 47 -4 50 -26z"/>
<path d="M7090 7745 c-7 -9 -19 -14 -27 -11 -9 4 -18 -5 -24 -23 -6 -16 -17
-32 -25 -35 -10 -4 -14 -24 -14 -76 0 -51 -4 -70 -13 -70 -7 0 -21 -6 -31 -13
-16 -12 -17 -16 -5 -35 7 -12 10 -25 5 -29 -9 -9 -36 24 -36 46 0 8 -10 25
-21 37 -24 25 -20 57 6 48 8 -3 15 -1 15 5 0 6 -10 11 -22 12 l-23 0 24 12
c21 10 26 8 39 -11 23 -34 30 -26 26 29 -4 58 -14 74 -49 83 -14 4 -25 11 -25
16 0 6 -11 10 -25 10 -41 0 -65 -50 -65 -137 0 -40 4 -82 9 -95 5 -13 15 -45
22 -71 l12 -48 71 3 71 4 -2 49 c-1 38 3 52 17 62 20 14 45 104 36 128 -3 8
-1 15 5 15 6 0 9 -46 7 -127 -2 -87 1 -127 8 -130 6 -2 14 6 17 18 6 22 27 18
27 -6 0 -18 19 -23 58 -17 29 4 33 8 28 28 -3 12 -2 26 4 29 5 3 10 15 10 26
0 16 -7 19 -54 19 -57 0 -80 15 -54 34 9 7 12 18 8 30 -3 10 -3 46 1 79 4 34
5 65 3 69 -3 5 4 8 16 8 16 0 21 5 18 22 -4 28 -30 35 -48 13z"/>
<path d="M3863 7602 c21 -23 13 -79 -19 -144 -13 -26 -24 -58 -24 -70 0 -33
88 -145 178 -228 42 -39 83 -81 90 -93 11 -18 12 1 6 122 -4 103 -3 142 5 137
6 -4 11 -5 11 -3 0 23 -139 207 -204 269 -33 32 -71 41 -43 10z"/>
<path d="M1303 7172 c-35 -2 -63 -7 -63 -12 0 -13 1147 -13 1154 -1 4 5 -24
11 -61 14 -75 4 -931 4 -1030 -1z"/>
<path d="M8157 7174 c-4 -4 -5 -10 -2 -14 2 -3 260 -5 572 -3 312 2 576 3 586
3 10 0 15 5 12 10 -7 11 -1157 15 -1168 4z"/>
<path d="M3340 7160 c-102 -3 -183 -7 -180 -9 10 -7 61 -9 388 -16 293 -6 331
-5 326 8 -11 29 -53 31 -534 17z"/>
<path d="M1560 7043 c-6 -15 -13 -34 -15 -40 -2 -7 -19 -13 -36 -13 l-32 0 21
-23 c13 -14 22 -36 22 -55 0 -30 1 -31 26 -20 20 9 30 9 45 0 31 -19 38 -15
29 18 -7 25 -5 33 16 49 31 24 30 28 -6 36 -24 5 -32 14 -37 36 -8 41 -21 45
-33 12z"/>
<path d="M2279 7041 c-8 -23 -22 -38 -46 -47 -33 -14 -37 -34 -7 -34 14 0 19
-17 15 -57 -2 -23 13 -31 24 -13 3 6 17 10 30 10 13 0 27 -4 30 -10 12 -19 26
-10 20 11 -9 26 13 69 34 69 23 0 0 18 -28 22 -17 2 -28 13 -35 35 -16 47 -25
50 -37 14z"/>
<path d="M8480 7041 c0 -30 -27 -44 -98 -51 -57 -6 -60 -7 -21 -9 52 -1 79
-23 79 -62 0 -20 5 -24 33 -25 17 0 40 -4 49 -8 14 -7 17 -1 20 41 l3 48 49 3
c42 3 53 0 68 -20 10 -13 18 -32 18 -44 0 -16 6 -21 28 -21 15 0 37 -4 48 -8
19 -6 22 -3 21 17 0 12 3 40 7 61 7 30 5 37 -8 37 -8 0 -23 11 -32 25 -20 30
-30 32 -37 5 -7 -27 -50 -41 -116 -38 -50 3 -58 6 -76 35 -23 37 -35 42 -35
14z"/>
<path d="M8945 7029 c-7 -22 -42 -39 -83 -39 -26 -1 -26 -1 8 -16 39 -17 50
-30 50 -62 0 -19 4 -21 24 -16 13 3 27 1 30 -5 14 -22 34 -10 40 23 4 21 17
43 33 54 l27 20 -43 7 c-31 5 -45 13 -53 31 -14 29 -25 31 -33 3z"/>
<path d="M3668 7010 c-2 -6 -38 -12 -82 -15 -95 -5 -109 -15 -66 -46 24 -18
30 -29 25 -46 -5 -22 -4 -23 75 -23 72 0 97 9 71 24 -5 3 -6 20 -2 38 6 27 11
33 33 33 15 0 33 7 40 15 11 12 11 12 -3 2 -18 -13 -59 -5 -75 15 -8 9 -13 10
-16 3z"/>
<path d="M3856 7003 c-1 -1 -17 -4 -35 -5 -18 -1 -35 -7 -38 -13 -4 -5 -2 -7
2 -2 12 11 35 -48 28 -73 -5 -17 -8 -19 -15 -8 -8 10 -9 10 -5 -2 5 -21 32
-24 49 -6 12 11 18 12 27 3 8 -8 11 -8 11 3 0 9 6 8 21 -6 l22 -19 -13 25
c-12 22 -12 24 2 12 13 -10 17 -10 22 4 4 9 12 14 21 10 13 -4 13 -2 5 14 -7
14 -7 20 0 20 5 0 10 9 10 20 0 11 -3 19 -7 19 -5 -1 -12 0 -18 1 -14 3 -86 5
-89 3z"/>
<path d="M8142 6523 c-28 -3 -42 -8 -39 -16 3 -9 153 -12 623 -12 544 0 619 2
619 15 0 13 -71 15 -580 16 -319 0 -599 -1 -623 -3z"/>
<path d="M1247 6372 c-14 -3 -17 -15 -17 -61 l0 -58 68 -18 c37 -10 155 -41
262 -70 205 -56 506 -133 700 -180 63 -15 120 -30 127 -32 10 -4 13 41 13 209
l0 215 -568 -1 c-313 -1 -576 -2 -585 -4z"/>
<path d="M2540 6149 l0 -228 38 -9 c85 -21 478 -103 627 -132 88 -16 185 -35
215 -41 199 -38 250 -45 262 -38 10 7 8 9 -7 10 -11 1 -24 1 -28 0 -5 -1 -6 3
-3 8 8 13 47 5 58 -11 4 -7 8 -8 8 -2 0 5 -5 15 -11 21 -7 7 -6 14 4 24 15 16
6 59 -13 59 -7 0 -7 -6 0 -21 7 -11 10 -23 7 -25 -2 -3 -14 14 -26 37 -18 34
-20 44 -9 50 19 13 38 11 39 -3 1 -7 2 -19 3 -27 0 -8 7 -16 15 -19 11 -4 12
0 6 14 -9 21 -13 113 -5 112 18 -1 18 5 3 29 -10 15 -13 24 -7 21 11 -7 13 66
2 78 -4 3 -4 13 -1 22 4 13 1 12 -12 -3 -16 -19 -16 -19 -1 7 10 18 12 29 5
33 -7 5 -7 11 1 20 5 7 9 33 8 59 -1 37 -4 46 -16 41 -12 -4 -13 -3 -3 9 7 8
9 21 5 27 -4 8 -3 9 4 5 8 -5 11 5 10 29 -1 29 -4 34 -19 30 -19 -6 -35 10
-19 20 5 3 10 2 10 -4 0 -6 7 -8 15 -5 25 10 17 24 -15 24 -17 0 -30 -5 -30
-12 0 -10 -2 -10 -8 -2 -9 14 26 13 -599 18 l-513 3 0 -228z"/>
<path d="M8595 6306 c-27 -6 -56 -15 -62 -19 -7 -5 -18 -5 -23 -2 -6 4 -9 3
-8 -2 2 -4 -21 -31 -50 -59 l-53 -51 6 -96 c3 -60 2 -98 -5 -102 -30 -18 3
-141 51 -188 26 -26 29 -34 29 -98 0 -44 -4 -68 -10 -64 -6 4 -10 -22 -10 -70
0 -92 -11 -116 -79 -173 -28 -24 -60 -61 -71 -83 l-20 -39 390 0 c232 0 390 4
390 9 0 17 -51 71 -96 102 -42 29 -44 32 -44 81 0 42 -3 49 -16 44 -53 -20
-61 -18 -68 15 -12 63 -10 69 34 69 37 0 40 2 49 38 6 20 15 65 20 100 5 34
13 67 17 73 11 19 14 270 3 334 -17 100 -26 120 -69 144 -22 12 -50 24 -63 26
-51 9 -179 25 -185 24 -4 -1 -29 -7 -57 -13z"/>
<path d="M7200 6289 c-65 -17 -82 -26 -125 -69 -54 -54 -55 -59 -40 -186 5
-42 3 -53 -11 -58 -35 -13 9 -170 52 -180 23 -6 24 -11 24 -76 0 -38 -4 -72
-10 -75 -5 -3 -10 -36 -10 -73 -1 -115 -16 -152 -90 -217 -122 -107 -166 -95
330 -95 l435 1 -48 43 c-27 24 -70 54 -98 66 -49 23 -49 23 -49 72 l0 50 -41
-3 c-46 -4 -62 13 -57 59 2 21 9 28 30 30 14 2 32 9 38 17 19 23 61 250 57
310 -2 29 -1 59 3 65 9 15 -15 175 -35 227 -21 54 -54 77 -130 91 -111 21
-148 22 -225 1z"/>
<path d="M7060 5149 c-162 -4 -308 -10 -325 -15 -30 -7 -30 -7 -5 -13 14 -4
609 -5 1323 -3 1202 4 1298 5 1295 20 -3 16 -80 17 -998 17 -547 0 -1128 -3
-1290 -6z"/>
<path d="M8128 5028 c-61 -11 -68 -17 -43 -38 8 -7 15 -19 15 -26 0 -8 5 -14
10 -14 6 0 10 11 10 25 0 23 4 25 41 25 l41 0 -3 -64 c-2 -36 -1 -67 3 -71 8
-9 44 44 52 79 10 43 29 56 80 56 l46 0 0 -48 c0 -48 23 -96 42 -90 6 2 12 31
15 63 2 33 8 64 12 68 5 5 24 7 42 5 l34 -3 -4 -77 c-3 -66 -1 -78 13 -78 17
0 24 21 30 85 2 22 7 48 11 58 15 36 -9 42 -168 42 -84 1 -168 4 -187 7 -19 3
-61 1 -92 -4z"/>
<path d="M8760 5027 c-41 -14 -47 -34 -29 -89 19 -59 3 -84 -60 -93 -40 -5
-51 -11 -51 -25 0 -27 54 -36 85 -16 13 9 35 16 47 16 13 1 34 7 47 14 13 7
32 11 43 8 24 -6 23 10 -2 26 -11 7 -20 21 -20 32 0 11 -9 25 -20 32 -25 16
-25 30 -2 51 29 26 70 22 78 -7 9 -36 28 -38 59 -6 27 28 27 28 7 39 -12 6
-30 11 -41 11 -11 0 -23 5 -26 10 -8 13 -72 12 -115 -3z"/>
<path d="M8650 4711 c-5 -11 -10 -41 -10 -66 0 -79 8 -85 105 -85 46 0 87 4
90 10 3 5 19 7 35 3 39 -7 41 18 4 42 -24 16 -26 16 -39 -1 -11 -16 -16 -17
-41 -6 -25 12 -30 11 -51 -12 -30 -32 -37 -32 -51 -1 -15 33 -15 60 0 84 9 15
9 23 -1 35 -18 21 -28 20 -41 -3z"/>
<path d="M8950 3616 c-30 -7 -69 -19 -86 -28 -72 -39 -159 -175 -170 -266 -7
-56 11 -40 21 20 4 21 11 38 16 38 5 0 9 7 9 16 0 9 5 12 12 8 7 -5 8 -3 3 5
-4 8 1 21 14 32 12 11 21 15 21 9 0 -6 5 -8 10 -5 6 4 7 12 3 18 -3 7 3 4 14
-6 24 -21 46 -84 31 -93 -5 -4 -8 -26 -5 -50 4 -48 48 -114 75 -114 13 0 14
-2 4 -9 -8 -4 -13 -11 -13 -15 4 -25 -3 -40 -31 -72 l-32 -36 34 -30 c34 -29
34 -29 8 -24 -14 3 -34 8 -45 11 -10 3 2 -4 27 -15 24 -12 53 -19 62 -17 10 3
18 2 18 -3 0 -7 38 -5 128 6 28 3 55 16 76 35 21 18 40 27 50 23 9 -3 13 -10
10 -15 -3 -5 1 -9 8 -9 7 0 23 -3 36 -6 19 -5 22 -2 22 20 0 15 5 37 12 49 10
20 10 21 -6 8 -15 -13 -21 -9 -57 30 -49 55 -56 78 -35 132 18 49 21 113 5
154 -8 22 -7 30 5 39 23 16 20 29 -15 59 -83 69 -173 89 -256 56 -37 -14 -53
-17 -56 -8 -2 7 23 18 65 29 99 25 184 6 261 -58 16 -13 34 -24 40 -24 15 -1
63 -76 88 -138 17 -42 19 -43 13 -12 -9 51 -49 124 -88 164 -44 43 -147 93
-206 99 -25 3 -70 -1 -100 -7z"/>
<path d="M8730 2850 c0 -6 12 -23 26 -37 l26 -26 -41 -86 c-23 -48 -41 -97
-40 -111 0 -20 4 -16 16 18 8 23 20 42 26 42 7 0 12 14 13 31 1 32 34 78 34
49 0 -13 2 -13 9 -1 15 23 53 -46 40 -72 -15 -27 -4 -151 16 -181 10 -14 21
-42 25 -62 7 -32 5 -40 -13 -55 l-22 -17 20 -22 c31 -35 94 -60 152 -60 60 0
96 13 136 49 39 36 60 37 53 3 -3 -15 -3 -21 0 -14 9 20 45 14 86 -14 46 -33
57 -26 35 21 -9 20 -17 42 -17 50 0 9 -10 15 -26 15 -54 0 -115 108 -85 149
32 45 35 60 16 100 -14 33 -15 45 -5 76 21 64 -5 109 -85 146 -55 25 -124 24
-193 -4 -86 -36 -108 -39 -123 -21 -12 14 -61 44 -74 44 -3 0 -5 -5 -5 -10z"/>
<path d="M8750 2095 c0 -12 23 -50 34 -57 7 -5 5 -18 -8 -40 l-19 -33 25 23
25 23 6 -21 c4 -15 2 -20 -7 -17 -11 4 -11 0 -2 -18 6 -13 14 -19 17 -13 9 14
17 -2 25 -49 6 -41 -8 -68 -20 -36 -4 9 -2 20 5 23 6 4 0 8 -14 8 -17 0 -24
-5 -20 -14 3 -8 9 -14 14 -14 5 0 9 -5 9 -11 0 -7 8 -18 18 -25 9 -7 12 -14 5
-14 -9 0 -8 -8 3 -27 7 -16 14 -31 14 -35 0 -4 13 -28 30 -54 l29 -47 -19 -27
c-33 -46 -26 -67 30 -95 29 -14 66 -25 90 -25 48 0 110 29 138 65 20 25 40 29
54 10 4 -5 1 -16 -5 -24 -10 -12 -9 -12 9 -1 22 14 43 5 113 -45 19 -14 40
-25 48 -25 15 0 1 26 -50 93 l-30 39 18 36 c17 37 17 37 -3 19 -34 -31 -58
-29 -92 9 -35 40 -35 42 -14 124 17 67 12 108 -9 79 -33 -44 -93 -51 -108 -12
-14 37 -5 53 29 53 16 0 44 3 61 6 28 6 31 10 31 45 0 46 -32 81 -97 105 -55
21 -114 15 -182 -20 -79 -39 -101 -35 -58 13 l22 25 -32 -22 c-37 -26 -46 -27
-63 -6 -15 17 -50 38 -50 29z"/>
<path d="M3975 1538 c-44 -22 -82 -42 -84 -44 -6 -5 31 -107 60 -165 29 -59
53 -86 63 -70 3 5 40 28 82 51 66 36 74 44 68 63 -13 41 -95 207 -102 207 -4
-1 -43 -19 -87 -42z"/>
<path d="M6337 898 c-3 -7 -21 -53 -41 -102 l-36 -88 21 -19 c36 -31 112 -76
140 -83 24 -5 28 -1 57 62 17 37 36 87 43 112 7 25 17 51 22 58 7 8 5 12 -6
12 -8 0 -39 11 -69 24 -73 33 -124 42 -131 24z"/>
</g>
</svg>
