<svg version="1.1" id="Layer_1" xmlns="http://www.w3.org/2000/svg" xmlns:xlink="http://www.w3.org/1999/xlink" x="0px" y="0px"
	 width="100%" viewBox="0 0 421 428" enable-background="new 0 0 421 428" xml:space="preserve">
<path fill="#242E1D" opacity="1.000000" stroke="none" 
	d="
M67.000000,429.000000 
	C45.006847,429.000000 23.013693,429.000000 1.015404,429.000000 
	C1.010269,286.384583 1.010269,143.769150 1.010269,1.076865 
	C141.238373,1.076865 281.476807,1.076865 421.857605,1.076865 
	C421.857605,143.666565 421.857605,286.333252 421.857605,429.000000 
	C401.924500,429.000000 381.930908,429.000000 361.534180,428.548218 
	C360.245483,409.727722 357.122406,391.754181 350.799347,374.470154 
	C345.362579,359.608856 337.792603,346.023132 324.911346,335.654388 
	C322.733032,333.923523 320.857086,332.239899 318.698730,331.083374 
	C306.685608,324.646576 293.566650,322.279968 280.041290,320.605530 
	C275.989258,316.421082 272.094147,312.537781 268.109863,308.328918 
	C259.905792,296.886139 254.412323,284.627808 252.095535,270.751404 
	C253.566071,269.238007 254.977234,268.117737 256.169342,266.799377 
	C258.181000,264.574677 260.053802,262.224457 262.156677,259.644897 
	C274.426666,248.435059 282.706238,235.077423 287.880371,219.666183 
	C288.683167,217.275024 290.157959,214.998474 291.739410,212.999069 
	C298.326050,204.671722 302.521912,195.902695 297.941284,184.697296 
	C298.344940,175.487747 298.701416,166.716415 299.065857,157.609680 
	C299.081329,156.602158 299.088898,155.930069 299.427246,155.124023 
	C305.144470,153.061264 307.161316,149.236374 307.022858,143.561111 
	C306.895203,138.330765 305.094452,134.705414 299.983612,132.513397 
	C299.944458,124.694481 299.952240,117.340752 300.259827,109.812790 
	C301.918854,107.633354 303.836121,105.801369 304.523346,103.587547 
	C306.043640,98.689941 306.848999,93.575562 308.127655,88.596252 
	C309.336334,83.889435 307.578461,80.659508 303.256958,79.081429 
	C274.404449,68.545326 245.520096,58.095901 216.603806,47.736336 
	C215.040802,47.176365 212.924515,47.195423 211.356750,47.757111 
	C182.441788,58.116528 153.555252,68.556122 124.709541,79.106842 
	C120.652946,80.590599 118.778381,83.753662 119.854958,88.243286 
	C121.132957,93.572945 122.112572,98.995636 123.774628,104.201416 
	C124.464600,106.362503 126.586624,108.066383 128.078781,110.447655 
	C128.061127,118.272285 128.022110,125.627449 127.650024,133.080917 
	C122.303307,135.241074 121.111961,139.245056 121.034424,144.292389 
	C120.951881,149.664658 123.390106,152.936508 128.038513,155.340530 
	C128.344162,156.428787 128.615555,157.202744 128.879913,158.446732 
	C129.274597,167.636520 129.676346,176.356277 129.938629,185.432495 
	C124.982941,192.634216 129.434570,207.231247 136.590454,213.914505 
	C137.881302,215.120117 139.397659,216.528259 139.850601,218.116455 
	C143.319122,230.279068 149.848404,240.804459 156.984833,251.361710 
	C157.701660,252.103394 158.406174,252.522842 159.379807,253.123627 
	C161.435226,255.182907 163.221512,257.060852 164.994873,259.292816 
	C168.687607,263.461273 172.393265,267.275757 176.063583,271.481689 
	C173.445404,285.375824 167.617065,297.449402 159.524292,308.810455 
	C155.432785,312.944916 151.646271,316.929016 147.437073,320.933136 
	C144.236343,321.304016 141.424591,321.486450 138.686111,322.034790 
	C126.435257,324.487854 113.967773,326.411499 103.691978,335.120544 
	C100.388657,338.118500 97.063576,340.725281 94.463142,343.921631 
	C74.305031,368.699066 68.268631,398.092529 67.000000,429.000000 
z"/>
<path fill="#A7A07C" opacity="1.000000" stroke="none" 
	d="
M67.468658,429.000000 
	C68.268631,398.092529 74.305031,368.699066 94.463142,343.921631 
	C97.063576,340.725281 100.388657,338.118500 103.929642,335.369110 
	C113.786766,354.261932 122.982025,373.080688 132.519897,391.724152 
	C133.908417,394.438232 136.650452,396.744141 139.270828,398.474823 
	C142.891678,400.866241 146.991714,402.532074 152.262436,405.206940 
	C148.549713,408.485535 146.069763,410.961121 143.298004,413.049377 
	C139.982269,415.547485 140.764435,417.762115 142.981400,420.479767 
	C145.174164,423.167664 147.008469,426.147949 149.000000,429.000000 
	C121.979103,429.000000 94.958214,429.000000 67.468658,429.000000 
z"/>
<path fill="#8C855D" opacity="1.000000" stroke="none" 
	d="
M149.468658,429.000000 
	C147.008469,426.147949 145.174164,423.167664 142.981400,420.479767 
	C140.764435,417.762115 139.982269,415.547485 143.298004,413.049377 
	C146.069763,410.961121 148.549713,408.485535 152.262436,405.206940 
	C146.991714,402.532074 142.891678,400.866241 139.270828,398.474823 
	C136.650452,396.744141 133.908417,394.438232 132.519897,391.724152 
	C122.982025,373.080688 113.786766,354.261932 104.243546,335.251038 
	C113.967773,326.411499 126.435257,324.487854 138.686111,322.034790 
	C141.424591,321.486450 144.236343,321.304016 147.536499,321.281891 
	C149.050797,323.737885 150.042999,325.865082 151.080353,328.355896 
	C161.879486,354.153137 172.668167,379.572205 183.366928,405.029053 
	C186.702927,412.966858 189.795807,421.006805 193.000000,429.000000 
	C178.645767,429.000000 164.291550,429.000000 149.468658,429.000000 
z"/>
<path fill="#8C855D" opacity="1.000000" stroke="none" 
	d="
M280.198242,320.906677 
	C293.566650,322.279968 306.685608,324.646576 318.698730,331.083374 
	C320.857086,332.239899 322.733032,333.923523 324.576355,335.756836 
	C323.286774,337.732239 321.932983,339.200134 321.068909,340.914795 
	C312.629242,357.662598 304.429779,374.534363 295.748444,391.154877 
	C294.129669,394.254089 290.919037,396.731323 287.991058,398.879578 
	C284.930267,401.125305 281.324127,402.627747 277.597931,404.649628 
	C280.762726,408.355316 283.062500,411.410736 285.747437,414.078461 
	C287.940094,416.256989 287.628815,417.735107 285.724854,419.905548 
	C283.247162,422.729950 281.220673,425.950134 279.000000,429.000000 
	C264.645782,429.000000 250.291550,429.000000 235.476273,428.629669 
	C238.409409,420.146454 241.791840,412.028625 245.199966,403.921600 
	C255.554764,379.290283 265.919495,354.663116 276.519653,329.792297 
	C277.905426,326.669037 279.051819,323.787872 280.198242,320.906677 
z"/>
<path fill="#A89F7C" opacity="1.000000" stroke="none" 
	d="
M279.468658,429.000000 
	C281.220673,425.950134 283.247162,422.729950 285.724854,419.905548 
	C287.628815,417.735107 287.940094,416.256989 285.747437,414.078461 
	C283.062500,411.410736 280.762726,408.355316 277.597931,404.649628 
	C281.324127,402.627747 284.930267,401.125305 287.991058,398.879578 
	C290.919037,396.731323 294.129669,394.254089 295.748444,391.154877 
	C304.429779,374.534363 312.629242,357.662598 321.068909,340.914795 
	C321.932983,339.200134 323.286774,337.732239 324.748322,336.047424 
	C337.792603,346.023132 345.362579,359.608856 350.799347,374.470154 
	C357.122406,391.754181 360.245483,409.727722 361.065521,428.548218 
	C351.312439,429.000000 341.624878,429.000000 331.477631,428.767487 
	C331.017944,428.534973 331.019867,428.069580 330.814514,427.815002 
	C328.673248,427.700653 326.737335,427.840912 324.654968,428.140503 
	C324.326080,428.523834 324.156586,428.757233 324.000000,429.000000 
	C309.312439,429.000000 294.624878,429.000000 279.468658,429.000000 
M298.354156,413.098297 
	C294.617645,415.939697 294.937073,422.459473 299.637878,425.921844 
	C300.138489,425.585236 300.639099,425.248596 301.913757,424.933197 
	C304.965363,423.254425 306.322601,415.826630 303.817200,413.836090 
	C303.293976,413.420410 302.052917,413.908112 300.785797,413.535614 
	C300.247864,413.369720 299.709961,413.203827 298.354156,413.098297 
M311.585938,423.782745 
	C312.482361,423.743286 313.378815,423.703827 314.918610,423.388397 
	C316.972198,421.143158 318.067566,412.041077 316.403778,409.749298 
	C316.043976,409.253693 314.938080,409.299683 313.752289,408.848633 
	C312.967224,408.908813 312.182129,408.969025 310.529480,409.069244 
	C305.493530,411.427368 308.708069,415.883392 308.171356,419.315643 
	C307.991791,420.463959 310.123993,421.973755 311.585938,423.782745 
M325.213440,403.939056 
	C324.108826,404.846710 322.144440,405.674255 322.051147,406.676056 
	C321.683258,410.626129 321.572052,414.674652 322.089661,418.590973 
	C322.263794,419.908813 324.589996,420.942200 326.264374,422.667419 
	C327.577789,422.742432 328.891174,422.817444 330.867493,422.671631 
	C332.212524,421.034760 334.398834,419.547607 334.722534,417.728912 
	C335.344147,414.236481 334.949921,410.555511 334.901611,406.953766 
	C334.854858,403.467682 333.082275,402.674683 329.269653,403.863495 
	C328.201965,403.911774 327.134247,403.960083 325.213440,403.939056 
z"/>
<path fill="#444027" opacity="1.000000" stroke="none" 
	d="
M232.000000,429.000000 
	C220.312439,429.000000 208.624878,429.000000 196.552856,428.604675 
	C199.435318,407.711578 202.622391,387.200531 206.036392,366.727325 
	C206.720367,362.625641 205.228668,360.080322 201.946960,357.741211 
	C205.883041,353.120331 209.840759,348.863220 214.467896,343.886047 
	C216.410660,346.262726 217.768478,347.933746 219.137085,349.595856 
	C221.462463,352.419861 223.794632,355.238281 225.807983,358.234863 
	C221.877975,360.707977 221.518387,363.982788 222.169113,367.919067 
	C225.532578,388.265076 228.738892,408.637085 232.000000,429.000000 
z"/>
<path fill="#E8F0F1" opacity="1.000000" stroke="none" 
	d="
M201.968613,358.104980 
	C205.228668,360.080322 206.720367,362.625641 206.036392,366.727325 
	C202.622391,387.200531 199.435318,407.711578 196.084198,428.604675 
	C195.250000,429.000000 194.500000,429.000000 193.375000,429.000000 
	C189.795807,421.006805 186.702927,412.966858 183.366928,405.029053 
	C172.668167,379.572205 161.879486,354.153137 151.409683,328.434753 
	C152.252472,328.496155 152.916916,328.741974 153.354126,329.203186 
	C162.849930,339.220459 172.204605,349.374359 181.827209,359.267792 
	C192.196243,369.928680 192.303741,369.824127 201.968613,358.104980 
z"/>
<path fill="#E8F0F1" opacity="1.000000" stroke="none" 
	d="
M232.375000,429.000000 
	C228.738892,408.637085 225.532578,388.265076 222.169113,367.919067 
	C221.518387,363.982788 221.877975,360.707977 226.078522,358.412384 
	C229.050522,360.716217 231.581390,362.888458 233.783554,365.354279 
	C236.355347,368.234009 238.494431,368.312836 241.153412,365.407806 
	C249.760178,356.004608 258.413330,346.639740 267.246643,337.450500 
	C269.927887,334.661224 273.251160,332.489136 276.280334,330.034332 
	C265.919495,354.663116 255.554764,379.290283 245.199966,403.921600 
	C241.791840,412.028625 238.409409,420.146454 235.007614,428.629669 
	C234.250000,429.000000 233.500000,429.000000 232.375000,429.000000 
z"/>
<path fill="#B44F51" opacity="1.000000" stroke="none" 
	d="
M324.437500,429.000000 
	C324.156586,428.757233 324.326080,428.523834 325.107758,428.114319 
	C327.477936,427.975708 329.248901,428.022644 331.019867,428.069580 
	C331.019867,428.069580 331.017944,428.534973 331.008972,428.767487 
	C328.958344,429.000000 326.916656,429.000000 324.437500,429.000000 
z"/>
<path fill="#F2DAC2" opacity="1.000000" stroke="none" 
	d="
M165.007797,258.938812 
	C163.221512,257.060852 161.435226,255.182907 159.323486,252.821152 
	C158.322861,251.904724 157.647690,251.472107 156.972504,251.039474 
	C149.848404,240.804459 143.319122,230.279068 139.850601,218.116455 
	C139.397659,216.528259 137.881302,215.120117 136.590454,213.914505 
	C129.434570,207.231247 124.982941,192.634216 130.264603,185.257294 
	C134.346680,184.262024 137.963303,183.798401 141.955002,183.286697 
	C144.364716,176.983215 147.223709,169.504486 150.272247,161.812134 
	C150.497635,161.411530 150.533478,161.224548 150.936188,161.127655 
	C158.008911,162.386002 164.673187,164.105576 171.428757,164.615356 
	C189.132431,165.951279 206.919876,168.030624 224.591232,167.420074 
	C242.260849,166.809586 259.830231,163.298538 277.517822,161.390900 
	C278.036072,162.211319 278.480103,162.699814 278.951843,163.550568 
	C281.397675,170.659180 283.815826,177.405548 286.229370,184.139053 
	C292.970154,182.086426 293.481567,182.133118 297.894165,185.135529 
	C302.521912,195.902695 298.326050,204.671722 291.739410,212.999069 
	C290.157959,214.998474 288.683167,217.275024 287.880371,219.666183 
	C282.706238,235.077423 274.426666,248.435059 261.814453,259.698730 
	C253.872223,264.699188 246.705490,269.881317 238.910721,273.820831 
	C234.689514,275.954254 229.422867,276.175873 224.568024,276.776306 
	C223.504730,276.907806 221.274994,275.090759 221.144547,273.986542 
	C220.579071,269.199951 217.304749,268.849792 213.675995,268.574768 
	C207.910492,268.137817 207.233002,272.431610 206.309418,277.705292 
	C201.058304,276.757996 195.575058,276.933594 191.288910,274.754578 
	C182.197968,270.132874 173.730743,264.284332 165.007797,258.938812 
M290.707825,205.869965 
	C294.455658,203.397247 295.509247,199.688339 294.742279,195.610062 
	C294.436676,193.985153 292.762482,192.617615 291.711304,191.132919 
	C291.133820,191.383896 290.556366,191.634872 289.978882,191.885849 
	C289.978882,196.585495 289.978882,201.285126 289.835815,206.066910 
	C289.835815,206.066910 289.837036,206.275055 289.837036,206.275055 
	C289.837036,206.275055 290.016632,206.022659 290.707825,205.869965 
M133.013748,199.156723 
	C134.115814,201.549454 135.217896,203.942200 136.319962,206.334946 
	C136.693222,206.108856 137.066498,205.882782 137.439758,205.656693 
	C137.439758,201.024490 137.439758,196.392303 137.439758,191.556168 
	C132.584045,192.171219 133.023438,195.392609 133.013748,199.156723 
z"/>
<path fill="#A7A07B" opacity="1.000000" stroke="none" 
	d="
M128.057419,109.978180 
	C126.586624,108.066383 124.464600,106.362503 123.774628,104.201416 
	C122.112572,98.995636 121.132957,93.572945 119.854958,88.243286 
	C118.778381,83.753662 120.652946,80.590599 124.709541,79.106842 
	C153.555252,68.556122 182.441788,58.116528 211.356750,47.757111 
	C212.924515,47.195423 215.040802,47.176365 216.603806,47.736336 
	C245.520096,58.095901 274.404449,68.545326 303.256958,79.081429 
	C307.578461,80.659508 309.336334,83.889435 308.127655,88.596252 
	C306.848999,93.575562 306.043640,98.689941 304.523346,103.587547 
	C303.836121,105.801369 301.918854,107.633354 299.794189,109.805801 
	C242.038300,109.974754 185.047867,109.976471 128.057419,109.978180 
M217.610153,88.726418 
	C214.243179,89.074417 210.796310,89.085167 207.530182,89.858871 
	C203.754272,90.753326 202.883896,93.925858 204.652756,96.877327 
	C208.976135,104.091194 214.028015,108.288574 221.202026,100.289879 
	C225.812866,95.149010 224.891663,91.277275 217.610153,88.726418 
z"/>
<path fill="#A8A07C" opacity="1.000000" stroke="none" 
	d="
M277.443573,161.058975 
	C259.830231,163.298538 242.260849,166.809586 224.591232,167.420074 
	C206.919876,168.030624 189.132431,165.951279 171.428757,164.615356 
	C164.673187,164.105576 158.008911,162.386002 150.573883,160.941956 
	C142.564575,158.786163 135.284424,156.906189 128.004257,155.026230 
	C123.390106,152.936508 120.951881,149.664658 121.034424,144.292389 
	C121.111961,139.245056 122.303307,135.241074 128.119446,133.092773 
	C185.958130,132.997070 242.994339,132.987808 300.030548,132.978561 
	C305.094452,134.705414 306.895203,138.330765 307.022858,143.561111 
	C307.161316,149.236374 305.144470,153.061264 299.047546,155.163010 
	C291.372559,157.243607 284.408051,159.151291 277.443573,161.058975 
z"/>
<path fill="#F1DAC2" opacity="1.000000" stroke="none" 
	d="
M251.937637,271.055420 
	C254.412323,284.627808 259.905792,296.886139 267.918335,308.638184 
	C267.485565,309.645966 267.225159,310.143829 266.814606,310.374023 
	C250.154999,319.716095 233.547256,329.156128 216.713959,338.175018 
	C214.938431,339.126312 211.497177,338.205475 209.387726,337.093109 
	C197.042633,330.583069 184.813370,323.847168 172.655792,316.991058 
	C168.223740,314.491699 164.095932,311.452820 159.829300,308.660126 
	C167.617065,297.449402 173.445404,285.375824 176.414612,271.468689 
	C178.101898,271.766876 179.446869,272.399200 180.697159,273.182617 
	C203.000854,287.157349 225.262680,286.993774 247.530151,273.080902 
	C248.890213,272.231140 250.463531,271.722687 251.937637,271.055420 
z"/>
<path fill="#8C855C" opacity="1.000000" stroke="none" 
	d="
M299.983612,132.513397 
	C242.994339,132.987808 185.958130,132.997070 128.452499,132.994476 
	C128.022110,125.627449 128.061127,118.272285 128.078781,110.447655 
	C185.047867,109.976471 242.038300,109.974754 299.494385,109.980026 
	C299.952240,117.340752 299.944458,124.694481 299.983612,132.513397 
z"/>
<path fill="#DAE2E4" opacity="1.000000" stroke="none" 
	d="
M159.524292,308.810455 
	C164.095932,311.452820 168.223740,314.491699 172.655792,316.991058 
	C184.813370,323.847168 197.042633,330.583069 209.387726,337.093109 
	C211.497177,338.205475 214.938431,339.126312 216.713959,338.175018 
	C233.547256,329.156128 250.154999,319.716095 266.814606,310.374023 
	C267.225159,310.143829 267.485565,309.645966 268.007538,308.963684 
	C272.094147,312.537781 275.989258,316.421082 280.041290,320.605530 
	C279.051819,323.787872 277.905426,326.669037 276.519653,329.792297 
	C273.251160,332.489136 269.927887,334.661224 267.246643,337.450500 
	C258.413330,346.639740 249.760178,356.004608 241.153412,365.407806 
	C238.494431,368.312836 236.355347,368.234009 233.783554,365.354279 
	C231.581390,362.888458 229.050522,360.716217 226.394501,358.236572 
	C223.794632,355.238281 221.462463,352.419861 219.137085,349.595856 
	C217.768478,347.933746 216.410660,346.262726 214.467896,343.886047 
	C209.840759,348.863220 205.883041,353.120331 201.946960,357.741211 
	C192.303741,369.824127 192.196243,369.928680 181.827209,359.267792 
	C172.204605,349.374359 162.849930,339.220459 153.354126,329.203186 
	C152.916916,328.741974 152.252472,328.496155 151.364532,328.071167 
	C150.042999,325.865082 149.050797,323.737885 147.959198,321.261902 
	C151.646271,316.929016 155.432785,312.944916 159.524292,308.810455 
z"/>
<path fill="#74574F" opacity="1.000000" stroke="none" 
	d="
M252.095535,270.751404 
	C250.463531,271.722687 248.890213,272.231140 247.530151,273.080902 
	C225.262680,286.993774 203.000854,287.157349 180.697159,273.182617 
	C179.446869,272.399200 178.101898,271.766876 176.449951,271.077209 
	C172.393265,267.275757 168.687607,263.461273 164.994873,259.292816 
	C173.730743,264.284332 182.197968,270.132874 191.288910,274.754578 
	C195.575058,276.933594 201.058304,276.757996 206.309418,277.705292 
	C207.233002,272.431610 207.910492,268.137817 213.675995,268.574768 
	C217.304749,268.849792 220.579071,269.199951 221.144547,273.986542 
	C221.274994,275.090759 223.504730,276.907806 224.568024,276.776306 
	C229.422867,276.175873 234.689514,275.954254 238.910721,273.820831 
	C246.705490,269.881317 253.872223,264.699188 261.642822,259.980896 
	C260.053802,262.224457 258.181000,264.574677 256.169342,266.799377 
	C254.977234,268.117737 253.566071,269.238007 252.095535,270.751404 
z"/>
<path fill="#71534F" opacity="1.000000" stroke="none" 
	d="
M150.082703,162.025742 
	C147.223709,169.504486 144.364716,176.983215 141.955002,183.286697 
	C137.963303,183.798401 134.346680,184.262024 130.404083,184.900833 
	C129.676346,176.356277 129.274597,167.636520 129.298721,158.458893 
	C136.510635,159.342590 143.296661,160.684174 150.082703,162.025742 
z"/>
<path fill="#71534F" opacity="1.000000" stroke="none" 
	d="
M297.941284,184.697296 
	C293.481567,182.133118 292.970154,182.086426 286.229370,184.139053 
	C283.815826,177.405548 281.397675,170.659180 279.232605,163.297272 
	C286.009735,161.102844 292.533844,159.523956 299.057922,157.945084 
	C298.701416,166.716415 298.344940,175.487747 297.941284,184.697296 
z"/>
<path fill="#504135" opacity="1.000000" stroke="none" 
	d="
M150.272247,161.812134 
	C143.296661,160.684174 136.510635,159.342590 129.305786,157.988861 
	C128.615555,157.202744 128.344162,156.428787 128.038513,155.340530 
	C135.284424,156.906189 142.564575,158.786163 150.207031,160.851852 
	C150.533478,161.224548 150.497635,161.411530 150.272247,161.812134 
z"/>
<path fill="#504135" opacity="1.000000" stroke="none" 
	d="
M299.065857,157.609680 
	C292.533844,159.523956 286.009735,161.102844 279.204895,162.935028 
	C278.480103,162.699814 278.036072,162.211319 277.517822,161.390900 
	C284.408051,159.151291 291.372559,157.243607 298.716736,155.296936 
	C299.088898,155.930069 299.081329,156.602158 299.065857,157.609680 
z"/>
<path fill="#74574F" opacity="1.000000" stroke="none" 
	d="
M156.984833,251.361710 
	C157.647690,251.472107 158.322861,251.904724 159.054352,252.639832 
	C158.406174,252.522842 157.701660,252.103394 156.984833,251.361710 
z"/>
<path fill="#BD5053" opacity="1.000000" stroke="none" 
	d="
M330.059692,404.012909 
	C333.082275,402.674683 334.854858,403.467682 334.901611,406.953766 
	C334.949921,410.555511 335.344147,414.236481 334.722534,417.728912 
	C334.398834,419.547607 332.212524,421.034760 330.494202,422.327942 
	C330.100494,415.993774 330.080078,410.003357 330.059692,404.012909 
z"/>
<path fill="#FFF5F4" opacity="1.000000" stroke="none" 
	d="
M329.664673,403.938202 
	C330.080078,410.003357 330.100494,415.993774 330.162750,422.438354 
	C328.891174,422.817444 327.577789,422.742432 326.146973,421.907593 
	C326.041901,415.434601 326.054230,409.721466 326.066559,404.008362 
	C327.134247,403.960083 328.201965,403.911774 329.664673,403.938202 
z"/>
<path fill="#F8D7D9" opacity="1.000000" stroke="none" 
	d="
M314.275238,423.664368 
	C313.378815,423.703827 312.482361,423.743286 311.453796,423.060211 
	C311.346802,417.901520 311.371918,413.465363 311.397064,409.029205 
	C312.182129,408.969025 312.967224,408.908813 313.960754,409.431244 
	C314.204559,414.564026 314.239899,419.114197 314.275238,423.664368 
z"/>
<path fill="#B44F51" opacity="1.000000" stroke="none" 
	d="
M301.142670,413.979492 
	C302.052917,413.908112 303.293976,413.420410 303.817200,413.836090 
	C306.322601,415.826630 304.965363,423.254425 301.464233,424.475708 
	C301.057373,420.671997 301.100037,417.325775 301.142670,413.979492 
z"/>
<path fill="#B44F51" opacity="1.000000" stroke="none" 
	d="
M314.596924,423.526367 
	C314.239899,419.114197 314.204559,414.564026 314.172546,409.555054 
	C314.938080,409.299683 316.043976,409.253693 316.403778,409.749298 
	C318.067566,412.041077 316.972198,421.143158 314.596924,423.526367 
z"/>
<path fill="#B44F51" opacity="1.000000" stroke="none" 
	d="
M310.963257,409.049225 
	C311.371918,413.465363 311.346802,417.901520 311.260559,422.828003 
	C310.123993,421.973755 307.991791,420.463959 308.171356,419.315643 
	C308.708069,415.883392 305.493530,411.427368 310.963257,409.049225 
z"/>
<path fill="#B44F51" opacity="1.000000" stroke="none" 
	d="
M325.640015,403.973694 
	C326.054230,409.721466 326.041901,415.434601 325.981079,421.626648 
	C324.589996,420.942200 322.263794,419.908813 322.089661,418.590973 
	C321.572052,414.674652 321.683258,410.626129 322.051147,406.676056 
	C322.144440,405.674255 324.108826,404.846710 325.640015,403.973694 
M322.997009,410.752319 
	C322.997009,413.451660 322.997009,416.151001 322.997009,418.850342 
	C323.461334,418.819366 323.925690,418.788361 324.390015,418.757385 
	C324.390015,414.556061 324.390015,410.354736 324.390015,406.153412 
	C324.064392,406.149963 323.738739,406.146515 323.413116,406.143097 
	C323.274780,407.393524 323.136414,408.643982 322.997009,410.752319 
z"/>
<path fill="#B44F51" opacity="1.000000" stroke="none" 
	d="
M298.981384,425.901093 
	C294.937073,422.459473 294.617645,415.939697 298.735718,413.527466 
	C299.071991,417.938110 299.026672,421.919586 298.981384,425.901093 
z"/>
<path fill="#FFF5F4" opacity="1.000000" stroke="none" 
	d="
M299.309631,425.911469 
	C299.026672,421.919586 299.071991,417.938110 299.144653,413.497253 
	C299.709961,413.203827 300.247864,413.369720 300.964233,413.757568 
	C301.100037,417.325775 301.057373,420.671997 301.077209,424.465088 
	C300.639099,425.248596 300.138489,425.585236 299.309631,425.911469 
z"/>
<path fill="#CBA74B" opacity="1.000000" stroke="none" 
	d="
M330.814514,427.815002 
	C329.248901,428.022644 327.477936,427.975708 325.254211,427.954956 
	C326.737335,427.840912 328.673248,427.700653 330.814514,427.815002 
z"/>
<path fill="#E2C3A9" opacity="1.000000" stroke="none" 
	d="
M133.001343,198.744888 
	C133.023438,195.392609 132.584045,192.171219 137.439758,191.556168 
	C137.439758,196.392303 137.439758,201.024490 137.439758,205.656693 
	C137.066498,205.882782 136.693222,206.108856 136.319962,206.334946 
	C135.217896,203.942200 134.115814,201.549454 133.001343,198.744888 
z"/>
<path fill="#E2C3A9" opacity="1.000000" stroke="none" 
	d="
M289.978882,205.984772 
	C289.978882,201.285126 289.978882,196.585495 289.978882,191.885849 
	C290.556366,191.634872 291.133820,191.383896 291.711304,191.132919 
	C292.762482,192.617615 294.436676,193.985153 294.742279,195.610062 
	C295.509247,199.688339 294.455658,203.397247 290.353882,205.935638 
	C289.999969,206.001297 289.978882,205.984772 289.978882,205.984772 
z"/>
<path fill="#E2C3A9" opacity="1.000000" stroke="none" 
	d="
M290.008301,206.011978 
	C290.016632,206.022659 289.837036,206.275055 289.837036,206.275055 
	C289.837036,206.275055 289.835815,206.066910 289.907349,206.025848 
	C289.978882,205.984772 289.999969,206.001297 290.008301,206.011978 
z"/>
<path fill="#D3B764" opacity="1.000000" stroke="none" 
	d="
M217.997711,88.846542 
	C224.891663,91.277275 225.812866,95.149010 221.202026,100.289879 
	C214.028015,108.288574 208.976135,104.091194 204.652756,96.877327 
	C202.883896,93.925858 203.754272,90.753326 207.530182,89.858871 
	C210.796310,89.085167 214.243179,89.074417 217.997711,88.846542 
M213.595566,101.855255 
	C215.787094,100.296829 218.291306,99.012383 220.015579,97.044518 
	C220.700836,96.262436 220.215103,93.441513 219.292709,92.462143 
	C216.953018,89.977928 209.236206,90.429283 207.912003,93.101532 
	C205.860306,97.241844 209.066940,99.358330 211.940613,101.386314 
	C212.201050,101.570107 212.555557,101.620583 213.595566,101.855255 
z"/>
<path fill="#BD5053" opacity="1.000000" stroke="none" 
	d="
M322.997559,410.323364 
	C323.136414,408.643982 323.274780,407.393524 323.413116,406.143097 
	C323.738739,406.146515 324.064392,406.149963 324.390015,406.153412 
	C324.390015,410.354736 324.390015,414.556061 324.390015,418.757385 
	C323.925690,418.788361 323.461334,418.819366 322.997009,418.850342 
	C322.997009,416.151001 322.997009,413.451660 322.997559,410.323364 
z"/>
<path fill="#CBA74B" opacity="1.000000" stroke="none" 
	d="
M213.230972,101.794113 
	C212.555557,101.620583 212.201050,101.570107 211.940613,101.386314 
	C209.066940,99.358330 205.860306,97.241844 207.912003,93.101532 
	C209.236206,90.429283 216.953018,89.977928 219.292709,92.462143 
	C220.215103,93.441513 220.700836,96.262436 220.015579,97.044518 
	C218.291306,99.012383 215.787094,100.296829 213.230972,101.794113 
z"/>
</svg>