<svg version="1.1" id="Layer_1" xmlns="http://www.w3.org/2000/svg" xmlns:xlink="http://www.w3.org/1999/xlink" x="0px" y="0px"
	 width="100%" viewBox="0 0 428 414" enable-background="new 0 0 428 414" xml:space="preserve">
<path fill="#281819" opacity="1.000000" stroke="none" 
	d="
M85.000000,415.000000 
	C57.008560,415.000000 29.017124,415.000000 1.019264,415.000000 
	C1.012842,277.050751 1.012842,139.101517 1.012842,1.076137 
	C143.572250,1.076137 286.144562,1.076137 428.858429,1.076137 
	C428.858429,138.999893 428.858429,276.999939 428.858429,415.000000 
	C399.585693,415.000000 370.261505,415.000000 340.370056,414.601074 
	C337.276093,402.561768 335.582520,390.656433 331.988129,379.355652 
	C328.402527,368.082397 322.282593,357.863129 311.850464,350.632507 
	C309.383667,348.711700 307.319794,346.375397 304.769226,345.558350 
	C295.013794,342.433228 285.101807,339.796722 275.019531,336.721710 
	C270.656342,332.421021 266.521851,328.376373 262.250732,324.033752 
	C251.657516,309.742828 246.752960,293.727783 245.268204,276.564301 
	C245.126770,274.929413 246.431396,272.489410 247.827454,271.505768 
	C263.290070,260.611084 274.263489,246.442734 280.209900,228.421402 
	C280.712494,226.898254 281.881287,225.608215 282.594513,224.138947 
	C285.313446,218.537689 288.625763,213.109909 290.450439,207.224792 
	C291.952240,202.381042 290.903992,197.246674 286.002258,193.576553 
	C291.588867,171.624649 294.227905,149.735474 292.907166,127.478165 
	C292.019867,112.525650 288.548645,98.228508 280.520538,85.328423 
	C277.270508,80.106056 277.048920,80.141075 272.533020,83.992737 
	C260.739807,94.051247 247.513535,100.661652 231.570053,98.956879 
	C224.522629,98.203331 217.590500,96.183929 210.668869,94.483437 
	C198.850449,91.579880 186.944138,88.104179 174.750183,90.510033 
	C153.493454,94.703964 140.956116,108.577835 135.054321,128.889130 
	C129.859924,146.765915 130.508087,165.095520 131.449249,183.388367 
	C131.674652,187.769287 132.894409,192.099045 133.539810,196.837189 
	C130.397552,208.300507 134.128326,217.382919 141.657028,225.394485 
	C142.634613,226.434769 143.546234,227.703293 144.012207,229.032959 
	C150.255493,246.848679 161.178513,261.030182 176.661255,271.812531 
	C177.843582,272.635925 178.927307,274.726776 178.808502,276.122192 
	C177.246750,294.464661 172.037125,311.494904 159.779190,326.097351 
	C155.937164,329.823700 152.411774,333.418488 148.487000,337.036682 
	C146.129883,337.393097 144.156021,337.651611 142.217087,338.071411 
	C131.317108,340.431274 120.496040,342.994507 111.712601,351.152802 
	C92.294632,368.258636 86.649223,390.800659 85.000000,415.000000 
z"/>
<path fill="#343F4D" opacity="1.000000" stroke="none" 
	d="
M112.009750,351.000488 
	C120.496040,342.994507 131.317108,340.431274 142.217087,338.071411 
	C144.156021,337.651611 146.129883,337.393097 148.576263,337.377502 
	C150.065887,339.802795 151.066849,341.910767 152.056183,344.316284 
	C152.349289,345.110992 152.654037,345.608124 152.970688,346.077881 
	C152.982590,346.050507 152.923645,346.059814 152.958939,346.425201 
	C162.662811,369.527069 172.331406,392.263519 182.000000,415.000000 
	C169.979111,415.000000 157.958206,415.000000 145.401489,414.657593 
	C142.920059,412.885834 140.865952,411.580475 139.056213,409.995941 
	C136.777054,408.000458 133.798309,406.161926 132.693726,403.582397 
	C128.726273,394.317474 125.499413,384.738525 121.842194,375.336761 
	C118.670616,367.183472 115.295128,359.109497 112.009750,351.000488 
z"/>
<path fill="#343F4D" opacity="1.000000" stroke="none" 
	d="
M275.248230,336.977783 
	C285.101807,339.796722 295.013794,342.433228 304.769226,345.558350 
	C307.319794,346.375397 309.383667,348.711700 311.693970,350.968262 
	C305.087067,368.742645 298.590454,385.952942 291.693268,403.001129 
	C290.574036,405.767639 287.840790,407.987183 285.555450,410.143585 
	C283.591431,411.996735 281.201569,413.398590 279.000000,415.000000 
	C267.312439,415.000000 255.624878,415.000000 243.309875,414.640594 
	C243.278915,412.744202 243.834152,411.189697 244.478088,409.672852 
	C253.631821,388.109955 262.797607,366.552155 272.204041,344.734985 
	C273.381165,341.977173 274.314697,339.477478 275.248230,336.977783 
z"/>
<path fill="#414E5D" opacity="1.000000" stroke="none" 
	d="
M279.468658,415.000000 
	C281.201569,413.398590 283.591431,411.996735 285.555450,410.143585 
	C287.840790,407.987183 290.574036,405.767639 291.693268,403.001129 
	C298.590454,385.952942 305.087067,368.742645 311.873352,351.250488 
	C322.282593,357.863129 328.402527,368.082397 331.988129,379.355652 
	C335.582520,390.656433 337.276093,402.561768 339.901367,414.601074 
	C319.979095,415.000000 299.958221,415.000000 279.468658,415.000000 
z"/>
<path fill="#414E5D" opacity="1.000000" stroke="none" 
	d="
M111.712608,351.152802 
	C115.295128,359.109497 118.670616,367.183472 121.842194,375.336761 
	C125.499413,384.738525 128.726273,394.317474 132.693726,403.582397 
	C133.798309,406.161926 136.777054,408.000458 139.056213,409.995941 
	C140.865952,411.580475 142.920059,412.885834 144.932831,414.657593 
	C125.312439,415.000000 105.624878,415.000000 85.468658,415.000000 
	C86.649223,390.800659 92.294632,368.258636 111.712608,351.152802 
z"/>
<path fill="#E7F0F2" opacity="1.000000" stroke="none" 
	d="
M271.960480,344.993134 
	C262.797607,366.552155 253.631821,388.109955 244.478088,409.672852 
	C243.834152,411.189697 243.278915,412.744202 242.841217,414.640594 
	C236.978851,415.000000 230.957703,415.000000 224.474304,414.580688 
	C222.404327,403.684631 220.906479,393.189270 219.135162,382.740265 
	C218.419464,378.518372 219.245636,375.253601 223.347504,373.203918 
	C226.370651,376.039398 229.281570,378.555878 231.810638,381.410614 
	C234.212585,384.121857 236.025986,383.846924 238.264542,381.278809 
	C245.241974,373.274261 252.232529,365.276703 259.412628,357.455078 
	C263.394836,353.117126 267.765137,349.135437 271.960480,344.993134 
z"/>
<path fill="#E7F0F2" opacity="1.000000" stroke="none" 
	d="
M182.467941,415.000000 
	C172.331406,392.263519 162.662811,369.527069 153.303345,346.467896 
	C154.928436,347.124268 156.458466,347.912659 157.526901,349.112152 
	C166.920624,359.658417 176.276688,370.239166 185.543716,380.896790 
	C188.765457,384.601959 189.954193,384.570648 193.224121,380.758057 
	C195.592957,377.996124 198.370163,375.584473 201.287079,373.178040 
	C205.638031,375.944519 205.383331,379.711792 204.719437,383.807434 
	C203.036911,394.187225 201.559540,404.600281 200.000000,415.000000 
	C194.311966,415.000000 188.623917,415.000000 182.467941,415.000000 
z"/>
<path fill="#35414E" opacity="1.000000" stroke="none" 
	d="
M200.468628,415.000000 
	C201.559540,404.600281 203.036911,394.187225 204.719437,383.807434 
	C205.383331,379.711792 205.638031,375.944519 201.215942,372.886902 
	C204.338623,367.928070 207.854263,363.421753 211.665466,358.536560 
	C215.878326,362.977020 219.423828,366.618042 222.814453,370.397949 
	C223.288757,370.926697 223.002594,372.137573 223.068451,373.032684 
	C219.245636,375.253601 218.419464,378.518372 219.135162,382.740265 
	C220.906479,393.189270 222.404327,403.684631 224.006042,414.580688 
	C216.312424,415.000000 208.624832,415.000000 200.468628,415.000000 
z"/>
<path fill="#F2DAC2" opacity="1.000000" stroke="none" 
	d="
M286.012970,193.974640 
	C290.903992,197.246674 291.952240,202.381042 290.450439,207.224792 
	C288.625763,213.109909 285.313446,218.537689 282.594513,224.138947 
	C281.881287,225.608215 280.712494,226.898254 280.209900,228.421402 
	C274.263489,246.442734 263.290070,260.611084 247.827454,271.505768 
	C246.431396,272.489410 245.126770,274.929413 245.268204,276.564301 
	C246.752960,293.727783 251.657516,309.742828 262.062744,324.373383 
	C260.670441,326.223785 259.461975,327.640350 257.965210,328.613403 
	C251.975769,332.507294 245.952942,336.356506 239.837158,340.047760 
	C231.596542,345.021454 223.330490,349.964722 214.896942,354.596161 
	C213.374283,355.432373 210.586639,355.425232 209.075104,354.575806 
	C201.407928,350.267120 194.025360,345.456146 186.435104,341.005280 
	C177.714371,335.891449 168.880539,330.970490 160.095825,325.965759 
	C172.037125,311.494904 177.246750,294.464661 178.808502,276.122192 
	C178.927307,274.726776 177.843582,272.635925 176.661255,271.812531 
	C161.178513,261.030182 150.255493,246.848679 144.012207,229.032959 
	C143.546234,227.703293 142.634613,226.434769 141.657028,225.394485 
	C134.128326,217.382919 130.397552,208.300507 133.878418,196.706909 
	C137.279190,195.085403 140.224319,193.979065 142.995331,192.938126 
	C144.623764,187.332169 146.196533,181.260529 148.179169,175.325821 
	C149.478699,171.435852 152.425720,170.313248 156.524597,171.209839 
	C173.678375,174.962006 191.026413,176.399185 208.579910,175.257858 
	C228.046478,173.992157 246.363480,169.498520 261.874512,156.822556 
	C262.331543,156.449066 263.020172,156.358948 263.928894,156.011124 
	C271.391449,167.972336 276.968201,180.410812 278.379852,193.974640 
	C281.097229,193.974640 283.555084,193.974640 286.012970,193.974640 
M185.075943,277.157013 
	C185.075943,277.157013 185.279205,277.170959 185.279205,277.170959 
	C185.279205,277.170959 184.998169,277.001251 184.777527,276.716125 
	C184.560104,276.657806 184.342667,276.599487 184.125244,276.541199 
	C184.417282,276.693481 184.709320,276.845764 185.075943,277.157013 
M281.591949,217.648819 
	C287.670868,211.198471 287.744995,204.584549 281.009338,202.633713 
	C281.009338,207.884827 281.009338,212.945724 280.857269,218.074661 
	C280.857269,218.074661 280.836548,218.258224 280.836548,218.258224 
	C280.836548,218.258224 280.993591,217.991013 281.591949,217.648819 
M236.250366,278.112701 
	C223.098160,283.186584 209.796600,286.090851 195.910309,280.993958 
	C194.274765,280.393646 192.565323,279.994690 190.890152,279.502380 
	C190.719940,280.006744 190.549728,280.511108 190.379517,281.015472 
	C194.806549,282.476990 199.147034,284.335419 203.677338,285.323364 
	C215.828476,287.973267 227.003128,285.474731 237.376434,277.973907 
	C237.554932,277.838257 237.733444,277.702637 237.911942,277.566986 
	C237.805847,277.529541 237.655914,277.428345 237.601364,277.465851 
	C237.382278,277.616486 237.192749,277.810089 236.250366,278.112701 
M142.004196,207.749054 
	C141.871857,206.046570 141.739532,204.344101 141.578217,202.268631 
	C135.588501,206.184708 135.733093,211.288986 142.004105,217.482315 
	C142.004105,214.092926 142.004105,211.361481 142.004196,207.749054 
M187.494522,278.541901 
	C187.494522,278.541901 187.467392,278.485138 187.494522,278.541901 
M240.527344,276.504333 
	C240.527344,276.504333 240.480225,276.522095 240.527344,276.504333 
z"/>
<path fill="#805E5A" opacity="1.000000" stroke="none" 
	d="
M286.002258,193.576553 
	C283.555084,193.974640 281.097229,193.974640 278.379852,193.974640 
	C276.968201,180.410812 271.391449,167.972336 263.928894,156.011124 
	C263.020172,156.358948 262.331543,156.449066 261.874512,156.822556 
	C246.363480,169.498520 228.046478,173.992157 208.579910,175.257858 
	C191.026413,176.399185 173.678375,174.962006 156.524597,171.209839 
	C152.425720,170.313248 149.478699,171.435852 148.179169,175.325821 
	C146.196533,181.260529 144.623764,187.332169 142.995331,192.938126 
	C140.224319,193.979065 137.279190,195.085403 133.995453,196.322037 
	C132.894409,192.099045 131.674652,187.769287 131.449249,183.388367 
	C130.508087,165.095520 129.859924,146.765915 135.054321,128.889130 
	C140.956116,108.577835 153.493454,94.703964 174.750183,90.510033 
	C186.944138,88.104179 198.850449,91.579880 210.668869,94.483437 
	C217.590500,96.183929 224.522629,98.203331 231.570053,98.956879 
	C247.513535,100.661652 260.739807,94.051247 272.533020,83.992737 
	C277.048920,80.141075 277.270508,80.106056 280.520538,85.328423 
	C288.548645,98.228508 292.019867,112.525650 292.907166,127.478165 
	C294.227905,149.735474 291.588867,171.624649 286.002258,193.576553 
z"/>
<path fill="#DAE2E4" opacity="1.000000" stroke="none" 
	d="
M159.779190,326.097351 
	C168.880539,330.970490 177.714371,335.891449 186.435104,341.005280 
	C194.025360,345.456146 201.407928,350.267120 209.075104,354.575806 
	C210.586639,355.425232 213.374283,355.432373 214.896942,354.596161 
	C223.330490,349.964722 231.596542,345.021454 239.837158,340.047760 
	C245.952942,336.356506 251.975769,332.507294 257.965210,328.613403 
	C259.461975,327.640350 260.670441,326.223785 262.199402,324.671387 
	C266.521851,328.376373 270.656342,332.421021 275.019531,336.721741 
	C274.314697,339.477478 273.381165,341.977173 272.204041,344.734985 
	C267.765137,349.135437 263.394836,353.117126 259.412628,357.455078 
	C252.232529,365.276703 245.241974,373.274261 238.264542,381.278809 
	C236.025986,383.846924 234.212585,384.121857 231.810638,381.410614 
	C229.281570,378.555878 226.370651,376.039398 223.347504,373.203918 
	C223.002594,372.137573 223.288757,370.926697 222.814453,370.397949 
	C219.423828,366.618042 215.878326,362.977020 211.665466,358.536560 
	C207.854263,363.421753 204.338623,367.928070 200.894119,372.725525 
	C198.370163,375.584473 195.592957,377.996124 193.224121,380.758057 
	C189.954193,384.570648 188.765457,384.601959 185.543716,380.896790 
	C176.276688,370.239166 166.920624,359.658417 157.526901,349.112152 
	C156.458466,347.912659 154.928436,347.124268 153.268051,346.102539 
	C152.923645,346.059814 152.982590,346.050507 152.907303,345.794281 
	C152.577286,345.031616 152.322556,344.525146 152.067825,344.018707 
	C151.066849,341.910767 150.065887,339.802795 148.975647,337.354065 
	C152.411774,333.418488 155.937164,329.823700 159.779190,326.097351 
z"/>
<path fill="#E7F0F2" opacity="1.000000" stroke="none" 
	d="
M152.056183,344.316284 
	C152.322556,344.525146 152.577286,345.031616 152.895401,345.821655 
	C152.654037,345.608124 152.349289,345.110992 152.056183,344.316284 
z"/>
<path fill="#E3C6AB" opacity="1.000000" stroke="none" 
	d="
M237.013550,278.013153 
	C227.003128,285.474731 215.828476,287.973267 203.677338,285.323364 
	C199.147034,284.335419 194.806549,282.476990 190.379517,281.015472 
	C190.549728,280.511108 190.719940,280.006744 190.890152,279.502380 
	C192.565323,279.994690 194.274765,280.393646 195.910309,280.993958 
	C209.796600,286.090851 223.098160,283.186584 236.625702,278.056824 
	C237.001022,278.000946 237.013550,278.013153 237.013550,278.013153 
z"/>
<path fill="#E2C3A8" opacity="1.000000" stroke="none" 
	d="
M281.009338,218.006622 
	C281.009338,212.945724 281.009338,207.884827 281.009338,202.633713 
	C287.744995,204.584549 287.670868,211.198471 281.295959,217.824402 
	C281.000000,218.000000 281.009338,218.006622 281.009338,218.006622 
z"/>
<path fill="#E3C3A9" opacity="1.000000" stroke="none" 
	d="
M142.004150,208.189545 
	C142.004105,211.361481 142.004105,214.092926 142.004105,217.482315 
	C135.733093,211.288986 135.588501,206.184708 141.578217,202.268631 
	C141.739532,204.344101 141.871857,206.046570 142.004150,208.189545 
z"/>
<path fill="#E3C6AB" opacity="1.000000" stroke="none" 
	d="
M236.996643,277.994385 
	C237.192749,277.810089 237.382278,277.616486 237.601364,277.465851 
	C237.655914,277.428345 237.805847,277.529541 237.911942,277.566986 
	C237.733444,277.702637 237.554932,277.838257 237.194992,277.993530 
	C237.013550,278.013153 237.001022,278.000946 236.996643,277.994385 
z"/>
<path fill="#E3C6AB" opacity="1.000000" stroke="none" 
	d="
M185.001343,276.998077 
	C184.709320,276.845764 184.417282,276.693481 184.125244,276.541199 
	C184.342667,276.599487 184.560104,276.657806 184.888763,276.858063 
	C185.000000,277.000000 185.001343,276.998077 185.001343,276.998077 
z"/>
<path fill="#E3C6AB" opacity="1.000000" stroke="none" 
	d="
M187.480957,278.513519 
	C187.467392,278.485138 187.494522,278.541901 187.480957,278.513519 
z"/>
<path fill="#E3C6AB" opacity="1.000000" stroke="none" 
	d="
M184.999084,277.000610 
	C184.998169,277.001251 185.279205,277.170959 185.279205,277.170959 
	C185.279205,277.170959 185.075943,277.157013 185.038635,277.077545 
	C185.001343,276.998077 185.000000,277.000000 184.999084,277.000610 
z"/>
<path fill="#E3C6AB" opacity="1.000000" stroke="none" 
	d="
M240.503784,276.513214 
	C240.480225,276.522095 240.527344,276.504333 240.503784,276.513214 
z"/>
<path fill="#E2C3A8" opacity="1.000000" stroke="none" 
	d="
M280.996796,217.995514 
	C280.993591,217.991013 280.836548,218.258224 280.836548,218.258224 
	C280.836548,218.258224 280.857269,218.074661 280.933289,218.040649 
	C281.009338,218.006622 281.000000,218.000000 280.996796,217.995514 
z"/>
</svg>