<?xml version="1.0" standalone="no"?>
<!DOCTYPE svg PUBLIC "-//W3C//DTD SVG 20010904//EN"
 "http://www.w3.org/TR/2001/REC-SVG-20010904/DTD/svg10.dtd">
<svg version="1.0" xmlns="http://www.w3.org/2000/svg"
 width="320.000000pt" height="404.000000pt" viewBox="0 0 320.000000 404.000000"
 preserveAspectRatio="xMidYMid meet">

<g transform="translate(0.000000,404.000000) scale(0.100000,-0.100000)"
fill="#000000" stroke="none">
<path d="M0 2020 l0 -2020 1600 0 1600 0 0 2020 0 2020 -1600 0 -1600 0 0
-2020z m2265 723 c3 -27 12 -89 20 -139 8 -49 15 -132 15 -182 0 -55 4 -92 10
-92 6 0 10 4 10 9 0 5 21 36 46 70 50 67 51 70 35 156 -15 85 -14 141 5 159 8
9 19 16 23 16 14 0 83 -184 88 -236 5 -49 3 -56 -29 -96 -19 -24 -51 -72 -71
-109 -43 -79 -80 -117 -115 -121 l-27 -3 -3 -122 -3 -123 -52 -26 c-29 -15
-110 -61 -182 -104 -134 -80 -222 -115 -310 -121 l-50 -4 4 135 c2 74 5 138 8
143 2 4 91 7 198 7 106 0 200 3 209 6 28 11 17 28 -41 62 -92 54 -174 84 -240
90 -70 5 -82 21 -35 46 31 17 27 18 -45 16 l-53 -1 0 190 c0 214 -1 211 79
211 34 0 42 -5 60 -34 30 -47 103 -112 156 -138 45 -22 46 -22 81 -3 75 40
182 175 169 214 -9 30 -70 79 -115 92 -22 7 -40 16 -40 20 0 8 127 49 182 58
4 0 9 -20 13 -46z m-5 -1010 c-1 -145 -31 -494 -46 -534 -19 -51 -81 -237
-119 -359 -14 -47 -48 -131 -75 -187 -47 -98 -70 -125 -70 -84 0 10 -36 89
-80 176 -44 87 -80 163 -80 169 0 17 57 135 92 189 16 26 37 47 46 47 9 0 34
-17 56 -37 l40 -38 -25 35 c-31 42 -120 117 -211 177 -38 24 -68 48 -68 53 0
11 101 98 218 190 232 182 308 239 315 240 4 0 7 -17 7 -37z m-623 -354 c23
-17 43 -34 43 -38 0 -14 -34 -38 -105 -74 -38 -19 -78 -44 -88 -55 -18 -20
-17 -22 41 -119 80 -133 92 -157 92 -190 0 -15 -25 -99 -54 -187 -63 -183 -51
-184 -126 4 -22 58 -62 153 -87 213 l-46 107 37 33 c28 25 38 43 46 82 15 81
46 158 67 166 10 4 35 28 54 53 39 53 54 54 126 5z"/>
</g>
</svg>
